<svg xmlns="http://www.w3.org/2000/svg" width="1100" height="760" viewBox="0 0 1100 760">
  <rect width="1100" height="760" fill="#f4efe9"/>
  <text x="60" y="70" font-family="Arial, sans-serif" font-size="32" font-weight="700" fill="#1f1f1f">Candidate C: West Chase Core</text>
  <text x="60" y="105" font-family="Arial, sans-serif" font-size="18" fill="#4a4a4a">Dense west-side chase map with high bluff and transfer pressure</text>

  <path d="M 200 520 C 230 340, 360 200, 540 160 C 680 130, 820 190, 900 310" fill="none" stroke="#80c241" stroke-width="16" stroke-linecap="round"/>
  <line x1="230" y1="300" x2="700" y2="300" stroke="#f15a24" stroke-width="12" stroke-linecap="round"/>
  <line x1="260" y1="420" x2="620" y2="420" stroke="#e60012" stroke-width="12" stroke-linecap="round"/>
  <path d="M 260 520 C 340 430, 420 360, 500 300 C 580 240, 660 220, 760 220" fill="none" stroke="#c91785" stroke-width="12" stroke-linecap="round"/>
  <path d="M 270 560 C 350 470, 430 390, 520 340 C 640 270, 760 250, 900 260" fill="none" stroke="#8b5a2b" stroke-width="12" stroke-linecap="round"/>

  <g fill="#ffffff" stroke="#1f1f1f" stroke-width="4">
    <circle cx="230" cy="300" r="10"/>
    <circle cx="330" cy="300" r="10"/>
    <circle cx="500" cy="300" r="10"/>
    <circle cx="700" cy="300" r="10"/>
    <circle cx="260" cy="420" r="10"/>
    <circle cx="420" cy="420" r="10"/>
    <circle cx="620" cy="420" r="10"/>
    <circle cx="300" cy="475" r="10"/>
    <circle cx="410" cy="360" r="10"/>
    <circle cx="585" cy="245" r="10"/>
    <circle cx="780" cy="220" r="10"/>
    <circle cx="865" cy="260" r="10"/>
  </g>

  <g font-family="Arial, sans-serif" font-size="20" fill="#1f1f1f">
    <text x="170" y="295">Nakano</text>
    <text x="264" y="295">Shinjuku</text>
    <text x="455" y="295">Yotsuya</text>
    <text x="654" y="295">Tokyo</text>
    <text x="200" y="445">Nakano-sakaue</text>
    <text x="348" y="445">Shinjuku-sanchome</text>
    <text x="575" y="445">Ochanomizu</text>
    <text x="235" y="500">Tochomae</text>
    <text x="318" y="355">Higashi-shinjuku</text>
    <text x="510" y="240">Meiji-jingumae</text>
    <text x="708" y="215">Shibuya</text>
    <text x="820" y="255">Ikebukuro</text>
  </g>

  <g transform="translate(810,420)">
    <rect width="230" height="210" rx="16" fill="#fbf8f4" stroke="#d2c8b9"/>
    <text x="20" y="34" font-family="Arial, sans-serif" font-size="22" font-weight="700" fill="#1f1f1f">Legend</text>
    <line x1="20" y1="70" x2="80" y2="70" stroke="#80c241" stroke-width="12" stroke-linecap="round"/>
    <text x="95" y="76" font-family="Arial, sans-serif" font-size="18" fill="#1f1f1f">JR Yamanote</text>
    <line x1="20" y1="105" x2="80" y2="105" stroke="#f15a24" stroke-width="12" stroke-linecap="round"/>
    <text x="95" y="111" font-family="Arial, sans-serif" font-size="18" fill="#1f1f1f">JR Chuo Rapid</text>
    <line x1="20" y1="140" x2="80" y2="140" stroke="#e60012" stroke-width="12" stroke-linecap="round"/>
    <text x="95" y="146" font-family="Arial, sans-serif" font-size="18" fill="#1f1f1f">Metro Marunouchi</text>
    <line x1="20" y1="175" x2="80" y2="175" stroke="#c91785" stroke-width="12" stroke-linecap="round"/>
    <text x="95" y="181" font-family="Arial, sans-serif" font-size="18" fill="#1f1f1f">Toei Oedo</text>
  </g>

  <g transform="translate(810,650)">
    <line x1="20" y1="0" x2="80" y2="0" stroke="#8b5a2b" stroke-width="12" stroke-linecap="round"/>
    <text x="95" y="6" font-family="Arial, sans-serif" font-size="18" fill="#1f1f1f">Metro Fukutoshin</text>
  </g>
</svg>
