<svg xmlns="http://www.w3.org/2000/svg" width="1100" height="760" viewBox="0 0 1100 760">
  <rect width="1100" height="760" fill="#f6f2e8"/>
  <text x="60" y="70" font-family="Arial, sans-serif" font-size="32" font-weight="700" fill="#1f1f1f">Candidate A: Central Loop Core</text>
  <text x="60" y="105" font-family="Arial, sans-serif" font-size="18" fill="#4a4a4a">Gameplay schematic using real-world-inspired line colors</text>

  <circle cx="500" cy="360" r="220" fill="none" stroke="#80c241" stroke-width="18"/>

  <line x1="210" y1="260" x2="790" y2="260" stroke="#f15a24" stroke-width="14" stroke-linecap="round"/>
  <line x1="270" y1="420" x2="730" y2="420" stroke="#e60012" stroke-width="12" stroke-linecap="round"/>
  <path d="M 330 160 C 260 250, 250 460, 380 540 C 500 610, 700 590, 760 430 C 800 320, 760 220, 690 170" fill="none" stroke="#c91785" stroke-width="12" stroke-linecap="round"/>

  <g fill="#ffffff" stroke="#1f1f1f" stroke-width="4">
    <circle cx="500" cy="140" r="10"/>
    <circle cx="655" cy="205" r="10"/>
    <circle cx="720" cy="360" r="10"/>
    <circle cx="655" cy="515" r="10"/>
    <circle cx="500" cy="580" r="10"/>
    <circle cx="345" cy="515" r="10"/>
    <circle cx="280" cy="360" r="10"/>
    <circle cx="345" cy="205" r="10"/>
    <circle cx="420" cy="260" r="10"/>
    <circle cx="580" cy="260" r="10"/>
    <circle cx="420" cy="420" r="10"/>
    <circle cx="580" cy="420" r="10"/>
    <circle cx="730" cy="420" r="10"/>
  </g>

  <g font-family="Arial, sans-serif" font-size="20" fill="#1f1f1f">
    <text x="470" y="125">Ueno</text>
    <text x="670" y="210">Akihabara</text>
    <text x="735" y="366">Tokyo</text>
    <text x="660" y="538">Shinagawa</text>
    <text x="468" y="610">Shibuya</text>
    <text x="250" y="538">Shinjuku</text>
    <text x="205" y="366">Ikebukuro</text>
    <text x="295" y="198">Otsuka</text>
    <text x="355" y="250">Ochanomizu</text>
    <text x="590" y="250">Kanda</text>
    <text x="298" y="445">Nakano-sakaue</text>
    <text x="598" y="445">Ginza</text>
    <text x="742" y="445">Roppongi</text>
  </g>

  <g transform="translate(810,170)">
    <rect width="220" height="200" rx="16" fill="#fffaf1" stroke="#d6cbb7"/>
    <text x="20" y="34" font-family="Arial, sans-serif" font-size="22" font-weight="700" fill="#1f1f1f">Legend</text>
    <line x1="20" y1="70" x2="80" y2="70" stroke="#80c241" stroke-width="12" stroke-linecap="round"/>
    <text x="95" y="76" font-family="Arial, sans-serif" font-size="18" fill="#1f1f1f">JR Yamanote</text>
    <line x1="20" y1="105" x2="80" y2="105" stroke="#f15a24" stroke-width="12" stroke-linecap="round"/>
    <text x="95" y="111" font-family="Arial, sans-serif" font-size="18" fill="#1f1f1f">JR Chuo Rapid</text>
    <line x1="20" y1="140" x2="80" y2="140" stroke="#e60012" stroke-width="12" stroke-linecap="round"/>
    <text x="95" y="146" font-family="Arial, sans-serif" font-size="18" fill="#1f1f1f">Metro Marunouchi</text>
    <line x1="20" y1="175" x2="80" y2="175" stroke="#c91785" stroke-width="12" stroke-linecap="round"/>
    <text x="95" y="181" font-family="Arial, sans-serif" font-size="18" fill="#1f1f1f">Toei Oedo</text>
  </g>
</svg>
