<svg xmlns="http://www.w3.org/2000/svg" width="1600" height="980" viewBox="0 0 1600 980" role="img" aria-labelledby="title desc">
  <title id="title">OniChase V2 Shinkansen Map Draft</title>
  <desc id="desc">Schematic draft map for OniChase version 2 using the nationwide Shinkansen network as a multi-line strategy map.</desc>
  <defs>
    <style>
      .bg { fill: #f7f3ea; }
      .panel { fill: #fffdf8; stroke: #d9d1c0; stroke-width: 2; }
      .title { font: 700 34px Helvetica, Arial, sans-serif; fill: #1f2933; }
      .subtitle { font: 500 18px Helvetica, Arial, sans-serif; fill: #5f6b76; }
      .legend { font: 700 15px Helvetica, Arial, sans-serif; fill: #1f2933; }
      .legend-small { font: 500 14px Helvetica, Arial, sans-serif; fill: #46515c; }
      .line-label { font: 700 16px Helvetica, Arial, sans-serif; fill: #1f2933; }
      .station-label { font: 700 16px Helvetica, Arial, sans-serif; fill: #1f2933; }
      .station-ja { font: 500 12px Helvetica, Arial, sans-serif; fill: #61707d; }
      .hub { fill: #ffffff; stroke: #1f2933; stroke-width: 4; }
      .node { fill: #ffffff; stroke: #1f2933; stroke-width: 3; }
      .ghost { fill: none; stroke: #d9d1c0; stroke-width: 24; stroke-linecap: round; stroke-linejoin: round; }
      .rail { fill: none; stroke-width: 12; stroke-linecap: round; stroke-linejoin: round; }
      .connector { stroke: #8a97a3; stroke-width: 6; stroke-dasharray: 10 10; fill: none; stroke-linecap: round; }
      .guide { font: 600 14px Helvetica, Arial, sans-serif; fill: #6a7884; }
    </style>
  </defs>

  <rect class="bg" x="0" y="0" width="1600" height="980"/>

  <rect class="panel" x="40" y="34" width="1520" height="910" rx="28"/>
  <text class="title" x="84" y="96">OniChase V2 Map Draft</text>
  <text class="subtitle" x="84" y="130">Nationwide Shinkansen schematic for the first multi-line strategy version</text>

  <g transform="translate(74 172)">
    <rect class="panel" x="0" y="0" width="310" height="278" rx="22"/>
    <text class="legend" x="24" y="34">V2 Goal</text>
    <text class="legend-small" x="24" y="66">Use a clean multi-line rail map before Tokyo complexity.</text>
    <text class="legend-small" x="24" y="98">Focus on long-distance interception and branching routes.</text>
    <text class="legend" x="24" y="144">Line Set</text>
    <line class="rail" x1="28" y1="174" x2="82" y2="174" stroke="#2b78c5"/>
    <text class="legend-small" x="98" y="180">Tohoku / Hokkaido</text>
    <line class="rail" x1="28" y1="204" x2="82" y2="204" stroke="#e34c3a"/>
    <text class="legend-small" x="98" y="210">Tokaido / Sanyo</text>
    <line class="rail" x1="28" y1="234" x2="82" y2="234" stroke="#159570"/>
    <text class="legend-small" x="98" y="240">Joetsu</text>
    <line class="rail" x1="170" y1="174" x2="224" y2="174" stroke="#1f66c1"/>
    <text class="legend-small" x="238" y="180">Hokuriku</text>
    <line class="rail" x1="170" y1="204" x2="224" y2="204" stroke="#b54aa5"/>
    <text class="legend-small" x="238" y="210">Yamagata / Akita</text>
    <line class="rail" x1="170" y1="234" x2="224" y2="234" stroke="#d26724"/>
    <text class="legend-small" x="238" y="240">Kyushu</text>
  </g>

  <g transform="translate(430 150)">
    <path class="ghost" d="M320 650 L360 610 L398 565 L430 520 L465 475 L500 430 L535 385 L566 342 L596 295 L625 248 L648 200 L665 152 L680 108 L694 64"/>
    <path class="ghost" d="M320 650 L380 650 L440 650 L500 650 L558 650 L615 650 L675 650 L735 650 L795 650 L855 650 L915 650"/>
    <path class="ghost" d="M320 650 L298 615 L282 578 L269 542 L255 504 L238 466 L223 430"/>
    <path class="ghost" d="M320 650 L300 616 L278 582 L256 550 L232 516 L210 482 L186 447 L161 412"/>
    <path class="ghost" d="M320 650 L350 618 L380 584 L410 552"/>
    <path class="ghost" d="M320 650 L360 610 L402 570"/>

    <path class="rail" stroke="#2b78c5" d="M320 650 L360 610 L398 565 L430 520 L465 475 L500 430 L535 385 L566 342 L596 295 L625 248 L648 200 L665 152"/>
    <path class="rail" stroke="#6c54b7" d="M665 152 L694 64"/>
    <path class="rail" stroke="#b54aa5" d="M500 430 L470 384 L440 338"/>
    <path class="rail" stroke="#b54aa5" d="M566 342 L626 322 L686 302"/>
    <path class="rail" stroke="#159570" d="M320 650 L298 615 L282 578 L269 542 L255 504 L238 466 L223 430"/>
    <path class="rail" stroke="#1f66c1" d="M320 650 L300 616 L278 582 L256 550 L232 516 L210 482 L186 447 L161 412"/>
    <path class="rail" stroke="#e34c3a" d="M320 650 L380 650 L440 650 L500 650 L558 650 L615 650 L675 650 L735 650 L795 650 L855 650"/>
    <path class="rail" stroke="#d26724" d="M855 650 L915 650"/>

    <path class="connector" d="M665 152 L648 200"/>

    <text class="line-label" x="610" y="84">Hokkaido</text>
    <text class="line-label" x="697" y="286">Akita</text>
    <text class="line-label" x="428" y="322">Yamagata</text>
    <text class="line-label" x="165" y="390">Joetsu</text>
    <text class="line-label" x="106" y="493">Hokuriku</text>
    <text class="line-label" x="693" y="628">Tokaido / Sanyo</text>
    <text class="line-label" x="934" y="628">Kyushu</text>
    <text class="line-label" x="602" y="214">Tohoku</text>

    <g>
      <circle class="hub" cx="320" cy="650" r="12"/>
      <text class="station-label" x="340" y="645">Tokyo</text>
      <text class="station-ja" x="340" y="664">東京</text>
    </g>
    <g>
      <circle class="node" cx="360" cy="610" r="10"/>
      <text class="station-label" x="380" y="606">Ueno</text>
      <text class="station-ja" x="380" y="624">上野</text>
    </g>
    <g>
      <circle class="hub" cx="398" cy="565" r="11"/>
      <text class="station-label" x="418" y="560">Omiya</text>
      <text class="station-ja" x="418" y="578">大宮</text>
    </g>
    <g>
      <circle class="node" cx="430" cy="520" r="10"/>
      <text class="station-label" x="450" y="516">Utsunomiya</text>
      <text class="station-ja" x="450" y="534">宇都宮</text>
    </g>
    <g>
      <circle class="node" cx="465" cy="475" r="10"/>
      <text class="station-label" x="485" y="471">Koriyama</text>
      <text class="station-ja" x="485" y="489">郡山</text>
    </g>
    <g>
      <circle class="hub" cx="500" cy="430" r="11"/>
      <text class="station-label" x="520" y="426">Fukushima</text>
      <text class="station-ja" x="520" y="444">福島</text>
    </g>
    <g>
      <circle class="node" cx="535" cy="385" r="10"/>
      <text class="station-label" x="555" y="381">Sendai</text>
      <text class="station-ja" x="555" y="399">仙台</text>
    </g>
    <g>
      <circle class="node" cx="566" cy="342" r="10"/>
      <text class="station-label" x="586" y="338">Morioka</text>
      <text class="station-ja" x="586" y="356">盛岡</text>
    </g>
    <g>
      <circle class="node" cx="596" cy="295" r="10"/>
      <text class="station-label" x="616" y="291">Shin-Aomori</text>
      <text class="station-ja" x="616" y="309">新青森</text>
    </g>
    <g>
      <circle class="node" cx="625" cy="248" r="10"/>
      <text class="station-label" x="645" y="244">Shin-Hakodate-Hokuto</text>
      <text class="station-ja" x="645" y="262">新函館北斗</text>
    </g>
    <g>
      <circle class="node" cx="665" cy="152" r="10"/>
      <text class="station-label" x="685" y="148">Sapporo</text>
      <text class="station-ja" x="685" y="166">札幌</text>
    </g>

    <g>
      <circle class="node" cx="440" cy="338" r="10"/>
      <text class="station-label" x="342" y="333">Yamagata</text>
      <text class="station-ja" x="342" y="351">山形</text>
    </g>
    <g>
      <circle class="node" cx="686" cy="302" r="10"/>
      <text class="station-label" x="706" y="298">Akita</text>
      <text class="station-ja" x="706" y="316">秋田</text>
    </g>

    <g>
      <circle class="node" cx="223" cy="430" r="10"/>
      <text class="station-label" x="95" y="425">Niigata</text>
      <text class="station-ja" x="95" y="443">新潟</text>
    </g>
    <g>
      <circle class="node" cx="161" cy="412" r="10"/>
      <text class="station-label" x="50" y="407">Kanazawa</text>
      <text class="station-ja" x="50" y="425">金沢</text>
    </g>
    <g>
      <circle class="node" cx="255" cy="504" r="10"/>
      <text class="station-label" x="124" y="500">Nagano</text>
      <text class="station-ja" x="124" y="518">長野</text>
    </g>
    <g>
      <circle class="node" cx="269" cy="542" r="10"/>
      <text class="station-label" x="140" y="538">Takasaki</text>
      <text class="station-ja" x="140" y="556">高崎</text>
    </g>

    <g>
      <circle class="node" cx="440" cy="650" r="10"/>
      <text class="station-label" x="460" y="646">Nagoya</text>
      <text class="station-ja" x="460" y="664">名古屋</text>
    </g>
    <g>
      <circle class="node" cx="558" cy="650" r="10"/>
      <text class="station-label" x="578" y="646">Kyoto</text>
      <text class="station-ja" x="578" y="664">京都</text>
    </g>
    <g>
      <circle class="hub" cx="615" cy="650" r="11"/>
      <text class="station-label" x="635" y="646">Shin-Osaka</text>
      <text class="station-ja" x="635" y="664">新大阪</text>
    </g>
    <g>
      <circle class="node" cx="735" cy="650" r="10"/>
      <text class="station-label" x="755" y="646">Okayama</text>
      <text class="station-ja" x="755" y="664">岡山</text>
    </g>
    <g>
      <circle class="node" cx="795" cy="650" r="10"/>
      <text class="station-label" x="815" y="646">Hiroshima</text>
      <text class="station-ja" x="815" y="664">広島</text>
    </g>
    <g>
      <circle class="hub" cx="855" cy="650" r="11"/>
      <text class="station-label" x="875" y="646">Hakata</text>
      <text class="station-ja" x="875" y="664">博多</text>
    </g>
    <g>
      <circle class="node" cx="915" cy="650" r="10"/>
      <text class="station-label" x="935" y="646">Kagoshima-Chuo</text>
      <text class="station-ja" x="935" y="664">鹿児島中央</text>
    </g>

    <text class="guide" x="0" y="770">Draft note: this is a V2 strategy schematic, not a final geographic or operator-perfect rail diagram.</text>
    <text class="guide" x="0" y="794">Main purpose: expose branch decisions, long-distance interception paths, and cleaner multi-line planning than Tokyo.</text>
  </g>
</svg>
