<svg xmlns="http://www.w3.org/2000/svg" width="2600" height="2700" viewBox="-1700 -120 4400 2680" role="img" aria-labelledby="title desc">
<title id="title">OniChase V2 Geometry Map</title>
<desc id="desc">Data-driven Shinkansen map generated from route and station geometry.</desc>
<defs>
<style>
.bg { fill: #f6f2e8; }
.panel { fill: #fffdf8; stroke: #d6d0c2; stroke-width: 2; }
.title { font: 700 34px Helvetica, Arial, sans-serif; fill: #1f2933; }
.subtitle { font: 500 18px Helvetica, Arial, sans-serif; fill: #5f6b76; }
.note { font: 500 14px Helvetica, Arial, sans-serif; fill: #697586; }
.route { fill: none; stroke-width: 10; stroke-linecap: round; stroke-linejoin: round; }
.station { fill: #ffffff; stroke: #1f2933; stroke-width: 2; }
.hub { fill: #ffffff; stroke: #1f2933; stroke-width: 4; }
.station-label { font: 600 12px Helvetica, Arial, sans-serif; fill: #1f2933; }
.hub-label { font: 700 13px Helvetica, Arial, sans-serif; fill: #1f2933; }
.line-label { font: 700 15px Helvetica, Arial, sans-serif; fill: #1f2933; }
</style>
</defs>
<rect class="bg" x="-1700" y="-120" width="4400" height="2680"/>
<rect class="panel" x="-1650" y="-80" width="4300" height="2600" rx="30"/>
<text class="title" x="-1580" y="-20">OniChase V2 Real Geometry Seed</text>
<text class="subtitle" x="-1580" y="12">First data-driven Shinkansen map: real route order, geometry-seed station placement, temporary before full lat/lon replacement.</text>
<text class="note" x="-1580" y="2460">This map is generated from route and station data. It is now a geometry pipeline artifact rather than a hand-drawn final SVG.</text>
<polyline class="route" stroke="#2d9c5b" points="891.96,1538.68 894.6,1531.87 857.63,1491.38 901.66,1405.98 923.93,1354.16 953.49,1275.82 994.16,1235.6 1042.59,1177.82 1059.59,1103.0 1102.22,1053.05 1160.81,996.51 1182.41,931.26 1207.47,893.95 1223.57,856.57 1235.69,810.6 1219.47,782.02 1231.99,755.82 1223.19,693.66 1242.61,639.3 1259.35,576.28 1294.46,523.9 1227.4,479.62 1116.09,456.99"/>
<text class="line-label" x="1760" y="520">Tohoku</text>
<polyline class="route" stroke="#2aa7d8" points="1116.09,456.99 1073.1,390.23 1053.38,278.29 1104.74,230.42"/>
<text class="line-label" x="1880" y="36">Hokkaido</text>
<polyline class="route" stroke="#f09b20" points="891.96,1538.68 894.6,1531.87 857.63,1491.38 901.66,1405.98 923.93,1354.16 953.49,1275.82 994.16,1235.6 1042.59,1177.82 1059.59,1103.0 979.47,1070.35 985.42,1052.94 984.49,1041.42 1015.84,1019.32 1027.58,999.17 1037.74,975.67 1040.49,961.34 1041.88,951.04 1039.2,926.06 1022.46,891.03"/>
<text class="line-label" x="1160" y="1210">Yamagata</text>
<polyline class="route" stroke="#d54a96" points="891.96,1538.68 894.6,1531.87 857.63,1491.38 901.66,1405.98 923.93,1354.16 953.49,1275.82 994.16,1235.6 1042.59,1177.82 1059.59,1103.0 1102.22,1053.05 1160.81,996.51 1182.41,931.26 1207.47,893.95 1223.57,856.57 1235.69,810.6 1219.47,782.02 1231.99,755.82 1223.19,693.66 1184.07,696.25 1123.02,693.91 1086.49,716.75 1064.41,743.23 979.89,690.47"/>
<text class="line-label" x="1660" y="640">Akita</text>
<polyline class="route" stroke="#e65045" points="891.96,1538.68 894.6,1531.87 857.63,1491.38 800.95,1442.36 750.19,1425.73 709.79,1403.98 701.4,1326.09 660.7,1275.01 688.15,1226.31 671.5,1167.39 692.13,1125.14 721.51,1069.76"/>
<text class="line-label" x="1180" y="1130">Joetsu</text>
<polyline class="route" stroke="#9aa7b5" stroke-dasharray="8 8" points="660.7,1275.01 658.33,1271.93"/>
<text class="line-label" x="1258" y="1218">GALA Yuzawa</text>
<polyline class="route" stroke="#2c62c9" points="891.96,1538.68 894.6,1531.87 857.63,1491.38 800.95,1442.36 750.19,1425.73 709.79,1403.98 670.43,1395.5 618.61,1399.64 577.35,1413.29 525.37,1388.35 510.82,1336.49 551.96,1293.54 525.41,1244.32 431.6,1252.35 339.75,1287.98 274.94,1324.29 225.96,1318.9 138.4,1350.2 91.21,1387.1 66.42,1404.33 38.56,1426.62 35.77,1458.67 29.83,1493.65 0.24,1546.38"/>
<text class="line-label" x="720" y="1690">Hokuriku</text>
<polyline class="route" stroke="#1f4fb9" points="891.96,1538.68 885.41,1549.75 856.01,1575.38 744.45,1628.05 725.58,1660.14 685.33,1655.37 2000.0,0.0 559.03,1687.87 468.73,1730.37 401.01,1744.16 315.79,1731.78 238.16,1688.28 194.83,1646.03 147.44,1615.52 51.84,1615.77 -76.8,1684.97 -138.65,1737.79"/>
<text class="line-label" x="760" y="1752">Tokaido</text>
<polyline class="route" stroke="#00a0d2" points="-138.65,1737.79 -212.62,1743.62 -269.57,1752.14 -334.67,1718.14 -387.2,1720.16 -521.3,1752.0 -579.36,1773.33 -655.95,1789.26 -696.74,1802.41 -723.23,1807.93 -801.41,1810.29 -870.05,1808.57 -949.31,1857.92 -1032.63,1881.27 -1130.83,1872.51 -1188.01,1880.89 -1239.24,1890.92 -1255.03,1915.91 -1366.7,1978.29"/>
<text class="line-label" x="-640" y="1752">Sanyo</text>
<polyline class="route" stroke="#d35d1f" points="-1366.7,1978.29 -1349.66,2024.47 -1347.18,2035.09 -1349.55,2064.88 -1350.22,2087.36 -1330.24,2115.34 -1301.96,2146.61 -1314.91,2203.64 -1364.7,2268.19 -1381.88,2293.74 1334.59,706.44 -1337.42,2400.0"/>
<text class="line-label" x="-1310" y="2088">Kyushu</text>
<polyline class="route" stroke="#7e52b8" points="-1349.66,2024.47 -1462.96,2061.07 -1468.64,2079.94 -1478.77,2116.43 -1458.31,2133.62 -1500.0,2154.28"/>
<text class="line-label" x="-1600" y="1650">Nishi-Kyushu</text>
<circle class="hub" cx="891.96" cy="1538.68" r="9"/>
<text class="hub-label" x="909.96" y="1530.68">Tokyo</text>
<circle class="hub" cx="894.6" cy="1531.87" r="9"/>
<text class="hub-label" x="912.6" y="1526.87">Ueno</text>
<circle class="hub" cx="857.63" cy="1491.38" r="9"/>
<text class="hub-label" x="875.63" y="1486.38">Omiya</text>
<circle class="station" cx="800.95" cy="1442.36" r="6"/>
<text class="station-label" x="818.95" y="1437.36">Kumagaya</text>
<circle class="station" cx="750.19" cy="1425.73" r="6"/>
<text class="station-label" x="768.19" y="1420.73">Honjo-Waseda</text>
<circle class="hub" cx="709.79" cy="1403.98" r="9"/>
<text class="hub-label" x="727.79" y="1398.98">Takasaki</text>
<circle class="station" cx="901.66" cy="1405.98" r="6"/>
<text class="station-label" x="919.66" y="1400.98">Oyama</text>
<circle class="station" cx="923.93" cy="1354.16" r="6"/>
<text class="station-label" x="941.93" y="1349.16">Utsunomiya</text>
<circle class="station" cx="953.49" cy="1275.82" r="6"/>
<text class="station-label" x="971.49" y="1270.82">Nasushiobara</text>
<circle class="station" cx="994.16" cy="1235.6" r="6"/>
<text class="station-label" x="1012.16" y="1230.6">Shin-Shirakawa</text>
<circle class="station" cx="1042.59" cy="1177.82" r="6"/>
<text class="station-label" x="1060.59" y="1172.82">Koriyama</text>
<circle class="hub" cx="1059.59" cy="1103.0" r="9"/>
<text class="hub-label" x="1077.59" y="1098.0">Fukushima</text>
<circle class="station" cx="1102.22" cy="1053.05" r="6"/>
<text class="station-label" x="1120.22" y="1048.05">Shiroishi-Zao</text>
<circle class="hub" cx="1160.81" cy="996.51" r="9"/>
<text class="hub-label" x="1178.81" y="991.51">Sendai</text>
<circle class="station" cx="1182.41" cy="931.26" r="6"/>
<text class="station-label" x="1200.41" y="926.26">Furukawa</text>
<circle class="station" cx="1207.47" cy="893.95" r="6"/>
<text class="station-label" x="1225.47" y="888.95">Kurikoma-Kogen</text>
<circle class="station" cx="1223.57" cy="856.57" r="6"/>
<text class="station-label" x="1241.57" y="851.57">Ichinoseki</text>
<circle class="station" cx="1235.69" cy="810.6" r="6"/>
<text class="station-label" x="1253.69" y="805.6">Mizusawa-Esashi</text>
<circle class="station" cx="1219.47" cy="782.02" r="6"/>
<text class="station-label" x="1237.47" y="777.02">Kitakami</text>
<circle class="station" cx="1231.99" cy="755.82" r="6"/>
<text class="station-label" x="1249.99" y="750.82">Shin-Hanamaki</text>
<circle class="hub" cx="1223.19" cy="693.66" r="9"/>
<text class="hub-label" x="1241.19" y="688.66">Morioka</text>
<circle class="station" cx="1242.61" cy="639.3" r="6"/>
<text class="station-label" x="1260.61" y="634.3">Iwate-Numakunai</text>
<circle class="station" cx="1259.35" cy="576.28" r="6"/>
<text class="station-label" x="1277.35" y="571.28">Ninohe</text>
<circle class="station" cx="1294.46" cy="523.9" r="6"/>
<text class="station-label" x="1312.46" y="518.9">Hachinohe</text>
<circle class="station" cx="1227.4" cy="479.62" r="6"/>
<text class="station-label" x="1245.4" y="474.62">Shichinohe-Towada</text>
<circle class="hub" cx="1116.09" cy="456.99" r="9"/>
<text class="hub-label" x="1134.09" y="451.99">Shin-Aomori</text>
<circle class="station" cx="1073.1" cy="390.23" r="6"/>
<text class="station-label" x="1091.1" y="385.23">Oku-Tsugaru-Imabetsu</text>
<circle class="station" cx="1053.38" cy="278.29" r="6"/>
<text class="station-label" x="1071.38" y="273.29">Kikonai</text>
<circle class="hub" cx="1104.74" cy="230.42" r="9"/>
<text class="hub-label" x="1122.74" y="225.42">Shin-Hakodate-Hokuto</text>
<circle class="station" cx="979.47" cy="1070.35" r="6"/>
<text class="station-label" x="997.47" y="1065.35">Yonezawa</text>
<circle class="station" cx="985.42" cy="1052.94" r="6"/>
<text class="station-label" x="1003.42" y="1047.94">Takahata</text>
<circle class="station" cx="984.49" cy="1041.42" r="6"/>
<text class="station-label" x="1002.49" y="1036.42">Akayu</text>
<circle class="station" cx="1015.84" cy="1019.32" r="6"/>
<text class="station-label" x="1033.8400000000001" y="1014.32">Kaminoyama-Onsen</text>
<circle class="hub" cx="1027.58" cy="999.17" r="9"/>
<text class="hub-label" x="1045.58" y="994.17">Yamagata</text>
<circle class="station" cx="1037.74" cy="975.67" r="6"/>
<text class="station-label" x="1055.74" y="970.67">Tendo</text>
<circle class="station" cx="1040.49" cy="961.34" r="6"/>
<text class="station-label" x="1058.49" y="956.34">Sakuranbo-Higashine</text>
<circle class="station" cx="1041.88" cy="951.04" r="6"/>
<text class="station-label" x="1059.88" y="946.04">Murayama</text>
<circle class="station" cx="1039.2" cy="926.06" r="6"/>
<text class="station-label" x="1057.2" y="921.06">Oishida</text>
<circle class="hub" cx="1022.46" cy="891.03" r="9"/>
<text class="hub-label" x="1040.46" y="886.03">Shinjo</text>
<circle class="station" cx="1184.07" cy="696.25" r="6"/>
<text class="station-label" x="1202.07" y="691.25">Shizukuishi</text>
<circle class="station" cx="1123.02" cy="693.91" r="6"/>
<text class="station-label" x="1141.02" y="688.91">Tazawako</text>
<circle class="station" cx="1086.49" cy="716.75" r="6"/>
<text class="station-label" x="1104.49" y="711.75">Kakunodate</text>
<circle class="hub" cx="1064.41" cy="743.23" r="9"/>
<text class="hub-label" x="1082.41" y="738.23">Omagari</text>
<circle class="hub" cx="979.89" cy="690.47" r="9"/>
<text class="hub-label" x="997.89" y="682.47">Akita</text>
<circle class="station" cx="701.4" cy="1326.09" r="6"/>
<text class="station-label" x="719.4" y="1321.09">Jomo-Kogen</text>
<circle class="hub" cx="660.7" cy="1275.01" r="9"/>
<text class="hub-label" x="678.7" y="1270.01">Echigo-Yuzawa</text>
<circle class="station" cx="658.33" cy="1271.93" r="6"/>
<text class="station-label" x="676.33" y="1266.93">Gala Yuzawa</text>
<circle class="station" cx="688.15" cy="1226.31" r="6"/>
<text class="station-label" x="706.15" y="1221.31">Urasa</text>
<circle class="hub" cx="671.5" cy="1167.39" r="9"/>
<text class="hub-label" x="689.5" y="1162.39">Nagaoka</text>
<circle class="station" cx="692.13" cy="1125.14" r="6"/>
<text class="station-label" x="710.13" y="1120.14">Tsubame-Sanjo</text>
<circle class="hub" cx="721.51" cy="1069.76" r="9"/>
<text class="hub-label" x="739.51" y="1061.76">Niigata</text>
<circle class="station" cx="670.43" cy="1395.5" r="6"/>
<text class="station-label" x="688.43" y="1390.5">Annaka-Haruna</text>
<circle class="station" cx="618.61" cy="1399.64" r="6"/>
<text class="station-label" x="636.61" y="1394.64">Karuizawa</text>
<circle class="station" cx="577.35" cy="1413.29" r="6"/>
<text class="station-label" x="595.35" y="1408.29">Sakudaira</text>
<circle class="station" cx="525.37" cy="1388.35" r="6"/>
<text class="station-label" x="543.37" y="1383.35">Ueda</text>
<circle class="hub" cx="510.82" cy="1336.49" r="9"/>
<text class="hub-label" x="528.8199999999999" y="1331.49">Nagano</text>
<circle class="station" cx="551.96" cy="1293.54" r="6"/>
<text class="station-label" x="569.96" y="1288.54">Iiyama</text>
<circle class="hub" cx="525.41" cy="1244.32" r="9"/>
<text class="hub-label" x="543.41" y="1239.32">Joetsumyoko</text>
<circle class="station" cx="431.6" cy="1252.35" r="6"/>
<text class="station-label" x="449.6" y="1247.35">Itoigawa</text>
<circle class="station" cx="339.75" cy="1287.98" r="6"/>
<text class="station-label" x="357.75" y="1282.98">Kurobe-Unazukionsen</text>
<circle class="hub" cx="274.94" cy="1324.29" r="9"/>
<text class="hub-label" x="292.94" y="1319.29">Toyama</text>
<circle class="station" cx="225.96" cy="1318.9" r="6"/>
<text class="station-label" x="243.96" y="1313.9">Shin-Takaoka</text>
<circle class="hub" cx="138.4" cy="1350.2" r="9"/>
<text class="hub-label" x="156.4" y="1342.2">Kanazawa</text>
<circle class="station" cx="91.21" cy="1387.1" r="6"/>
<text class="station-label" x="109.21" y="1382.1">Komatsu</text>
<circle class="station" cx="66.42" cy="1404.33" r="6"/>
<text class="station-label" x="84.42" y="1399.33">Kagaonsen</text>
<circle class="station" cx="38.56" cy="1426.62" r="6"/>
<text class="station-label" x="56.56" y="1421.62">Awaraonsen</text>
<circle class="hub" cx="35.77" cy="1458.67" r="9"/>
<text class="hub-label" x="53.77" y="1453.67">Fukui</text>
<circle class="station" cx="29.83" cy="1493.65" r="6"/>
<text class="station-label" x="47.83" y="1488.65">Echizen-Takefu</text>
<circle class="hub" cx="0.24" cy="1546.38" r="9"/>
<text class="hub-label" x="18.24" y="1541.38">Tsuruga</text>
<circle class="hub" cx="885.41" cy="1549.75" r="9"/>
<text class="hub-label" x="903.41" y="1544.75">Shinagawa</text>
<circle class="hub" cx="856.01" cy="1575.38" r="9"/>
<text class="hub-label" x="874.01" y="1570.38">Shin-Yokohama</text>
<circle class="station" cx="744.45" cy="1628.05" r="6"/>
<text class="station-label" x="762.45" y="1623.05">Odawara</text>
<circle class="station" cx="725.58" cy="1660.14" r="6"/>
<text class="station-label" x="743.58" y="1655.14">Atami</text>
<circle class="station" cx="685.33" cy="1655.37" r="6"/>
<text class="station-label" x="703.33" y="1650.37">Mishima</text>
<circle class="station" cx="2000.0" cy="0.0" r="6"/>
<text class="station-label" x="2018.0" y="-5.0">Shin-Fuji</text>
<circle class="hub" cx="559.03" cy="1687.87" r="9"/>
<text class="hub-label" x="577.03" y="1682.87">Shizuoka</text>
<circle class="station" cx="468.73" cy="1730.37" r="6"/>
<text class="station-label" x="486.73" y="1725.37">Kakegawa</text>
<circle class="hub" cx="401.01" cy="1744.16" r="9"/>
<text class="hub-label" x="419.01" y="1739.16">Hamamatsu</text>
<circle class="station" cx="315.79" cy="1731.78" r="6"/>
<text class="station-label" x="333.79" y="1726.78">Toyohashi</text>
<circle class="station" cx="238.16" cy="1688.28" r="6"/>
<text class="station-label" x="256.15999999999997" y="1683.28">Mikawa-Anjo</text>
<circle class="hub" cx="194.83" cy="1646.03" r="9"/>
<text class="hub-label" x="212.83" y="1638.03">Nagoya</text>
<circle class="station" cx="147.44" cy="1615.52" r="6"/>
<text class="station-label" x="165.44" y="1610.52">Gifu-Hashima</text>
<circle class="hub" cx="51.84" cy="1615.77" r="9"/>
<text class="hub-label" x="69.84" y="1610.77">Maibara</text>
<circle class="hub" cx="-76.8" cy="1684.97" r="9"/>
<text class="hub-label" x="-58.8" y="1679.97">Kyoto</text>
<circle class="hub" cx="-138.65" cy="1737.79" r="9"/>
<text class="hub-label" x="-120.65" y="1729.79">Shin-Osaka</text>
<circle class="hub" cx="-212.62" cy="1743.62" r="9"/>
<text class="hub-label" x="-194.62" y="1738.62">Shin-Kobe</text>
<circle class="station" cx="-269.57" cy="1752.14" r="6"/>
<text class="station-label" x="-251.57" y="1747.14">Nishi-Akashi</text>
<circle class="hub" cx="-334.67" cy="1718.14" r="9"/>
<text class="hub-label" x="-316.67" y="1713.14">Himeji</text>
<circle class="station" cx="-387.2" cy="1720.16" r="6"/>
<text class="station-label" x="-369.2" y="1715.16">Aioi</text>
<circle class="hub" cx="-521.3" cy="1752.0" r="9"/>
<text class="hub-label" x="-503.29999999999995" y="1747.0">Okayama</text>
<circle class="station" cx="-579.36" cy="1773.33" r="6"/>
<text class="station-label" x="-561.36" y="1768.33">Shin-Kurashiki</text>
<circle class="hub" cx="-655.95" cy="1789.26" r="9"/>
<text class="hub-label" x="-637.95" y="1784.26">Fukuyama</text>
<circle class="station" cx="-696.74" cy="1802.41" r="6"/>
<text class="station-label" x="-678.74" y="1797.41">Shin-Onomichi</text>
<circle class="station" cx="-723.23" cy="1807.93" r="6"/>
<text class="station-label" x="-705.23" y="1802.93">Mihara</text>
<circle class="station" cx="-801.41" cy="1810.29" r="6"/>
<text class="station-label" x="-783.41" y="1805.29">Higashi-Hiroshima</text>
<circle class="hub" cx="-870.05" cy="1808.57" r="9"/>
<text class="hub-label" x="-852.05" y="1803.57">Hiroshima</text>
<circle class="station" cx="-949.31" cy="1857.92" r="6"/>
<text class="station-label" x="-931.31" y="1852.92">Shin-Iwakuni</text>
<circle class="hub" cx="-1032.63" cy="1881.27" r="9"/>
<text class="hub-label" x="-1014.6300000000001" y="1876.27">Tokuyama</text>
<circle class="hub" cx="-1130.83" cy="1872.51" r="9"/>
<text class="hub-label" x="-1112.83" y="1867.51">Shin-Yamaguchi</text>
<circle class="station" cx="-1188.01" cy="1880.89" r="6"/>
<text class="station-label" x="-1170.01" y="1875.89">Asa</text>
<circle class="hub" cx="-1239.24" cy="1890.92" r="9"/>
<text class="hub-label" x="-1221.24" y="1885.92">Shin-Shimonoseki</text>
<circle class="hub" cx="-1255.03" cy="1915.91" r="9"/>
<text class="hub-label" x="-1237.03" y="1910.91">Kokura</text>
<circle class="hub" cx="-1366.7" cy="1978.29" r="9"/>
<text class="hub-label" x="-1348.7" y="1970.29">Hakata</text>
<circle class="hub" cx="-1349.66" cy="2024.47" r="9"/>
<text class="hub-label" x="-1331.66" y="2019.47">Shin-Tosu</text>
<circle class="hub" cx="-1347.18" cy="2035.09" r="9"/>
<text class="hub-label" x="-1329.18" y="2030.09">Kurume</text>
<circle class="station" cx="-1349.55" cy="2064.88" r="6"/>
<text class="station-label" x="-1331.55" y="2059.88">Chikugo-Funagoya</text>
<circle class="station" cx="-1350.22" cy="2087.36" r="6"/>
<text class="station-label" x="-1332.22" y="2082.36">Shin-Omuta</text>
<circle class="station" cx="-1330.24" cy="2115.34" r="6"/>
<text class="station-label" x="-1312.24" y="2110.34">Shin-Tamana</text>
<circle class="hub" cx="-1301.96" cy="2146.61" r="9"/>
<text class="hub-label" x="-1283.96" y="2141.61">Kumamoto</text>
<circle class="hub" cx="-1314.91" cy="2203.64" r="9"/>
<text class="hub-label" x="-1296.91" y="2198.64">Shin-Yatsushiro</text>
<circle class="station" cx="-1364.7" cy="2268.19" r="6"/>
<text class="station-label" x="-1346.7" y="2263.19">Shin-Minamata</text>
<circle class="station" cx="-1381.88" cy="2293.74" r="6"/>
<text class="station-label" x="-1363.88" y="2288.74">Izumi</text>
<circle class="hub" cx="1334.59" cy="706.44" r="9"/>
<text class="hub-label" x="1352.59" y="701.44">Sendai</text>
<circle class="hub" cx="-1337.42" cy="2400.0" r="9"/>
<text class="hub-label" x="-1319.42" y="2395.0">Kagoshima-Chuo</text>
<circle class="hub" cx="-1462.96" cy="2061.07" r="9"/>
<text class="hub-label" x="-1444.96" y="2056.07">Takeo-Onsen</text>
<circle class="station" cx="-1468.64" cy="2079.94" r="6"/>
<text class="station-label" x="-1450.64" y="2074.94">Ureshino-Onsen</text>
<circle class="station" cx="-1478.77" cy="2116.43" r="6"/>
<text class="station-label" x="-1460.77" y="2111.43">Shin-Omura</text>
<circle class="hub" cx="-1458.31" cy="2133.62" r="9"/>
<text class="hub-label" x="-1440.31" y="2128.62">Isahaya</text>
<circle class="hub" cx="-1500.0" cy="2154.28" r="9"/>
<text class="hub-label" x="-1482.0" y="2149.28">Nagasaki</text>
</svg>