<svg xmlns="http://www.w3.org/2000/svg" width="2600" height="2700" viewBox="-1700 -120 4400 2680" role="img" aria-labelledby="title desc">
<title id="title">OniChase V2 Geometry Map</title>
<desc id="desc">Data-driven Shinkansen map generated from route and station geometry.</desc>
<defs>
<style>
.bg { fill: #f6f2e8; }
.panel { fill: #fffdf8; stroke: #d6d0c2; stroke-width: 2; }
.title { font: 700 34px Helvetica, Arial, sans-serif; fill: #1f2933; }
.subtitle { font: 500 18px Helvetica, Arial, sans-serif; fill: #5f6b76; }
.note { font: 500 14px Helvetica, Arial, sans-serif; fill: #697586; }
.route { fill: none; stroke-width: 10; stroke-linecap: round; stroke-linejoin: round; }
.station { fill: #ffffff; stroke: #1f2933; stroke-width: 2; }
.hub { fill: #ffffff; stroke: #1f2933; stroke-width: 4; }
.station-label { font: 600 12px Helvetica, Arial, sans-serif; fill: #1f2933; }
.hub-label { font: 700 13px Helvetica, Arial, sans-serif; fill: #1f2933; }
.line-label { font: 700 15px Helvetica, Arial, sans-serif; fill: #1f2933; }
</style>
</defs>
<rect class="bg" x="-1700" y="-120" width="4400" height="2680"/>
<rect class="panel" x="-1650" y="-80" width="4300" height="2600" rx="30"/>
<text class="title" x="-1580" y="-20">OniChase V2 Real Geometry Seed</text>
<text class="subtitle" x="-1580" y="12">First data-driven Shinkansen map: real route order, geometry-seed station placement, temporary before full lat/lon replacement.</text>
<text class="note" x="-1580" y="2460">This map is generated from route and station data. It is now a geometry pipeline artifact rather than a hand-drawn final SVG.</text>
<polyline class="route" stroke="#2d9c5b" points="1310,1790 1320,1718 1332,1646 1384,1538 1420,1456 1456,1368 1492,1282 1528,1196 1564,1108 1600,1022 1636,936 1668,852 1700,770 1734,688 1766,616 1796,546 1826,478 1858,410 1890,340 1922,272 1954,204 1986,136 2018,72"/>
<text class="line-label" x="1760" y="520">Tohoku</text>
<polyline class="route" stroke="#2aa7d8" points="2018,72 2062,24 2108,-20 2154,-64"/>
<text class="line-label" x="1880" y="36">Hokkaido</text>
<polyline class="route" stroke="#f09b20" points="1310,1790 1320,1718 1332,1646 1384,1538 1420,1456 1456,1368 1492,1282 1528,1196 1564,1108 1478,1138 1418,1168 1358,1202 1298,1238 1238,1274 1178,1310 1118,1348 1058,1388 998,1428 938,1468"/>
<text class="line-label" x="1160" y="1210">Yamagata</text>
<polyline class="route" stroke="#d54a96" points="1310,1790 1320,1718 1332,1646 1384,1538 1420,1456 1456,1368 1492,1282 1528,1196 1564,1108 1600,1022 1636,936 1668,852 1700,770 1734,688 1766,616 1796,546 1826,478 1858,410 1788,458 1718,508 1650,560 1582,614 1514,668"/>
<text class="line-label" x="1660" y="640">Akita</text>
<polyline class="route" stroke="#e65045" points="1310,1790 1320,1718 1332,1646 1352,1560 1372,1480 1394,1400 1354,1340 1300,1286 1246,1220 1192,1148 1136,1076 1080,1004"/>
<text class="line-label" x="1180" y="1130">Joetsu</text>
<polyline class="route" stroke="#9aa7b5" stroke-dasharray="8 8" points="1300,1286 1266,1240"/>
<text class="line-label" x="1258" y="1218">GALA Yuzawa</text>
<polyline class="route" stroke="#2c62c9" points="1310,1790 1320,1718 1332,1646 1352,1560 1372,1480 1394,1400 1358,1450 1292,1478 1228,1508 1164,1538 1100,1568 1034,1598 968,1628 900,1658 832,1688 764,1718 696,1748 628,1778 560,1808 492,1838 424,1868 356,1898 288,1928 220,1958"/>
<text class="line-label" x="720" y="1690">Hokuriku</text>
<polyline class="route" stroke="#1f4fb9" points="1310,1790 1220,1790 1120,1790 1030,1790 948,1790 866,1790 784,1790 700,1790 620,1790 544,1790 472,1790 404,1790 336,1790 268,1790 200,1790 130,1790 58,1790"/>
<text class="line-label" x="760" y="1752">Tokaido</text>
<polyline class="route" stroke="#00a0d2" points="58,1790 -16,1790 -90,1790 -164,1790 -238,1790 -312,1790 -386,1790 -460,1790 -534,1790 -608,1790 -682,1790 -756,1790 -830,1790 -904,1790 -978,1790 -1052,1790 -1126,1790 -1200,1790 -1274,1790"/>
<text class="line-label" x="-640" y="1752">Sanyo</text>
<polyline class="route" stroke="#d35d1f" points="-1274,1790 -1262,1856 -1252,1912 -1242,1968 -1232,2024 -1222,2080 -1212,2136 -1202,2192 -1192,2248 -1182,2304 -1172,2360 -1162,2416"/>
<text class="line-label" x="-1310" y="2088">Kyushu</text>
<polyline class="route" stroke="#7e52b8" points="-1262,1856 -1340,1832 -1420,1784 -1498,1736 -1538,1712 -1578,1688"/>
<text class="line-label" x="-1600" y="1650">Nishi-Kyushu</text>
<circle class="hub" cx="1310" cy="1790" r="9"/>
<text class="hub-label" x="1328" y="1782">Tokyo</text>
<circle class="hub" cx="1320" cy="1718" r="9"/>
<text class="hub-label" x="1338" y="1713">Ueno</text>
<circle class="hub" cx="1332" cy="1646" r="9"/>
<text class="hub-label" x="1350" y="1641">Omiya</text>
<circle class="station" cx="1352" cy="1560" r="6"/>
<text class="station-label" x="1370" y="1555">Kumagaya</text>
<circle class="station" cx="1372" cy="1480" r="6"/>
<text class="station-label" x="1390" y="1475">Honjo-Waseda</text>
<circle class="hub" cx="1394" cy="1400" r="9"/>
<text class="hub-label" x="1412" y="1395">Takasaki</text>
<circle class="station" cx="1384" cy="1538" r="6"/>
<text class="station-label" x="1402" y="1533">Oyama</text>
<circle class="station" cx="1420" cy="1456" r="6"/>
<text class="station-label" x="1438" y="1451">Utsunomiya</text>
<circle class="station" cx="1456" cy="1368" r="6"/>
<text class="station-label" x="1474" y="1363">Nasushiobara</text>
<circle class="station" cx="1492" cy="1282" r="6"/>
<text class="station-label" x="1510" y="1277">Shin-Shirakawa</text>
<circle class="station" cx="1528" cy="1196" r="6"/>
<text class="station-label" x="1546" y="1191">Koriyama</text>
<circle class="hub" cx="1564" cy="1108" r="9"/>
<text class="hub-label" x="1582" y="1103">Fukushima</text>
<circle class="station" cx="1600" cy="1022" r="6"/>
<text class="station-label" x="1618" y="1017">Shiroishi-Zao</text>
<circle class="hub" cx="1636" cy="936" r="9"/>
<text class="hub-label" x="1654" y="931">Sendai</text>
<circle class="station" cx="1668" cy="852" r="6"/>
<text class="station-label" x="1686" y="847">Furukawa</text>
<circle class="station" cx="1700" cy="770" r="6"/>
<text class="station-label" x="1718" y="765">Kurikoma-Kogen</text>
<circle class="station" cx="1734" cy="688" r="6"/>
<text class="station-label" x="1752" y="683">Ichinoseki</text>
<circle class="station" cx="1766" cy="616" r="6"/>
<text class="station-label" x="1784" y="611">Mizusawa-Esashi</text>
<circle class="station" cx="1796" cy="546" r="6"/>
<text class="station-label" x="1814" y="541">Kitakami</text>
<circle class="station" cx="1826" cy="478" r="6"/>
<text class="station-label" x="1844" y="473">Shin-Hanamaki</text>
<circle class="hub" cx="1858" cy="410" r="9"/>
<text class="hub-label" x="1876" y="405">Morioka</text>
<circle class="station" cx="1890" cy="340" r="6"/>
<text class="station-label" x="1908" y="335">Iwate-Numakunai</text>
<circle class="station" cx="1922" cy="272" r="6"/>
<text class="station-label" x="1940" y="267">Ninohe</text>
<circle class="station" cx="1954" cy="204" r="6"/>
<text class="station-label" x="1972" y="199">Hachinohe</text>
<circle class="station" cx="1986" cy="136" r="6"/>
<text class="station-label" x="2004" y="131">Shichinohe-Towada</text>
<circle class="hub" cx="2018" cy="72" r="9"/>
<text class="hub-label" x="2036" y="67">Shin-Aomori</text>
<circle class="station" cx="2062" cy="24" r="6"/>
<text class="station-label" x="2080" y="19">Oku-Tsugaru-Imabetsu</text>
<circle class="station" cx="2108" cy="-20" r="6"/>
<text class="station-label" x="2126" y="-25">Kikonai</text>
<circle class="hub" cx="2154" cy="-64" r="9"/>
<text class="hub-label" x="2172" y="-69">Shin-Hakodate-Hokuto</text>
<circle class="station" cx="1478" cy="1138" r="6"/>
<text class="station-label" x="1496" y="1133">Yonezawa</text>
<circle class="station" cx="1418" cy="1168" r="6"/>
<text class="station-label" x="1436" y="1163">Takahata</text>
<circle class="station" cx="1358" cy="1202" r="6"/>
<text class="station-label" x="1376" y="1197">Akayu</text>
<circle class="station" cx="1298" cy="1238" r="6"/>
<text class="station-label" x="1316" y="1233">Kaminoyama-Onsen</text>
<circle class="hub" cx="1238" cy="1274" r="9"/>
<text class="hub-label" x="1256" y="1269">Yamagata</text>
<circle class="station" cx="1178" cy="1310" r="6"/>
<text class="station-label" x="1196" y="1305">Tendo</text>
<circle class="station" cx="1118" cy="1348" r="6"/>
<text class="station-label" x="1136" y="1343">Sakuranbo-Higashine</text>
<circle class="station" cx="1058" cy="1388" r="6"/>
<text class="station-label" x="1076" y="1383">Murayama</text>
<circle class="station" cx="998" cy="1428" r="6"/>
<text class="station-label" x="1016" y="1423">Oishida</text>
<circle class="hub" cx="938" cy="1468" r="9"/>
<text class="hub-label" x="956" y="1463">Shinjo</text>
<circle class="station" cx="1788" cy="458" r="6"/>
<text class="station-label" x="1806" y="453">Shizukuishi</text>
<circle class="station" cx="1718" cy="508" r="6"/>
<text class="station-label" x="1736" y="503">Tazawako</text>
<circle class="station" cx="1650" cy="560" r="6"/>
<text class="station-label" x="1668" y="555">Kakunodate</text>
<circle class="hub" cx="1582" cy="614" r="9"/>
<text class="hub-label" x="1600" y="609">Omagari</text>
<circle class="hub" cx="1514" cy="668" r="9"/>
<text class="hub-label" x="1532" y="660">Akita</text>
<circle class="station" cx="1354" cy="1340" r="6"/>
<text class="station-label" x="1372" y="1335">Jomo-Kogen</text>
<circle class="hub" cx="1300" cy="1286" r="9"/>
<text class="hub-label" x="1318" y="1281">Echigo-Yuzawa</text>
<circle class="station" cx="1266" cy="1240" r="6"/>
<text class="station-label" x="1284" y="1235">Gala Yuzawa</text>
<circle class="station" cx="1246" cy="1220" r="6"/>
<text class="station-label" x="1264" y="1215">Urasa</text>
<circle class="hub" cx="1192" cy="1148" r="9"/>
<text class="hub-label" x="1210" y="1143">Nagaoka</text>
<circle class="station" cx="1136" cy="1076" r="6"/>
<text class="station-label" x="1154" y="1071">Tsubame-Sanjo</text>
<circle class="hub" cx="1080" cy="1004" r="9"/>
<text class="hub-label" x="1098" y="996">Niigata</text>
<circle class="station" cx="1358" cy="1450" r="6"/>
<text class="station-label" x="1376" y="1445">Annaka-Haruna</text>
<circle class="station" cx="1292" cy="1478" r="6"/>
<text class="station-label" x="1310" y="1473">Karuizawa</text>
<circle class="station" cx="1228" cy="1508" r="6"/>
<text class="station-label" x="1246" y="1503">Sakudaira</text>
<circle class="station" cx="1164" cy="1538" r="6"/>
<text class="station-label" x="1182" y="1533">Ueda</text>
<circle class="hub" cx="1100" cy="1568" r="9"/>
<text class="hub-label" x="1118" y="1563">Nagano</text>
<circle class="station" cx="1034" cy="1598" r="6"/>
<text class="station-label" x="1052" y="1593">Iiyama</text>
<circle class="hub" cx="968" cy="1628" r="9"/>
<text class="hub-label" x="986" y="1623">Joetsumyoko</text>
<circle class="station" cx="900" cy="1658" r="6"/>
<text class="station-label" x="918" y="1653">Itoigawa</text>
<circle class="station" cx="832" cy="1688" r="6"/>
<text class="station-label" x="850" y="1683">Kurobe-Unazukionsen</text>
<circle class="hub" cx="764" cy="1718" r="9"/>
<text class="hub-label" x="782" y="1713">Toyama</text>
<circle class="station" cx="696" cy="1748" r="6"/>
<text class="station-label" x="714" y="1743">Shin-Takaoka</text>
<circle class="hub" cx="628" cy="1778" r="9"/>
<text class="hub-label" x="646" y="1770">Kanazawa</text>
<circle class="station" cx="560" cy="1808" r="6"/>
<text class="station-label" x="578" y="1803">Komatsu</text>
<circle class="station" cx="492" cy="1838" r="6"/>
<text class="station-label" x="510" y="1833">Kagaonsen</text>
<circle class="station" cx="424" cy="1868" r="6"/>
<text class="station-label" x="442" y="1863">Awaraonsen</text>
<circle class="hub" cx="356" cy="1898" r="9"/>
<text class="hub-label" x="374" y="1893">Fukui</text>
<circle class="station" cx="288" cy="1928" r="6"/>
<text class="station-label" x="306" y="1923">Echizen-Takefu</text>
<circle class="hub" cx="220" cy="1958" r="9"/>
<text class="hub-label" x="238" y="1953">Tsuruga</text>
<circle class="hub" cx="1220" cy="1790" r="9"/>
<text class="hub-label" x="1238" y="1785">Shinagawa</text>
<circle class="hub" cx="1120" cy="1790" r="9"/>
<text class="hub-label" x="1138" y="1785">Shin-Yokohama</text>
<circle class="station" cx="1030" cy="1790" r="6"/>
<text class="station-label" x="1048" y="1785">Odawara</text>
<circle class="station" cx="948" cy="1790" r="6"/>
<text class="station-label" x="966" y="1785">Atami</text>
<circle class="station" cx="866" cy="1790" r="6"/>
<text class="station-label" x="884" y="1785">Mishima</text>
<circle class="station" cx="784" cy="1790" r="6"/>
<text class="station-label" x="802" y="1785">Shin-Fuji</text>
<circle class="hub" cx="700" cy="1790" r="9"/>
<text class="hub-label" x="718" y="1785">Shizuoka</text>
<circle class="station" cx="620" cy="1790" r="6"/>
<text class="station-label" x="638" y="1785">Kakegawa</text>
<circle class="hub" cx="544" cy="1790" r="9"/>
<text class="hub-label" x="562" y="1785">Hamamatsu</text>
<circle class="station" cx="472" cy="1790" r="6"/>
<text class="station-label" x="490" y="1785">Toyohashi</text>
<circle class="station" cx="404" cy="1790" r="6"/>
<text class="station-label" x="422" y="1785">Mikawa-Anjo</text>
<circle class="hub" cx="336" cy="1790" r="9"/>
<text class="hub-label" x="354" y="1782">Nagoya</text>
<circle class="station" cx="268" cy="1790" r="6"/>
<text class="station-label" x="286" y="1785">Gifu-Hashima</text>
<circle class="hub" cx="200" cy="1790" r="9"/>
<text class="hub-label" x="218" y="1785">Maibara</text>
<circle class="hub" cx="130" cy="1790" r="9"/>
<text class="hub-label" x="148" y="1785">Kyoto</text>
<circle class="hub" cx="58" cy="1790" r="9"/>
<text class="hub-label" x="76" y="1782">Shin-Osaka</text>
<circle class="hub" cx="-16" cy="1790" r="9"/>
<text class="hub-label" x="2" y="1785">Shin-Kobe</text>
<circle class="station" cx="-90" cy="1790" r="6"/>
<text class="station-label" x="-72" y="1785">Nishi-Akashi</text>
<circle class="hub" cx="-164" cy="1790" r="9"/>
<text class="hub-label" x="-146" y="1785">Himeji</text>
<circle class="station" cx="-238" cy="1790" r="6"/>
<text class="station-label" x="-220" y="1785">Aioi</text>
<circle class="hub" cx="-312" cy="1790" r="9"/>
<text class="hub-label" x="-294" y="1785">Okayama</text>
<circle class="station" cx="-386" cy="1790" r="6"/>
<text class="station-label" x="-368" y="1785">Shin-Kurashiki</text>
<circle class="hub" cx="-460" cy="1790" r="9"/>
<text class="hub-label" x="-442" y="1785">Fukuyama</text>
<circle class="station" cx="-534" cy="1790" r="6"/>
<text class="station-label" x="-516" y="1785">Shin-Onomichi</text>
<circle class="station" cx="-608" cy="1790" r="6"/>
<text class="station-label" x="-590" y="1785">Mihara</text>
<circle class="station" cx="-682" cy="1790" r="6"/>
<text class="station-label" x="-664" y="1785">Higashi-Hiroshima</text>
<circle class="hub" cx="-756" cy="1790" r="9"/>
<text class="hub-label" x="-738" y="1785">Hiroshima</text>
<circle class="station" cx="-830" cy="1790" r="6"/>
<text class="station-label" x="-812" y="1785">Shin-Iwakuni</text>
<circle class="hub" cx="-904" cy="1790" r="9"/>
<text class="hub-label" x="-886" y="1785">Tokuyama</text>
<circle class="hub" cx="-978" cy="1790" r="9"/>
<text class="hub-label" x="-960" y="1785">Shin-Yamaguchi</text>
<circle class="station" cx="-1052" cy="1790" r="6"/>
<text class="station-label" x="-1034" y="1785">Asa</text>
<circle class="hub" cx="-1126" cy="1790" r="9"/>
<text class="hub-label" x="-1108" y="1785">Shin-Shimonoseki</text>
<circle class="hub" cx="-1200" cy="1790" r="9"/>
<text class="hub-label" x="-1182" y="1785">Kokura</text>
<circle class="hub" cx="-1274" cy="1790" r="9"/>
<text class="hub-label" x="-1256" y="1782">Hakata</text>
<circle class="hub" cx="-1262" cy="1856" r="9"/>
<text class="hub-label" x="-1244" y="1851">Shin-Tosu</text>
<circle class="hub" cx="-1252" cy="1912" r="9"/>
<text class="hub-label" x="-1234" y="1907">Kurume</text>
<circle class="station" cx="-1242" cy="1968" r="6"/>
<text class="station-label" x="-1224" y="1963">Chikugo-Funagoya</text>
<circle class="station" cx="-1232" cy="2024" r="6"/>
<text class="station-label" x="-1214" y="2019">Shin-Omuta</text>
<circle class="station" cx="-1222" cy="2080" r="6"/>
<text class="station-label" x="-1204" y="2075">Shin-Tamana</text>
<circle class="hub" cx="-1212" cy="2136" r="9"/>
<text class="hub-label" x="-1194" y="2131">Kumamoto</text>
<circle class="hub" cx="-1202" cy="2192" r="9"/>
<text class="hub-label" x="-1184" y="2187">Shin-Yatsushiro</text>
<circle class="station" cx="-1192" cy="2248" r="6"/>
<text class="station-label" x="-1174" y="2243">Shin-Minamata</text>
<circle class="station" cx="-1182" cy="2304" r="6"/>
<text class="station-label" x="-1164" y="2299">Izumi</text>
<circle class="hub" cx="-1172" cy="2360" r="9"/>
<text class="hub-label" x="-1154" y="2355">Sendai</text>
<circle class="hub" cx="-1162" cy="2416" r="9"/>
<text class="hub-label" x="-1144" y="2411">Kagoshima-Chuo</text>
<circle class="hub" cx="-1340" cy="1832" r="9"/>
<text class="hub-label" x="-1322" y="1827">Takeo-Onsen</text>
<circle class="station" cx="-1420" cy="1784" r="6"/>
<text class="station-label" x="-1402" y="1779">Ureshino-Onsen</text>
<circle class="station" cx="-1498" cy="1736" r="6"/>
<text class="station-label" x="-1480" y="1731">Shin-Omura</text>
<circle class="hub" cx="-1538" cy="1712" r="9"/>
<text class="hub-label" x="-1520" y="1707">Isahaya</text>
<circle class="hub" cx="-1578" cy="1688" r="9"/>
<text class="hub-label" x="-1560" y="1683">Nagasaki</text>
</svg>