<svg xmlns="http://www.w3.org/2000/svg" width="2600" height="2700" viewBox="-1700 -120 4400 2680" role="img" aria-labelledby="title desc">
<title id="title">OniChase V2 Geometry Map</title>
<desc id="desc">Data-driven Shinkansen map generated from route and station geometry.</desc>
<defs>
<style>
.bg { fill: #efe9db; }
.panel { fill: #fffdfa; stroke: #d5ccbb; stroke-width: 2; }
.title { font: 700 38px Helvetica, Arial, sans-serif; fill: #17212b; }
.subtitle { font: 500 18px Helvetica, Arial, sans-serif; fill: #5f6b76; }
.note { font: 500 13px Helvetica, Arial, sans-serif; fill: #7a8794; }
.route-back { fill: none; stroke: #ffffff; stroke-width: 16; stroke-linecap: round; stroke-linejoin: round; opacity: 0.96; }
.route { fill: none; stroke-width: 9; stroke-linecap: round; stroke-linejoin: round; }
.station { fill: #fffdfa; stroke: #1f2933; stroke-width: 2.2; }
.hub { fill: #fffdfa; stroke: #1f2933; stroke-width: 4.4; }
.station-label { font: 600 12px Helvetica, Arial, sans-serif; fill: #1f2933; paint-order: stroke; stroke: #fffdfa; stroke-width: 3.5; stroke-linejoin: round; }
.hub-label { font: 700 13px Helvetica, Arial, sans-serif; fill: #1f2933; paint-order: stroke; stroke: #fffdfa; stroke-width: 4; stroke-linejoin: round; }
.line-label-box { stroke: #ffffff; stroke-width: 2; rx: 14; }
.line-label { font: 700 14px Helvetica, Arial, sans-serif; fill: #ffffff; letter-spacing: 0.2px; }
</style>
</defs>
<rect class="bg" x="-1700" y="-120" width="4400" height="2680"/>
<rect class="panel" x="-1650" y="-80" width="4300" height="2600" rx="30"/>
<text class="title" x="-1580" y="-20">OniChase V2 Shinkansen Draft</text>
<text class="subtitle" x="-1580" y="12">Data-driven nationwide map built from real station coordinates and real route order.</text>
<text class="note" x="-1580" y="2460">Current pass: cleaner linework and labels over the real-coordinate geometry pipeline.</text>
<polyline class="route-back" points="1495.88,1447.21 1499.19,1439.68 1452.88,1394.88 1508.03,1300.41 1535.92,1243.09 1572.94,1156.43 1623.88,1111.93 1684.54,1048.02 1705.83,965.26 1758.32,909.12 1832.61,847.46 1859.66,775.27 1891.12,733.9 1911.21,692.65 1926.51,641.77 1906.08,610.18 1921.76,581.2 1910.73,512.44 1935.06,452.31 1956.02,382.6 2000.0,324.65 1916.01,275.66 1776.6,250.63"/>
<polyline class="route" stroke="#2d9c5b" points="1495.88,1447.21 1499.19,1439.68 1452.88,1394.88 1508.03,1300.41 1535.92,1243.09 1572.94,1156.43 1623.88,1111.93 1684.54,1048.02 1705.83,965.26 1758.32,909.12 1832.61,847.46 1859.66,775.27 1891.12,733.9 1911.21,692.65 1926.51,641.77 1906.08,610.18 1921.76,581.2 1910.73,512.44 1935.06,452.31 1956.02,382.6 2000.0,324.65 1916.01,275.66 1776.6,250.63"/>
<rect class="line-label-box" x="1750" y="466" width="96" height="28" fill="#2d9c5b"/>
<text class="line-label" x="1760" y="484">Tohoku</text>
<polyline class="route-back" points="1776.6,250.63 1722.71,176.79 1698.05,52.96 1762.39,0.0"/>
<polyline class="route" stroke="#2aa7d8" points="1776.6,250.63 1722.71,176.79 1698.05,52.96 1762.39,0.0"/>
<rect class="line-label-box" x="1870" y="18" width="120" height="28" fill="#2aa7d8"/>
<text class="line-label" x="1880" y="36">Hokkaido</text>
<polyline class="route-back" points="1495.88,1447.21 1499.19,1439.68 1452.88,1394.88 1508.03,1300.41 1535.92,1243.09 1572.94,1156.43 1623.88,1111.93 1684.54,1048.02 1705.83,965.26 1605.49,929.13 1612.94,909.87 1611.78,897.14 1651.03,872.68 1665.74,850.4 1678.47,824.4 1681.91,808.55 1683.64,797.15 1680.3,769.52 1659.33,730.77"/>
<polyline class="route" stroke="#f09b20" points="1495.88,1447.21 1499.19,1439.68 1452.88,1394.88 1508.03,1300.41 1535.92,1243.09 1572.94,1156.43 1623.88,1111.93 1684.54,1048.02 1705.83,965.26 1605.49,929.13 1612.94,909.87 1611.78,897.14 1651.03,872.68 1665.74,850.4 1678.47,824.4 1681.91,808.55 1683.64,797.15 1680.3,769.52 1659.33,730.77"/>
<rect class="line-label-box" x="1090" y="1192" width="120" height="28" fill="#f09b20"/>
<text class="line-label" x="1100" y="1210">Yamagata</text>
<polyline class="route-back" points="1495.88,1447.21 1499.19,1439.68 1452.88,1394.88 1508.03,1300.41 1535.92,1243.09 1572.94,1156.43 1623.88,1111.93 1684.54,1048.02 1705.83,965.26 1758.32,909.12 1832.61,847.46 1859.66,775.27 1891.12,733.9 1911.21,692.65 1926.51,641.77 1906.08,610.18 1921.76,581.2 1910.73,512.44 1861.74,515.3 1785.27,512.72 1739.52,537.98 1711.86,567.28 1606.01,508.91"/>
<polyline class="route" stroke="#d54a96" points="1495.88,1447.21 1499.19,1439.68 1452.88,1394.88 1508.03,1300.41 1535.92,1243.09 1572.94,1156.43 1623.88,1111.93 1684.54,1048.02 1705.83,965.26 1758.32,909.12 1832.61,847.46 1859.66,775.27 1891.12,733.9 1911.21,692.65 1926.51,641.77 1906.08,610.18 1921.76,581.2 1910.73,512.44 1861.74,515.3 1785.27,512.72 1739.52,537.98 1711.86,567.28 1606.01,508.91"/>
<rect class="line-label-box" x="1650" y="622" width="88" height="28" fill="#d54a96"/>
<text class="line-label" x="1660" y="640">Akita</text>
<polyline class="route-back" points="1495.88,1447.21 1499.19,1439.68 1452.88,1394.88 1381.89,1340.66 1318.31,1322.24 1267.71,1298.2 1257.2,1211.94 1206.23,1155.53 1240.61,1101.66 1219.76,1036.49 1245.59,989.74 1282.4,928.48"/>
<polyline class="route" stroke="#e65045" points="1495.88,1447.21 1499.19,1439.68 1452.88,1394.88 1381.89,1340.66 1318.31,1322.24 1267.71,1298.2 1257.2,1211.94 1206.23,1155.53 1240.61,1101.66 1219.76,1036.49 1245.59,989.74 1282.4,928.48"/>
<rect class="line-label-box" x="1090" y="1088" width="96" height="28" fill="#e65045"/>
<text class="line-label" x="1100" y="1106">Joetsu</text>
<polyline class="route-back" stroke-dasharray="8 8" points="1206.23,1155.53 1203.29,1152.03"/>
<polyline class="route" stroke="#9aa7b5" stroke-dasharray="8 8" points="1206.23,1155.53 1203.29,1152.03"/>
<rect class="line-label-box" x="1308" y="1200" width="156" height="28" fill="#9aa7b5"/>
<text class="line-label" x="1318" y="1218">GALA Yuzawa</text>
<polyline class="route-back" points="1495.88,1447.21 1499.19,1439.68 1452.88,1394.88 1381.89,1340.66 1318.31,1322.24 1267.71,1298.2 1218.44,1288.86 1153.52,1293.4 1101.84,1308.5 1036.73,1280.91 1018.51,1223.54 1070.04,1176.03 1036.79,1121.58 919.29,1130.46 804.54,1169.74 723.07,1210.04 661.73,1204.08 552.07,1238.7 492.97,1279.53 461.91,1298.59 427.02,1323.24 423.52,1358.7 416.07,1397.39 379.02,1455.73"/>
<polyline class="route" stroke="#2c62c9" points="1495.88,1447.21 1499.19,1439.68 1452.88,1394.88 1381.89,1340.66 1318.31,1322.24 1267.71,1298.2 1218.44,1288.86 1153.52,1293.4 1101.84,1308.5 1036.73,1280.91 1018.51,1223.54 1070.04,1176.03 1036.79,1121.58 919.29,1130.46 804.54,1169.74 723.07,1210.04 661.73,1204.08 552.07,1238.7 492.97,1279.53 461.91,1298.59 427.02,1323.24 423.52,1358.7 416.07,1397.39 379.02,1455.73"/>
<rect class="line-label-box" x="710" y="1708" width="120" height="28" fill="#2c62c9"/>
<text class="line-label" x="720" y="1726">Hokuriku</text>
<polyline class="route-back" points="1495.88,1447.21 1487.67,1459.45 1450.85,1487.8 1311.13,1546.07 1287.49,1581.56 1237.07,1576.29 1162.07,1572.63 1078.9,1612.24 965.79,1659.25 880.98,1674.5 774.24,1660.82 677.01,1612.7 622.74,1565.96 563.38,1532.21 443.64,1532.48 282.53,1609.03 205.07,1667.47"/>
<polyline class="route" stroke="#1f4fb9" points="1495.88,1447.21 1487.67,1459.45 1450.85,1487.8 1311.13,1546.07 1287.49,1581.56 1237.07,1576.29 1162.07,1572.63 1078.9,1612.24 965.79,1659.25 880.98,1674.5 774.24,1660.82 677.01,1612.7 622.74,1565.96 563.38,1532.21 443.64,1532.48 282.53,1609.03 205.07,1667.47"/>
<rect class="line-label-box" x="750" y="1770" width="108" height="28" fill="#1f4fb9"/>
<text class="line-label" x="760" y="1788">Tokaido</text>
<polyline class="route-back" points="205.07,1667.47 112.42,1673.91 41.1,1683.33 -40.45,1645.72 -106.24,1647.95 -274.2,1683.18 -346.91,1706.77 -442.84,1724.4 -494.64,1738.16 -527.11,1745.05 -624.97,1747.63 -710.99,1745.75 -810.26,1800.35 -914.62,1826.18 -1037.61,1816.48 -1109.24,1825.76 -1173.39,1836.85 -1193.17,1864.5 -1333.04,1933.5"/>
<polyline class="route" stroke="#00a0d2" points="205.07,1667.47 112.42,1673.91 41.1,1683.33 -40.45,1645.72 -106.24,1647.95 -274.2,1683.18 -346.91,1706.77 -442.84,1724.4 -494.64,1738.16 -527.11,1745.05 -624.97,1747.63 -710.99,1745.75 -810.26,1800.35 -914.62,1826.18 -1037.61,1816.48 -1109.24,1825.76 -1173.39,1836.85 -1193.17,1864.5 -1333.04,1933.5"/>
<rect class="line-label-box" x="-650" y="1698" width="88" height="28" fill="#00a0d2"/>
<text class="line-label" x="-640" y="1716">Sanyo</text>
<polyline class="route-back" points="-1333.04,1933.5 -1311.7,1984.59 -1308.58,1996.33 -1311.55,2029.29 -1312.42,2054.12 -1286.74,2084.06 -1251.95,2119.7 -1268.17,2182.79 -1330.53,2254.19 -1352.05,2282.45 -1365.88,2346.52 -1296.36,2400.0"/>
<polyline class="route" stroke="#d35d1f" points="-1333.04,1933.5 -1311.7,1984.59 -1308.58,1996.33 -1311.55,2029.29 -1312.42,2054.12 -1286.74,2084.06 -1251.95,2119.7 -1268.17,2182.79 -1330.53,2254.19 -1352.05,2282.45 -1365.88,2346.52 -1296.36,2400.0"/>
<rect class="line-label-box" x="-1260" y="2070" width="96" height="28" fill="#d35d1f"/>
<text class="line-label" x="-1250" y="2088">Kyushu</text>
<polyline class="route-back" points="-1311.7,1984.59 -1453.61,2025.08 -1460.67,2045.91 -1473.4,2086.32 -1447.77,2105.33 -1500.0,2128.18"/>
<polyline class="route" stroke="#7e52b8" points="-1311.7,1984.59 -1453.61,2025.08 -1460.67,2045.91 -1473.4,2086.32 -1447.77,2105.33 -1500.0,2128.18"/>
<rect class="line-label-box" x="-1610" y="1632" width="168" height="28" fill="#7e52b8"/>
<text class="line-label" x="-1600" y="1650">Nishi-Kyushu</text>
<circle class="hub" cx="1495.88" cy="1447.21" r="9"/>
<text class="hub-label" x="1437.5800000000002" y="1441.21">Tokyo</text>
<circle class="hub" cx="1499.19" cy="1439.68" r="9"/>
<text class="hub-label" x="1519.19" y="1427.68">Ueno</text>
<circle class="hub" cx="1452.88" cy="1394.88" r="9"/>
<text class="hub-label" x="1472.88" y="1384.88">Omiya</text>
<circle class="station" cx="1381.89" cy="1340.66" r="6"/>
<text class="station-label" x="1399.89" y="1334.66">Kumagaya</text>
<circle class="station" cx="1318.31" cy="1322.24" r="6"/>
<text class="station-label" x="1211.03" y="1338.24">Honjo-Waseda</text>
<circle class="hub" cx="1267.71" cy="1298.2" r="9"/>
<text class="hub-label" x="1285.71" y="1292.2">Takasaki</text>
<circle class="station" cx="1508.03" cy="1300.41" r="6"/>
<text class="station-label" x="1526.03" y="1294.41">Oyama</text>
<circle class="station" cx="1535.92" cy="1243.09" r="6"/>
<text class="station-label" x="1553.92" y="1237.09">Utsunomiya</text>
<circle class="station" cx="1572.94" cy="1156.43" r="6"/>
<text class="station-label" x="1590.94" y="1150.43">Nasushiobara</text>
<circle class="station" cx="1623.88" cy="1111.93" r="6"/>
<text class="station-label" x="1641.88" y="1105.93">Shin-Shirakawa</text>
<circle class="station" cx="1684.54" cy="1048.02" r="6"/>
<text class="station-label" x="1702.54" y="1042.02">Koriyama</text>
<circle class="hub" cx="1705.83" cy="965.26" r="9"/>
<text class="hub-label" x="1723.83" y="959.26">Fukushima</text>
<circle class="station" cx="1758.32" cy="909.12" r="6"/>
<text class="station-label" x="1776.32" y="903.12">Shiroishi-Zao</text>
<circle class="hub" cx="1832.61" cy="847.46" r="9"/>
<text class="hub-label" x="1850.61" y="841.46">Sendai</text>
<circle class="station" cx="1859.66" cy="775.27" r="6"/>
<text class="station-label" x="1877.66" y="769.27">Furukawa</text>
<circle class="station" cx="1891.12" cy="733.9" r="6"/>
<text class="station-label" x="1909.12" y="727.9">Kurikoma-Kogen</text>
<circle class="station" cx="1911.21" cy="692.65" r="6"/>
<text class="station-label" x="1929.21" y="686.65">Ichinoseki</text>
<circle class="station" cx="1926.51" cy="641.77" r="6"/>
<text class="station-label" x="1944.51" y="635.77">Mizusawa-Esashi</text>
<circle class="station" cx="1906.08" cy="610.18" r="6"/>
<text class="station-label" x="1828.56" y="604.18">Kitakami</text>
<circle class="station" cx="1921.76" cy="581.2" r="6"/>
<text class="station-label" x="1939.76" y="575.2">Shin-Hanamaki</text>
<circle class="hub" cx="1910.73" cy="512.44" r="9"/>
<text class="hub-label" x="1928.73" y="502.44000000000005">Morioka</text>
<circle class="station" cx="1935.06" cy="452.31" r="6"/>
<text class="station-label" x="1953.06" y="446.31">Iwate-Numakunai</text>
<circle class="station" cx="1956.02" cy="382.6" r="6"/>
<text class="station-label" x="1974.02" y="376.6">Ninohe</text>
<circle class="station" cx="2000.0" cy="324.65" r="6"/>
<text class="station-label" x="2018.0" y="318.65">Hachinohe</text>
<circle class="station" cx="1916.01" cy="275.66" r="6"/>
<text class="station-label" x="1934.01" y="269.66">Shichinohe-Towada</text>
<circle class="hub" cx="1776.6" cy="250.63" r="9"/>
<text class="hub-label" x="1794.6" y="240.63">Shin-Aomori</text>
<circle class="station" cx="1722.71" cy="176.79" r="6"/>
<text class="station-label" x="1740.71" y="170.79">Oku-Tsugaru-Imabetsu</text>
<circle class="station" cx="1698.05" cy="52.96" r="6"/>
<text class="station-label" x="1716.05" y="46.96">Kikonai</text>
<circle class="hub" cx="1762.39" cy="0.0" r="9"/>
<text class="hub-label" x="1780.39" y="-10.0">Shin-Hakodate-Hokuto</text>
<circle class="station" cx="1605.49" cy="929.13" r="6"/>
<text class="station-label" x="1623.49" y="945.13">Yonezawa</text>
<circle class="station" cx="1612.94" cy="909.87" r="6"/>
<text class="station-label" x="1535.42" y="903.87">Takahata</text>
<circle class="station" cx="1611.78" cy="897.14" r="6"/>
<text class="station-label" x="1629.78" y="913.14">Akayu</text>
<circle class="station" cx="1651.03" cy="872.68" r="6"/>
<text class="station-label" x="1513.99" y="866.68">Kaminoyama-Onsen</text>
<circle class="hub" cx="1665.74" cy="850.4" r="9"/>
<text class="hub-label" x="1683.74" y="866.4">Yamagata</text>
<circle class="station" cx="1678.47" cy="824.4" r="6"/>
<text class="station-label" x="1696.47" y="840.4">Tendo</text>
<circle class="station" cx="1681.91" cy="808.55" r="6"/>
<text class="station-label" x="1699.91" y="802.55">Sakuranbo-Higashine</text>
<circle class="station" cx="1683.64" cy="797.15" r="6"/>
<text class="station-label" x="1606.1200000000001" y="813.15">Murayama</text>
<circle class="station" cx="1680.3" cy="769.52" r="6"/>
<text class="station-label" x="1698.3" y="763.52">Oishida</text>
<circle class="hub" cx="1659.33" cy="730.77" r="9"/>
<text class="hub-label" x="1677.33" y="724.77">Shinjo</text>
<circle class="station" cx="1861.74" cy="515.3" r="6"/>
<text class="station-label" x="1879.74" y="531.3">Shizukuishi</text>
<circle class="station" cx="1785.27" cy="512.72" r="6"/>
<text class="station-label" x="1797.27" y="494.72">Tazawako</text>
<circle class="station" cx="1739.52" cy="537.98" r="6"/>
<text class="station-label" x="1757.52" y="553.98">Kakunodate</text>
<circle class="hub" cx="1711.86" cy="567.28" r="9"/>
<text class="hub-label" x="1729.86" y="583.28">Omagari</text>
<circle class="hub" cx="1606.01" cy="508.91" r="9"/>
<text class="hub-label" x="1624.01" y="498.91">Akita</text>
<circle class="station" cx="1257.2" cy="1211.94" r="6"/>
<text class="station-label" x="1269.2" y="1193.94">Jomo-Kogen</text>
<circle class="hub" cx="1206.23" cy="1155.53" r="9"/>
<text class="hub-label" x="1224.23" y="1149.53">Echigo-Yuzawa</text>
<circle class="station" cx="1203.29" cy="1152.03" r="6"/>
<text class="station-label" x="1103.45" y="1146.03">Gala Yuzawa</text>
<circle class="station" cx="1240.61" cy="1101.66" r="6"/>
<text class="station-label" x="1258.61" y="1095.66">Urasa</text>
<circle class="hub" cx="1219.76" cy="1036.49" r="9"/>
<text class="hub-label" x="1237.76" y="1030.49">Nagaoka</text>
<circle class="station" cx="1245.59" cy="989.74" r="6"/>
<text class="station-label" x="1263.59" y="983.74">Tsubame-Sanjo</text>
<circle class="hub" cx="1282.4" cy="928.48" r="9"/>
<text class="hub-label" x="1300.4" y="918.48">Niigata</text>
<circle class="station" cx="1218.44" cy="1288.86" r="6"/>
<text class="station-label" x="1230.44" y="1270.86">Annaka-Haruna</text>
<circle class="station" cx="1153.52" cy="1293.4" r="6"/>
<text class="station-label" x="1068.56" y="1287.4">Karuizawa</text>
<circle class="station" cx="1101.84" cy="1308.5" r="6"/>
<text class="station-label" x="1016.8799999999999" y="1324.5">Sakudaira</text>
<circle class="station" cx="1036.73" cy="1280.91" r="6"/>
<text class="station-label" x="988.97" y="1274.91">Ueda</text>
<circle class="hub" cx="1018.51" cy="1223.54" r="9"/>
<text class="hub-label" x="952.15" y="1217.54">Nagano</text>
<circle class="station" cx="1070.04" cy="1176.03" r="6"/>
<text class="station-label" x="1007.4" y="1170.03">Iiyama</text>
<circle class="hub" cx="1036.79" cy="1121.58" r="9"/>
<text class="hub-label" x="930.13" y="1115.58">Joetsumyoko</text>
<circle class="station" cx="919.29" cy="1130.46" r="6"/>
<text class="station-label" x="937.29" y="1146.46">Itoigawa</text>
<circle class="station" cx="804.54" cy="1169.74" r="6"/>
<text class="station-label" x="822.54" y="1185.74">Kurobe-Unazukionsen</text>
<circle class="hub" cx="723.07" cy="1210.04" r="9"/>
<text class="hub-label" x="741.07" y="1204.04">Toyama</text>
<circle class="station" cx="661.73" cy="1204.08" r="6"/>
<text class="station-label" x="554.45" y="1198.08">Shin-Takaoka</text>
<circle class="hub" cx="552.07" cy="1238.7" r="9"/>
<text class="hub-label" x="568.07" y="1228.7">Kanazawa</text>
<circle class="station" cx="492.97" cy="1279.53" r="6"/>
<text class="station-label" x="510.97" y="1295.53">Komatsu</text>
<circle class="station" cx="461.91" cy="1298.59" r="6"/>
<text class="station-label" x="376.95000000000005" y="1292.59">Kagaonsen</text>
<circle class="station" cx="427.02" cy="1323.24" r="6"/>
<text class="station-label" x="445.02" y="1339.24">Awaraonsen</text>
<circle class="hub" cx="423.52" cy="1358.7" r="9"/>
<text class="hub-label" x="441.52" y="1374.7">Fukui</text>
<circle class="station" cx="416.07" cy="1397.39" r="6"/>
<text class="station-label" x="434.07" y="1413.39">Echizen-Takefu</text>
<circle class="hub" cx="379.02" cy="1455.73" r="9"/>
<text class="hub-label" x="397.02" y="1449.73">Tsuruga</text>
<circle class="hub" cx="1487.67" cy="1459.45" r="9"/>
<text class="hub-label" x="1499.67" y="1485.45">Shinagawa</text>
<circle class="hub" cx="1450.85" cy="1487.8" r="9"/>
<text class="hub-label" x="1328.07" y="1481.8">Shin-Yokohama</text>
<circle class="station" cx="1311.13" cy="1546.07" r="6"/>
<text class="station-label" x="1329.13" y="1540.07">Odawara</text>
<circle class="station" cx="1287.49" cy="1581.56" r="6"/>
<text class="station-label" x="1305.49" y="1597.56">Atami</text>
<circle class="station" cx="1237.07" cy="1576.29" r="6"/>
<text class="station-label" x="1249.07" y="1558.29">Mishima</text>
<circle class="station" cx="1162.07" cy="1572.63" r="6"/>
<text class="station-label" x="1077.11" y="1566.63">Shin-Fuji</text>
<circle class="hub" cx="1078.9" cy="1612.24" r="9"/>
<text class="hub-label" x="1096.9" y="1628.24">Shizuoka</text>
<circle class="station" cx="965.79" cy="1659.25" r="6"/>
<text class="station-label" x="983.79" y="1653.25">Kakegawa</text>
<circle class="hub" cx="880.98" cy="1674.5" r="9"/>
<text class="hub-label" x="790.44" y="1668.5">Hamamatsu</text>
<circle class="station" cx="774.24" cy="1660.82" r="6"/>
<text class="station-label" x="689.28" y="1654.82">Toyohashi</text>
<circle class="station" cx="677.01" cy="1612.7" r="6"/>
<text class="station-label" x="695.01" y="1606.7">Mikawa-Anjo</text>
<circle class="hub" cx="622.74" cy="1565.96" r="9"/>
<text class="hub-label" x="640.74" y="1555.96">Nagoya</text>
<circle class="station" cx="563.38" cy="1532.21" r="6"/>
<text class="station-label" x="581.38" y="1526.21">Gifu-Hashima</text>
<circle class="hub" cx="443.64" cy="1532.48" r="9"/>
<text class="hub-label" x="461.64" y="1526.48">Maibara</text>
<circle class="hub" cx="282.53" cy="1609.03" r="9"/>
<text class="hub-label" x="300.53" y="1599.03">Kyoto</text>
<circle class="hub" cx="205.07" cy="1667.47" r="9"/>
<text class="hub-label" x="223.07" y="1655.47">Shin-Osaka</text>
<circle class="hub" cx="112.42" cy="1673.91" r="9"/>
<text class="hub-label" x="130.42000000000002" y="1667.91">Shin-Kobe</text>
<circle class="station" cx="41.1" cy="1683.33" r="6"/>
<text class="station-label" x="-66.18" y="1699.33">Nishi-Akashi</text>
<circle class="hub" cx="-40.45" cy="1645.72" r="9"/>
<text class="hub-label" x="-22.450000000000003" y="1639.72">Himeji</text>
<circle class="station" cx="-106.24" cy="1647.95" r="6"/>
<text class="station-label" x="-154.0" y="1641.95">Aioi</text>
<circle class="hub" cx="-274.2" cy="1683.18" r="9"/>
<text class="hub-label" x="-256.2" y="1677.18">Okayama</text>
<circle class="station" cx="-346.91" cy="1706.77" r="6"/>
<text class="station-label" x="-328.91" y="1722.77">Shin-Kurashiki</text>
<circle class="hub" cx="-442.84" cy="1724.4" r="9"/>
<text class="hub-label" x="-424.84" y="1740.4">Fukuyama</text>
<circle class="station" cx="-494.64" cy="1738.16" r="6"/>
<text class="station-label" x="-482.64" y="1764.16">Shin-Onomichi</text>
<circle class="station" cx="-527.11" cy="1745.05" r="6"/>
<text class="station-label" x="-589.75" y="1761.05">Mihara</text>
<circle class="station" cx="-624.97" cy="1747.63" r="6"/>
<text class="station-label" x="-769.45" y="1763.63">Higashi-Hiroshima</text>
<circle class="hub" cx="-710.99" cy="1745.75" r="9"/>
<text class="hub-label" x="-698.99" y="1727.75">Hiroshima</text>
<circle class="station" cx="-810.26" cy="1800.35" r="6"/>
<text class="station-label" x="-792.26" y="1794.35">Shin-Iwakuni</text>
<circle class="hub" cx="-914.62" cy="1826.18" r="9"/>
<text class="hub-label" x="-896.62" y="1816.18">Tokuyama</text>
<circle class="hub" cx="-1037.61" cy="1816.48" r="9"/>
<text class="hub-label" x="-1019.6099999999999" y="1806.48">Shin-Yamaguchi</text>
<circle class="station" cx="-1109.24" cy="1825.76" r="6"/>
<text class="station-label" x="-1091.24" y="1819.76">Asa</text>
<circle class="hub" cx="-1173.39" cy="1836.85" r="9"/>
<text class="hub-label" x="-1320.3500000000001" y="1830.85">Shin-Shimonoseki</text>
<circle class="hub" cx="-1193.17" cy="1864.5" r="9"/>
<text class="hub-label" x="-1175.17" y="1880.5">Kokura</text>
<circle class="hub" cx="-1333.04" cy="1933.5" r="9"/>
<text class="hub-label" x="-1315.04" y="1923.5">Hakata</text>
<circle class="hub" cx="-1311.7" cy="1984.59" r="9"/>
<text class="hub-label" x="-1293.7" y="1974.59">Shin-Tosu</text>
<circle class="hub" cx="-1308.58" cy="1996.33" r="9"/>
<text class="hub-label" x="-1290.58" y="2012.33">Kurume</text>
<circle class="station" cx="-1311.55" cy="2029.29" r="6"/>
<text class="station-label" x="-1293.55" y="2045.29">Chikugo-Funagoya</text>
<circle class="station" cx="-1312.42" cy="2054.12" r="6"/>
<text class="station-label" x="-1404.8200000000002" y="2048.12">Shin-Omuta</text>
<circle class="station" cx="-1286.74" cy="2084.06" r="6"/>
<text class="station-label" x="-1386.58" y="2100.06">Shin-Tamana</text>
<circle class="hub" cx="-1251.95" cy="2119.7" r="9"/>
<text class="hub-label" x="-1233.95" y="2135.7">Kumamoto</text>
<circle class="hub" cx="-1268.17" cy="2182.79" r="9"/>
<text class="hub-label" x="-1250.17" y="2176.79">Shin-Yatsushiro</text>
<circle class="station" cx="-1330.53" cy="2254.19" r="6"/>
<text class="station-label" x="-1312.53" y="2248.19">Shin-Minamata</text>
<circle class="station" cx="-1352.05" cy="2282.45" r="6"/>
<text class="station-label" x="-1334.05" y="2298.45">Izumi</text>
<circle class="hub" cx="-1365.88" cy="2346.52" r="9"/>
<text class="hub-label" x="-1347.88" y="2340.52">Sendai</text>
<circle class="hub" cx="-1296.36" cy="2400.0" r="9"/>
<text class="hub-label" x="-1278.36" y="2390.0">Kagoshima-Chuo</text>
<circle class="hub" cx="-1453.61" cy="2025.08" r="9"/>
<text class="hub-label" x="-1435.61" y="2019.08">Takeo-Onsen</text>
<circle class="station" cx="-1460.67" cy="2045.91" r="6"/>
<text class="station-label" x="-1582.8300000000002" y="2039.91">Ureshino-Onsen</text>
<circle class="station" cx="-1473.4" cy="2086.32" r="6"/>
<text class="station-label" x="-1565.8000000000002" y="2080.32">Shin-Omura</text>
<circle class="hub" cx="-1447.77" cy="2105.33" r="9"/>
<text class="hub-label" x="-1435.77" y="2131.33">Isahaya</text>
<circle class="hub" cx="-1500.0" cy="2128.18" r="9"/>
<text class="hub-label" x="-1582.48" y="2122.18">Nagasaki</text>
</svg>