<svg xmlns="http://www.w3.org/2000/svg" width="1600" height="1200" viewBox="0 0 1600 1200">
  <rect width="1600" height="1200" fill="#f4f1ea"/>
  <text x="80" y="90" font-family="Arial, sans-serif" font-size="42" font-weight="700" fill="#1f1f1f">JR Yamanote Line</text>
  <text x="80" y="135" font-family="Arial, sans-serif" font-size="24" fill="#4d4d4d">山手線 / 山手线</text>
  <text x="80" y="175" font-family="Arial, sans-serif" font-size="18" fill="#5d5d5d">Real 30-station loop schematic for the current game data layer</text>

  <ellipse cx="800" cy="620" rx="470" ry="360" fill="none" stroke="#80c241" stroke-width="24"/>

  <g fill="#ffffff" stroke="#1f1f1f" stroke-width="4">
    <circle cx="500" cy="925" r="10"/>
    <circle cx="432" cy="882" r="10"/>
    <circle cx="378" cy="830" r="10"/>
    <circle cx="340" cy="768" r="10"/>
    <circle cx="322" cy="696" r="10"/>
    <circle cx="324" cy="622" r="10"/>
    <circle cx="342" cy="550" r="10"/>
    <circle cx="380" cy="488" r="10"/>
    <circle cx="434" cy="434" r="10"/>
    <circle cx="500" cy="394" r="10"/>
    <circle cx="578" cy="362" r="10"/>
    <circle cx="662" cy="336" r="10"/>
    <circle cx="748" cy="320" r="10"/>
    <circle cx="836" cy="316" r="10"/>
    <circle cx="922" cy="326" r="10"/>
    <circle cx="1004" cy="350" r="10"/>
    <circle cx="1080" cy="384" r="10"/>
    <circle cx="1146" cy="430" r="10"/>
    <circle cx="1200" cy="486" r="10"/>
    <circle cx="1238" cy="550" r="10"/>
    <circle cx="1260" cy="622" r="10"/>
    <circle cx="1252" cy="694" r="10"/>
    <circle cx="1220" cy="762" r="10"/>
    <circle cx="1166" cy="820" r="10"/>
    <circle cx="1096" cy="868" r="10"/>
    <circle cx="1014" cy="904" r="10"/>
    <circle cx="926" cy="926" r="10"/>
    <circle cx="836" cy="936" r="10"/>
    <circle cx="746" cy="934" r="10"/>
    <circle cx="658" cy="926" r="10"/>
  </g>

  <g font-family="Arial, sans-serif" fill="#1f1f1f">
    <text x="380" y="958" font-size="18" font-weight="700">Osaki</text>
    <text x="380" y="980" font-size="16">大崎 / 大崎</text>

    <text x="275" y="904" font-size="18" font-weight="700">Gotanda</text>
    <text x="275" y="926" font-size="16">五反田 / 五反田</text>

    <text x="212" y="850" font-size="18" font-weight="700">Meguro</text>
    <text x="212" y="872" font-size="16">目黒 / 目黑</text>

    <text x="165" y="782" font-size="18" font-weight="700">Ebisu</text>
    <text x="165" y="804" font-size="16">恵比寿 / 惠比寿</text>

    <text x="145" y="710" font-size="18" font-weight="700">Shibuya</text>
    <text x="145" y="732" font-size="16">渋谷 / 涩谷</text>

    <text x="145" y="628" font-size="18" font-weight="700">Harajuku</text>
    <text x="145" y="650" font-size="16">原宿 / 原宿</text>

    <text x="155" y="544" font-size="18" font-weight="700">Yoyogi</text>
    <text x="155" y="566" font-size="16">代々木 / 代代木</text>

    <text x="188" y="482" font-size="18" font-weight="700">Shinjuku</text>
    <text x="188" y="504" font-size="16">新宿 / 新宿</text>

    <text x="235" y="426" font-size="18" font-weight="700">Shin-Okubo</text>
    <text x="235" y="448" font-size="16">新大久保 / 新大久保</text>

    <text x="302" y="382" font-size="18" font-weight="700">Takadanobaba</text>
    <text x="302" y="404" font-size="16">高田馬場 / 高田马场</text>

    <text x="520" y="322" font-size="18" font-weight="700">Mejiro</text>
    <text x="520" y="344" font-size="16">目白 / 目白</text>

    <text x="608" y="292" font-size="18" font-weight="700">Ikebukuro</text>
    <text x="608" y="314" font-size="16">池袋 / 池袋</text>

    <text x="702" y="274" font-size="18" font-weight="700">Otsuka</text>
    <text x="702" y="296" font-size="16">大塚 / 大冢</text>

    <text x="802" y="270" font-size="18" font-weight="700">Sugamo</text>
    <text x="802" y="292" font-size="16">巣鴨 / 巢鸭</text>

    <text x="900" y="282" font-size="18" font-weight="700">Komagome</text>
    <text x="900" y="304" font-size="16">駒込 / 驹込</text>

    <text x="990" y="312" font-size="18" font-weight="700">Tabata</text>
    <text x="990" y="334" font-size="16">田端 / 田端</text>

    <text x="1068" y="346" font-size="18" font-weight="700">Nishi-Nippori</text>
    <text x="1068" y="368" font-size="16">西日暮里 / 西日暮里</text>

    <text x="1174" y="404" font-size="18" font-weight="700">Nippori</text>
    <text x="1174" y="426" font-size="16">日暮里 / 日暮里</text>

    <text x="1240" y="472" font-size="18" font-weight="700">Uguisudani</text>
    <text x="1240" y="494" font-size="16">鶯谷 / 莺谷</text>

    <text x="1284" y="542" font-size="18" font-weight="700">Ueno</text>
    <text x="1284" y="564" font-size="16">上野 / 上野</text>

    <text x="1300" y="618" font-size="18" font-weight="700">Okachimachi</text>
    <text x="1300" y="640" font-size="16">御徒町 / 御徒町</text>

    <text x="1288" y="704" font-size="18" font-weight="700">Akihabara</text>
    <text x="1288" y="726" font-size="16">秋葉原 / 秋叶原</text>

    <text x="1246" y="780" font-size="18" font-weight="700">Kanda</text>
    <text x="1246" y="802" font-size="16">神田 / 神田</text>

    <text x="1178" y="846" font-size="18" font-weight="700">Tokyo</text>
    <text x="1178" y="868" font-size="16">東京 / 东京</text>

    <text x="1088" y="896" font-size="18" font-weight="700">Yurakucho</text>
    <text x="1088" y="918" font-size="16">有楽町 / 有乐町</text>

    <text x="994" y="940" font-size="18" font-weight="700">Shimbashi</text>
    <text x="994" y="962" font-size="16">新橋 / 新桥</text>

    <text x="874" y="970" font-size="18" font-weight="700">Hamamatsucho</text>
    <text x="874" y="992" font-size="16">浜松町 / 滨松町</text>

    <text x="770" y="982" font-size="18" font-weight="700">Tamachi</text>
    <text x="770" y="1004" font-size="16">田町 / 田町</text>

    <text x="610" y="982" font-size="18" font-weight="700">Takanawa Gateway</text>
    <text x="610" y="1004" font-size="16">高輪ゲートウェイ / 高轮Gateway</text>

    <text x="500" y="964" font-size="18" font-weight="700">Shinagawa</text>
    <text x="500" y="986" font-size="16">品川 / 品川</text>
  </g>

  <g transform="translate(80,1010)">
    <rect width="280" height="96" rx="16" fill="#fbfaf6" stroke="#d4cec1"/>
    <line x1="24" y1="42" x2="104" y2="42" stroke="#80c241" stroke-width="14" stroke-linecap="round"/>
    <text x="122" y="49" font-family="Arial, sans-serif" font-size="22" font-weight="700" fill="#1f1f1f">JR Yamanote</text>
    <text x="24" y="78" font-family="Arial, sans-serif" font-size="18" fill="#4d4d4d">Real line color: green</text>
  </g>
</svg>
