<svg xmlns="http://www.w3.org/2000/svg" width="1280" height="2134" viewBox="0 0 1280 2134" role="img" aria-label="Battle timeline">
<defs>
<filter id="softShadow" x="-20%" y="-20%" width="140%" height="140%"><feDropShadow dx="0" dy="8" stdDeviation="10" flood-color="#64748b" flood-opacity="0.16"/></filter>
</defs>
<g font-family="Inter, ui-sans-serif, system-ui, -apple-system, BlinkMacSystemFont, Segoe UI, sans-serif">
<rect x="0" y="0" width="1280" height="100%" fill="#f5f7fb" />
<rect x="34" y="26" width="1212" height="96" rx="8" fill="#ffffff" stroke="#d8e0eb" />
<text x="64.0" y="66.0" font-size="26" font-weight="900" fill="#102033" text-anchor="start" >Game 4 · Room CN5Q35</text>
<text x="64.0" y="96.0" font-size="14" font-weight="750" fill="#667487" text-anchor="start" >Runner: 東急田園都市線 -&gt; 東急田園都市線 -&gt; 東急田園都市線 -&gt; 東急田園都市線 -&gt; 東急田園都市線 -&gt; 東急田園都市線 -&gt; 東急田園都市線 -&gt; 東急田園都市線 -&gt; 小田急江ノ島線 -&gt; 小田急江ノ島線 · Hunter: 京浜東北線・根岸線 -&gt; 京浜東北線・根岸線 -&gt; 総武線 -&gt; 都営三田線 -&gt; 都営三田線 -&gt; 都営三田線 -&gt; 都営三田線 -&gt; 都営三田線 -&gt; 南北線 -&gt; 南北線 · 无 · LIVE</text>
<rect x="92" y="128" width="502" height="42" rx="8" fill="#fff1f2" stroke="#fecdd3" />
<text x="343.0" y="155.0" font-size="16" font-weight="950" fill="#be123c" text-anchor="middle" >RUNNER</text>
<rect x="686" y="128" width="502" height="42" rx="8" fill="#eff6ff" stroke="#bfdbfe" />
<text x="937.0" y="155.0" font-size="16" font-weight="950" fill="#1d4ed8" text-anchor="middle" >HUNTER</text>
<rect x="597" y="128" width="86" height="42" rx="8" fill="#f8fafc" stroke="#d8e0eb" />
<text x="640.0" y="155.0" font-size="15" font-weight="950" fill="#475569" text-anchor="middle" >TIME</text>
<rect x="34" y="2086.0" width="1212" height="1" fill="#dfe7f1" />
<g opacity="0.96">
<line x1="640" y1="156.0" x2="640" y2="2046.0" stroke="#b9c5d5" stroke-width="3" stroke-linecap="round" />
<line x1="616" y1="226.0" x2="664" y2="226.0" stroke="#d4dce8" stroke-width="1.2" />
<text x="640.0" y="230.0" font-size="12" font-weight="800" fill="#667487" text-anchor="middle" >06:00</text>
<line x1="626" y1="366.0" x2="654" y2="366.0" stroke="#d4dce8" stroke-width="1.2" />
<text x="640.0" y="370.0" font-size="10" font-weight="650" fill="#667487" text-anchor="middle" >06:10</text>
<line x1="626" y1="506.0" x2="654" y2="506.0" stroke="#d4dce8" stroke-width="1.2" />
<text x="640.0" y="510.0" font-size="10" font-weight="650" fill="#667487" text-anchor="middle" >06:20</text>
<line x1="626" y1="646.0" x2="654" y2="646.0" stroke="#d4dce8" stroke-width="1.2" />
<text x="640.0" y="650.0" font-size="10" font-weight="650" fill="#667487" text-anchor="middle" >06:30</text>
<line x1="626" y1="786.0" x2="654" y2="786.0" stroke="#d4dce8" stroke-width="1.2" />
<text x="640.0" y="790.0" font-size="10" font-weight="650" fill="#667487" text-anchor="middle" >06:40</text>
<line x1="626" y1="926.0" x2="654" y2="926.0" stroke="#d4dce8" stroke-width="1.2" />
<text x="640.0" y="930.0" font-size="10" font-weight="650" fill="#667487" text-anchor="middle" >06:50</text>
<line x1="616" y1="1066.0" x2="664" y2="1066.0" stroke="#d4dce8" stroke-width="1.2" />
<text x="640.0" y="1070.0" font-size="12" font-weight="800" fill="#667487" text-anchor="middle" >07:00</text>
<line x1="626" y1="1206.0" x2="654" y2="1206.0" stroke="#d4dce8" stroke-width="1.2" />
<text x="640.0" y="1210.0" font-size="10" font-weight="650" fill="#667487" text-anchor="middle" >07:10</text>
<line x1="626" y1="1346.0" x2="654" y2="1346.0" stroke="#d4dce8" stroke-width="1.2" />
<text x="640.0" y="1350.0" font-size="10" font-weight="650" fill="#667487" text-anchor="middle" >07:20</text>
<line x1="626" y1="1486.0" x2="654" y2="1486.0" stroke="#d4dce8" stroke-width="1.2" />
<text x="640.0" y="1490.0" font-size="10" font-weight="650" fill="#667487" text-anchor="middle" >07:30</text>
<line x1="626" y1="1626.0" x2="654" y2="1626.0" stroke="#d4dce8" stroke-width="1.2" />
<text x="640.0" y="1630.0" font-size="10" font-weight="650" fill="#667487" text-anchor="middle" >07:40</text>
<line x1="626" y1="1766.0" x2="654" y2="1766.0" stroke="#d4dce8" stroke-width="1.2" />
<text x="640.0" y="1770.0" font-size="10" font-weight="650" fill="#667487" text-anchor="middle" >07:50</text>
<line x1="616" y1="1906.0" x2="664" y2="1906.0" stroke="#d4dce8" stroke-width="1.2" />
<text x="640.0" y="1910.0" font-size="12" font-weight="800" fill="#667487" text-anchor="middle" >08:00</text>
<line x1="626" y1="2046.0" x2="654" y2="2046.0" stroke="#d4dce8" stroke-width="1.2" />
<text x="640.0" y="2050.0" font-size="10" font-weight="650" fill="#667487" text-anchor="middle" >08:10</text>
<line x1="72" y1="226.0" x2="1208" y2="226.0" stroke="#e7edf5" stroke-width="1" />
<rect x="609" y="213.0" width="62" height="26" rx="8" fill="#ffffff" stroke="#cfd8e5" />
<text x="640.0" y="230.0" font-size="12" font-weight="900" fill="#334155" text-anchor="middle" >06:00</text>
<line x1="72" y1="240.0" x2="1208" y2="240.0" stroke="#e7edf5" stroke-width="1" />
<rect x="609" y="227.0" width="62" height="26" rx="8" fill="#ffffff" stroke="#cfd8e5" />
<text x="640.0" y="244.0" font-size="12" font-weight="900" fill="#334155" text-anchor="middle" >06:01</text>
<line x1="72" y1="380.0" x2="1208" y2="380.0" stroke="#e7edf5" stroke-width="1" />
<rect x="609" y="367.0" width="62" height="26" rx="8" fill="#ffffff" stroke="#cfd8e5" />
<text x="640.0" y="384.0" font-size="12" font-weight="900" fill="#334155" text-anchor="middle" >06:11</text>
<line x1="72" y1="534.0" x2="1208" y2="534.0" stroke="#e7edf5" stroke-width="1" />
<rect x="609" y="521.0" width="62" height="26" rx="8" fill="#ffffff" stroke="#cfd8e5" />
<text x="640.0" y="538.0" font-size="12" font-weight="900" fill="#334155" text-anchor="middle" >06:22</text>
<line x1="72" y1="590.0" x2="1208" y2="590.0" stroke="#e7edf5" stroke-width="1" />
<rect x="609" y="577.0" width="62" height="26" rx="8" fill="#ffffff" stroke="#cfd8e5" />
<text x="640.0" y="594.0" font-size="12" font-weight="900" fill="#334155" text-anchor="middle" >06:26</text>
<line x1="72" y1="702.0" x2="1208" y2="702.0" stroke="#e7edf5" stroke-width="1" />
<rect x="609" y="689.0" width="62" height="26" rx="8" fill="#ffffff" stroke="#cfd8e5" />
<text x="640.0" y="706.0" font-size="12" font-weight="900" fill="#334155" text-anchor="middle" >06:34</text>
<line x1="72" y1="716.0" x2="1208" y2="716.0" stroke="#e7edf5" stroke-width="1" />
<rect x="609" y="703.0" width="62" height="26" rx="8" fill="#ffffff" stroke="#cfd8e5" />
<text x="640.0" y="720.0" font-size="12" font-weight="900" fill="#334155" text-anchor="middle" >06:35</text>
<line x1="72" y1="800.0" x2="1208" y2="800.0" stroke="#e7edf5" stroke-width="1" />
<rect x="609" y="787.0" width="62" height="26" rx="8" fill="#ffffff" stroke="#cfd8e5" />
<text x="640.0" y="804.0" font-size="12" font-weight="900" fill="#334155" text-anchor="middle" >06:41</text>
<line x1="72" y1="940.0" x2="1208" y2="940.0" stroke="#e7edf5" stroke-width="1" />
<rect x="609" y="927.0" width="62" height="26" rx="8" fill="#ffffff" stroke="#cfd8e5" />
<text x="640.0" y="944.0" font-size="12" font-weight="900" fill="#334155" text-anchor="middle" >06:51</text>
<line x1="72" y1="982.0" x2="1208" y2="982.0" stroke="#e7edf5" stroke-width="1" />
<rect x="609" y="969.0" width="62" height="26" rx="8" fill="#ffffff" stroke="#cfd8e5" />
<text x="640.0" y="986.0" font-size="12" font-weight="900" fill="#334155" text-anchor="middle" >06:54</text>
<line x1="72" y1="1080.0" x2="1208" y2="1080.0" stroke="#e7edf5" stroke-width="1" />
<rect x="609" y="1067.0" width="62" height="26" rx="8" fill="#ffffff" stroke="#cfd8e5" />
<text x="640.0" y="1084.0" font-size="12" font-weight="900" fill="#334155" text-anchor="middle" >07:01</text>
<line x1="72" y1="1164.0" x2="1208" y2="1164.0" stroke="#e7edf5" stroke-width="1" />
<rect x="609" y="1151.0" width="62" height="26" rx="8" fill="#ffffff" stroke="#cfd8e5" />
<text x="640.0" y="1168.0" font-size="12" font-weight="900" fill="#334155" text-anchor="middle" >07:07</text>
<line x1="72" y1="1178.0" x2="1208" y2="1178.0" stroke="#e7edf5" stroke-width="1" />
<rect x="609" y="1165.0" width="62" height="26" rx="8" fill="#ffffff" stroke="#cfd8e5" />
<text x="640.0" y="1182.0" font-size="12" font-weight="900" fill="#334155" text-anchor="middle" >07:08</text>
<line x1="72" y1="1290.0" x2="1208" y2="1290.0" stroke="#e7edf5" stroke-width="1" />
<rect x="609" y="1277.0" width="62" height="26" rx="8" fill="#ffffff" stroke="#cfd8e5" />
<text x="640.0" y="1294.0" font-size="12" font-weight="900" fill="#334155" text-anchor="middle" >07:16</text>
<line x1="72" y1="1332.0" x2="1208" y2="1332.0" stroke="#e7edf5" stroke-width="1" />
<rect x="609" y="1319.0" width="62" height="26" rx="8" fill="#ffffff" stroke="#cfd8e5" />
<text x="640.0" y="1336.0" font-size="12" font-weight="900" fill="#334155" text-anchor="middle" >07:19</text>
<line x1="72" y1="1346.0" x2="1208" y2="1346.0" stroke="#e7edf5" stroke-width="1" />
<rect x="609" y="1333.0" width="62" height="26" rx="8" fill="#ffffff" stroke="#cfd8e5" />
<text x="640.0" y="1350.0" font-size="12" font-weight="900" fill="#334155" text-anchor="middle" >07:20</text>
<line x1="72" y1="1416.0" x2="1208" y2="1416.0" stroke="#e7edf5" stroke-width="1" />
<rect x="609" y="1403.0" width="62" height="26" rx="8" fill="#ffffff" stroke="#cfd8e5" />
<text x="640.0" y="1420.0" font-size="12" font-weight="900" fill="#334155" text-anchor="middle" >07:25</text>
<line x1="72" y1="1542.0" x2="1208" y2="1542.0" stroke="#e7edf5" stroke-width="1" />
<rect x="609" y="1529.0" width="62" height="26" rx="8" fill="#ffffff" stroke="#cfd8e5" />
<text x="640.0" y="1546.0" font-size="12" font-weight="900" fill="#334155" text-anchor="middle" >07:34</text>
<line x1="72" y1="1556.0" x2="1208" y2="1556.0" stroke="#e7edf5" stroke-width="1" />
<rect x="609" y="1543.0" width="62" height="26" rx="8" fill="#ffffff" stroke="#cfd8e5" />
<text x="640.0" y="1560.0" font-size="12" font-weight="900" fill="#334155" text-anchor="middle" >07:35</text>
<line x1="72" y1="1570.0" x2="1208" y2="1570.0" stroke="#e7edf5" stroke-width="1" />
<rect x="609" y="1557.0" width="62" height="26" rx="8" fill="#ffffff" stroke="#cfd8e5" />
<text x="640.0" y="1574.0" font-size="12" font-weight="900" fill="#334155" text-anchor="middle" >07:36</text>
<line x1="72" y1="1654.0" x2="1208" y2="1654.0" stroke="#e7edf5" stroke-width="1" />
<rect x="609" y="1641.0" width="62" height="26" rx="8" fill="#ffffff" stroke="#cfd8e5" />
<text x="640.0" y="1658.0" font-size="12" font-weight="900" fill="#334155" text-anchor="middle" >07:42</text>
<line x1="72" y1="1668.0" x2="1208" y2="1668.0" stroke="#e7edf5" stroke-width="1" />
<rect x="609" y="1655.0" width="62" height="26" rx="8" fill="#ffffff" stroke="#cfd8e5" />
<text x="640.0" y="1672.0" font-size="12" font-weight="900" fill="#334155" text-anchor="middle" >07:43</text>
<line x1="72" y1="1696.0" x2="1208" y2="1696.0" stroke="#e7edf5" stroke-width="1" />
<rect x="609" y="1683.0" width="62" height="26" rx="8" fill="#ffffff" stroke="#cfd8e5" />
<text x="640.0" y="1700.0" font-size="12" font-weight="900" fill="#334155" text-anchor="middle" >07:45</text>
<line x1="72" y1="1724.0" x2="1208" y2="1724.0" stroke="#e7edf5" stroke-width="1" />
<rect x="609" y="1711.0" width="62" height="26" rx="8" fill="#ffffff" stroke="#cfd8e5" />
<text x="640.0" y="1728.0" font-size="12" font-weight="900" fill="#334155" text-anchor="middle" >07:47</text>
<line x1="72" y1="1850.0" x2="1208" y2="1850.0" stroke="#e7edf5" stroke-width="1" />
<rect x="609" y="1837.0" width="62" height="26" rx="8" fill="#ffffff" stroke="#cfd8e5" />
<text x="640.0" y="1854.0" font-size="12" font-weight="900" fill="#334155" text-anchor="middle" >07:56</text>
<line x1="72" y1="1878.0" x2="1208" y2="1878.0" stroke="#e7edf5" stroke-width="1" />
<rect x="609" y="1865.0" width="62" height="26" rx="8" fill="#ffffff" stroke="#cfd8e5" />
<text x="640.0" y="1882.0" font-size="12" font-weight="900" fill="#334155" text-anchor="middle" >07:58</text>
</g>
<g filter="url(#softShadow)">
<line x1="604" y1="240.0" x2="604" y2="380.0" stroke="#D9485F" stroke-width="10" stroke-linecap="round" />
<line x1="604" y1="240.0" x2="604" y2="380.0" stroke="#ffffff" stroke-opacity="0.62" stroke-width="3" stroke-linecap="round" />
<circle cx="604" cy="240.0" r="7" fill="#D9485F" stroke="#ffffff" stroke-width="3" />
<circle cx="604" cy="380.0" r="7" fill="#D9485F" stroke="#ffffff" stroke-width="3" />
<line x1="446" y1="310.0" x2="604" y2="310.0" stroke="#e995a2" stroke-width="2" stroke-dasharray="4 5" />
<rect x="92" y="267.0" width="354" height="86" rx="8" fill="#fae5e9" stroke="#b84258" stroke-width="1.2" />
<rect x="437" y="267.0" width="9" height="86" rx="4.5" fill="#D9485F" />
<text x="428.0" y="292.0" font-size="18" font-weight="800" fill="#162235" text-anchor="end" >東急田園都市線</text>
<text x="428.0" y="316.0" font-size="13" font-weight="650" fill="#657386" text-anchor="end" >渋谷 -&gt; 桜新町</text>
<text x="428.0" y="333.0" font-size="13" font-weight="650" fill="#657386" text-anchor="end" >06:01 - 06:11</text>
<line x1="604" y1="380.0" x2="604" y2="534.0" stroke="#D9485F" stroke-width="10" stroke-linecap="round" />
<line x1="604" y1="380.0" x2="604" y2="534.0" stroke="#ffffff" stroke-opacity="0.62" stroke-width="3" stroke-linecap="round" />
<circle cx="604" cy="380.0" r="7" fill="#D9485F" stroke="#ffffff" stroke-width="3" />
<circle cx="604" cy="534.0" r="7" fill="#D9485F" stroke="#ffffff" stroke-width="3" />
<line x1="446" y1="457.0" x2="604" y2="457.0" stroke="#e995a2" stroke-width="2" stroke-dasharray="4 5" />
<rect x="92" y="414.0" width="354" height="86" rx="8" fill="#fae5e9" stroke="#b84258" stroke-width="1.2" />
<rect x="437" y="414.0" width="9" height="86" rx="4.5" fill="#D9485F" />
<text x="428.0" y="439.0" font-size="18" font-weight="800" fill="#162235" text-anchor="end" >東急田園都市線</text>
<text x="428.0" y="463.0" font-size="13" font-weight="650" fill="#657386" text-anchor="end" >桜新町 -&gt; 梶が谷</text>
<text x="428.0" y="480.0" font-size="13" font-weight="650" fill="#657386" text-anchor="end" >06:11 - 06:22</text>
<line x1="604" y1="534.0" x2="604" y2="590.0" stroke="#D9485F" stroke-width="10" stroke-linecap="round" />
<line x1="604" y1="534.0" x2="604" y2="590.0" stroke="#ffffff" stroke-opacity="0.62" stroke-width="3" stroke-linecap="round" />
<circle cx="604" cy="534.0" r="7" fill="#D9485F" stroke="#ffffff" stroke-width="3" />
<circle cx="604" cy="590.0" r="7" fill="#D9485F" stroke="#ffffff" stroke-width="3" />
<line x1="446" y1="562.0" x2="604" y2="562.0" stroke="#e995a2" stroke-width="2" stroke-dasharray="4 5" />
<rect x="92" y="519.0" width="354" height="86" rx="8" fill="#fae5e9" stroke="#b84258" stroke-width="1.2" />
<rect x="437" y="519.0" width="9" height="86" rx="4.5" fill="#D9485F" />
<text x="428.0" y="544.0" font-size="18" font-weight="800" fill="#162235" text-anchor="end" >東急田園都市線</text>
<text x="428.0" y="568.0" font-size="13" font-weight="650" fill="#657386" text-anchor="end" >梶が谷 -&gt; 宮前平</text>
<text x="428.0" y="585.0" font-size="13" font-weight="650" fill="#657386" text-anchor="end" >06:22 - 06:26</text>
<line x1="604" y1="590.0" x2="604" y2="702.0" stroke="#D9485F" stroke-width="10" stroke-linecap="round" />
<line x1="604" y1="590.0" x2="604" y2="702.0" stroke="#ffffff" stroke-opacity="0.62" stroke-width="3" stroke-linecap="round" />
<circle cx="604" cy="590.0" r="7" fill="#D9485F" stroke="#ffffff" stroke-width="3" />
<circle cx="604" cy="702.0" r="7" fill="#D9485F" stroke="#ffffff" stroke-width="3" />
<line x1="446" y1="646.0" x2="604" y2="646.0" stroke="#e995a2" stroke-width="2" stroke-dasharray="4 5" />
<rect x="92" y="603.0" width="354" height="86" rx="8" fill="#fae5e9" stroke="#b84258" stroke-width="1.2" />
<rect x="437" y="603.0" width="9" height="86" rx="4.5" fill="#D9485F" />
<text x="428.0" y="628.0" font-size="18" font-weight="800" fill="#162235" text-anchor="end" >東急田園都市線</text>
<text x="428.0" y="652.0" font-size="13" font-weight="650" fill="#657386" text-anchor="end" >宮前平 -&gt; 江田</text>
<text x="428.0" y="669.0" font-size="13" font-weight="650" fill="#657386" text-anchor="end" >06:26 - 06:34</text>
<line x1="604" y1="702.0" x2="604" y2="716.0" stroke="#D9485F" stroke-width="10" stroke-linecap="round" />
<line x1="604" y1="702.0" x2="604" y2="716.0" stroke="#ffffff" stroke-opacity="0.62" stroke-width="3" stroke-linecap="round" />
<circle cx="604" cy="702.0" r="7" fill="#D9485F" stroke="#ffffff" stroke-width="3" />
<circle cx="604" cy="716.0" r="7" fill="#D9485F" stroke="#ffffff" stroke-width="3" />
<line x1="446" y1="709.0" x2="604" y2="709.0" stroke="#e995a2" stroke-width="2" stroke-dasharray="4 5" />
<rect x="92" y="666.0" width="354" height="86" rx="8" fill="#fae5e9" stroke="#b84258" stroke-width="1.2" />
<rect x="437" y="666.0" width="9" height="86" rx="4.5" fill="#D9485F" />
<text x="428.0" y="691.0" font-size="18" font-weight="800" fill="#162235" text-anchor="end" >東急田園都市線</text>
<text x="428.0" y="715.0" font-size="13" font-weight="650" fill="#657386" text-anchor="end" >江田 -&gt; 市が尾</text>
<text x="428.0" y="732.0" font-size="13" font-weight="650" fill="#657386" text-anchor="end" >06:34 - 06:35</text>
<line x1="604" y1="716.0" x2="604" y2="800.0" stroke="#D9485F" stroke-width="10" stroke-linecap="round" />
<line x1="604" y1="716.0" x2="604" y2="800.0" stroke="#ffffff" stroke-opacity="0.62" stroke-width="3" stroke-linecap="round" />
<circle cx="604" cy="716.0" r="7" fill="#D9485F" stroke="#ffffff" stroke-width="3" />
<circle cx="604" cy="800.0" r="7" fill="#D9485F" stroke="#ffffff" stroke-width="3" />
<line x1="446" y1="758.0" x2="604" y2="758.0" stroke="#e995a2" stroke-width="2" stroke-dasharray="4 5" />
<rect x="92" y="715.0" width="354" height="86" rx="8" fill="#fae5e9" stroke="#b84258" stroke-width="1.2" />
<rect x="437" y="715.0" width="9" height="86" rx="4.5" fill="#D9485F" />
<text x="428.0" y="740.0" font-size="18" font-weight="800" fill="#162235" text-anchor="end" >東急田園都市線</text>
<text x="428.0" y="764.0" font-size="13" font-weight="650" fill="#657386" text-anchor="end" >市が尾 -&gt; 田奈</text>
<text x="428.0" y="781.0" font-size="13" font-weight="650" fill="#657386" text-anchor="end" >06:35 - 06:41</text>
<line x1="604" y1="800.0" x2="604" y2="940.0" stroke="#D9485F" stroke-width="10" stroke-linecap="round" />
<line x1="604" y1="800.0" x2="604" y2="940.0" stroke="#ffffff" stroke-opacity="0.62" stroke-width="3" stroke-linecap="round" />
<circle cx="604" cy="800.0" r="7" fill="#D9485F" stroke="#ffffff" stroke-width="3" />
<circle cx="604" cy="940.0" r="7" fill="#D9485F" stroke="#ffffff" stroke-width="3" />
<line x1="446" y1="870.0" x2="604" y2="870.0" stroke="#e995a2" stroke-width="2" stroke-dasharray="4 5" />
<rect x="92" y="827.0" width="354" height="86" rx="8" fill="#fae5e9" stroke="#b84258" stroke-width="1.2" />
<rect x="437" y="827.0" width="9" height="86" rx="4.5" fill="#D9485F" />
<text x="428.0" y="852.0" font-size="18" font-weight="800" fill="#162235" text-anchor="end" >東急田園都市線</text>
<text x="428.0" y="876.0" font-size="13" font-weight="650" fill="#657386" text-anchor="end" >田奈 -&gt; つきみ野</text>
<text x="428.0" y="893.0" font-size="13" font-weight="650" fill="#657386" text-anchor="end" >06:41 - 06:51</text>
<line x1="604" y1="940.0" x2="604" y2="982.0" stroke="#D9485F" stroke-width="10" stroke-linecap="round" />
<line x1="604" y1="940.0" x2="604" y2="982.0" stroke="#ffffff" stroke-opacity="0.62" stroke-width="3" stroke-linecap="round" />
<circle cx="604" cy="940.0" r="7" fill="#D9485F" stroke="#ffffff" stroke-width="3" />
<circle cx="604" cy="982.0" r="7" fill="#D9485F" stroke="#ffffff" stroke-width="3" />
<line x1="446" y1="961.0" x2="604" y2="961.0" stroke="#e995a2" stroke-width="2" stroke-dasharray="4 5" />
<rect x="92" y="918.0" width="354" height="86" rx="8" fill="#fae5e9" stroke="#b84258" stroke-width="1.2" />
<rect x="437" y="918.0" width="9" height="86" rx="4.5" fill="#D9485F" />
<text x="428.0" y="943.0" font-size="18" font-weight="800" fill="#162235" text-anchor="end" >東急田園都市線</text>
<text x="428.0" y="967.0" font-size="13" font-weight="650" fill="#657386" text-anchor="end" >つきみ野 -&gt; 中央林間</text>
<text x="428.0" y="984.0" font-size="13" font-weight="650" fill="#657386" text-anchor="end" >06:51 - 06:54</text>
<line x1="604" y1="982.0" x2="604" y2="1164.0" stroke="#2B78D0" stroke-width="10" stroke-linecap="round" />
<line x1="604" y1="982.0" x2="604" y2="1164.0" stroke="#ffffff" stroke-opacity="0.62" stroke-width="3" stroke-linecap="round" />
<circle cx="604" cy="982.0" r="7" fill="#2B78D0" stroke="#ffffff" stroke-width="3" />
<circle cx="604" cy="1164.0" r="7" fill="#2B78D0" stroke="#ffffff" stroke-width="3" />
<line x1="446" y1="1073.0" x2="604" y2="1073.0" stroke="#84b1e4" stroke-width="2" stroke-dasharray="4 5" />
<rect x="92" y="1030.0" width="354" height="86" rx="8" fill="#e1ecf8" stroke="#296ab4" stroke-width="1.2" />
<rect x="437" y="1030.0" width="9" height="86" rx="4.5" fill="#2B78D0" />
<text x="428.0" y="1055.0" font-size="18" font-weight="800" fill="#162235" text-anchor="end" >小田急江ノ島線</text>
<text x="428.0" y="1079.0" font-size="13" font-weight="650" fill="#657386" text-anchor="end" >中央林間 -&gt; 湘南台</text>
<text x="428.0" y="1096.0" font-size="13" font-weight="650" fill="#657386" text-anchor="end" >06:54 - 07:07</text>
<line x1="604" y1="1164.0" x2="604" y2="1290.0" stroke="#2B78D0" stroke-width="10" stroke-linecap="round" />
<line x1="604" y1="1164.0" x2="604" y2="1290.0" stroke="#ffffff" stroke-opacity="0.62" stroke-width="3" stroke-linecap="round" />
<circle cx="604" cy="1164.0" r="7" fill="#2B78D0" stroke="#ffffff" stroke-width="3" />
<circle cx="604" cy="1290.0" r="7" fill="#2B78D0" stroke="#ffffff" stroke-width="3" />
<line x1="446" y1="1227.0" x2="604" y2="1227.0" stroke="#84b1e4" stroke-width="2" stroke-dasharray="4 5" />
<rect x="92" y="1184.0" width="354" height="86" rx="8" fill="#e1ecf8" stroke="#296ab4" stroke-width="1.2" />
<rect x="437" y="1184.0" width="9" height="86" rx="4.5" fill="#2B78D0" />
<text x="428.0" y="1209.0" font-size="18" font-weight="800" fill="#162235" text-anchor="end" >小田急江ノ島線</text>
<text x="428.0" y="1233.0" font-size="13" font-weight="650" fill="#657386" text-anchor="end" >湘南台 -&gt; 藤沢</text>
<text x="428.0" y="1250.0" font-size="13" font-weight="650" fill="#657386" text-anchor="end" >07:07 - 07:16</text>
<line x1="676" y1="1080.0" x2="676" y2="1178.0" stroke="#00BCD4" stroke-width="10" stroke-linecap="round" />
<line x1="676" y1="1080.0" x2="676" y2="1178.0" stroke="#ffffff" stroke-opacity="0.62" stroke-width="3" stroke-linecap="round" />
<circle cx="676" cy="1080.0" r="7" fill="#00BCD4" stroke="#ffffff" stroke-width="3" />
<circle cx="676" cy="1178.0" r="7" fill="#00BCD4" stroke="#ffffff" stroke-width="3" />
<line x1="844" y1="1129.0" x2="676" y2="1129.0" stroke="#6bd8e6" stroke-width="2" stroke-dasharray="4 5" />
<rect x="844" y="1086.0" width="354" height="86" rx="8" fill="#dbf6f9" stroke="#06a2b8" stroke-width="1.2" />
<rect x="844" y="1086.0" width="9" height="86" rx="4.5" fill="#00BCD4" />
<text x="862.0" y="1111.0" font-size="18" font-weight="800" fill="#162235" text-anchor="start" >京浜東北線・根岸線</text>
<text x="862.0" y="1135.0" font-size="13" font-weight="650" fill="#657386" text-anchor="start" >品川 -&gt; 浜松町</text>
<text x="862.0" y="1152.0" font-size="13" font-weight="650" fill="#657386" text-anchor="start" >07:01 - 07:08</text>
<line x1="676" y1="1178.0" x2="676" y2="1332.0" stroke="#00BCD4" stroke-width="10" stroke-linecap="round" />
<line x1="676" y1="1178.0" x2="676" y2="1332.0" stroke="#ffffff" stroke-opacity="0.62" stroke-width="3" stroke-linecap="round" />
<circle cx="676" cy="1178.0" r="7" fill="#00BCD4" stroke="#ffffff" stroke-width="3" />
<circle cx="676" cy="1332.0" r="7" fill="#00BCD4" stroke="#ffffff" stroke-width="3" />
<line x1="844" y1="1255.0" x2="676" y2="1255.0" stroke="#6bd8e6" stroke-width="2" stroke-dasharray="4 5" />
<rect x="844" y="1212.0" width="354" height="86" rx="8" fill="#dbf6f9" stroke="#06a2b8" stroke-width="1.2" />
<rect x="844" y="1212.0" width="9" height="86" rx="4.5" fill="#00BCD4" />
<text x="862.0" y="1237.0" font-size="18" font-weight="800" fill="#162235" text-anchor="start" >京浜東北線・根岸線</text>
<text x="862.0" y="1261.0" font-size="13" font-weight="650" fill="#657386" text-anchor="start" >浜松町 -&gt; 秋葉原</text>
<text x="862.0" y="1278.0" font-size="13" font-weight="650" fill="#657386" text-anchor="start" >07:08 - 07:19</text>
<line x1="676" y1="1346.0" x2="676" y2="1416.0" stroke="#F4C300" stroke-width="10" stroke-linecap="round" />
<line x1="676" y1="1346.0" x2="676" y2="1416.0" stroke="#ffffff" stroke-opacity="0.62" stroke-width="3" stroke-linecap="round" />
<circle cx="676" cy="1346.0" r="7" fill="#F4C300" stroke="#ffffff" stroke-width="3" />
<circle cx="676" cy="1416.0" r="7" fill="#F4C300" stroke="#ffffff" stroke-width="3" />
<line x1="844" y1="1381.0" x2="676" y2="1381.0" stroke="#f9dc6b" stroke-width="2" stroke-dasharray="4 5" />
<rect x="844" y="1338.0" width="354" height="86" rx="8" fill="#fdf7db" stroke="#cea70a" stroke-width="1.2" />
<rect x="844" y="1338.0" width="9" height="86" rx="4.5" fill="#F4C300" />
<text x="862.0" y="1363.0" font-size="18" font-weight="800" fill="#162235" text-anchor="start" >総武線</text>
<text x="862.0" y="1387.0" font-size="13" font-weight="650" fill="#657386" text-anchor="start" >秋葉原 -&gt; 水道橋</text>
<text x="862.0" y="1404.0" font-size="13" font-weight="650" fill="#657386" text-anchor="start" >07:20 - 07:25</text>
<line x1="676" y1="1416.0" x2="676" y2="1542.0" stroke="#0079C2" stroke-width="10" stroke-linecap="round" />
<line x1="676" y1="1416.0" x2="676" y2="1542.0" stroke="#ffffff" stroke-opacity="0.62" stroke-width="3" stroke-linecap="round" />
<circle cx="676" cy="1416.0" r="7" fill="#0079C2" stroke="#ffffff" stroke-width="3" />
<circle cx="676" cy="1542.0" r="7" fill="#0079C2" stroke="#ffffff" stroke-width="3" />
<line x1="844" y1="1479.0" x2="676" y2="1479.0" stroke="#6bb1dc" stroke-width="2" stroke-dasharray="4 5" />
<rect x="844" y="1436.0" width="354" height="86" rx="8" fill="#dbecf6" stroke="#066ba9" stroke-width="1.2" />
<rect x="844" y="1436.0" width="9" height="86" rx="4.5" fill="#0079C2" />
<text x="862.0" y="1461.0" font-size="18" font-weight="800" fill="#162235" text-anchor="start" >都営三田線</text>
<text x="862.0" y="1485.0" font-size="13" font-weight="650" fill="#657386" text-anchor="start" >水道橋 -&gt; 内幸町</text>
<text x="862.0" y="1502.0" font-size="13" font-weight="650" fill="#657386" text-anchor="start" >07:25 - 07:34</text>
<line x1="676" y1="1542.0" x2="676" y2="1556.0" stroke="#0079C2" stroke-width="10" stroke-linecap="round" />
<line x1="676" y1="1542.0" x2="676" y2="1556.0" stroke="#ffffff" stroke-opacity="0.62" stroke-width="3" stroke-linecap="round" />
<circle cx="676" cy="1542.0" r="7" fill="#0079C2" stroke="#ffffff" stroke-width="3" />
<circle cx="676" cy="1556.0" r="7" fill="#0079C2" stroke="#ffffff" stroke-width="3" />
<line x1="844" y1="1549.0" x2="676" y2="1549.0" stroke="#6bb1dc" stroke-width="2" stroke-dasharray="4 5" />
<rect x="844" y="1506.0" width="354" height="86" rx="8" fill="#dbecf6" stroke="#066ba9" stroke-width="1.2" />
<rect x="844" y="1506.0" width="9" height="86" rx="4.5" fill="#0079C2" />
<text x="862.0" y="1531.0" font-size="18" font-weight="800" fill="#162235" text-anchor="start" >都営三田線</text>
<text x="862.0" y="1555.0" font-size="13" font-weight="650" fill="#657386" text-anchor="start" >内幸町 -&gt; 御成門</text>
<text x="862.0" y="1572.0" font-size="13" font-weight="650" fill="#657386" text-anchor="start" >07:34 - 07:35</text>
<line x1="676" y1="1570.0" x2="676" y2="1654.0" stroke="#0079C2" stroke-width="10" stroke-linecap="round" />
<line x1="676" y1="1570.0" x2="676" y2="1654.0" stroke="#ffffff" stroke-opacity="0.62" stroke-width="3" stroke-linecap="round" />
<circle cx="676" cy="1570.0" r="7" fill="#0079C2" stroke="#ffffff" stroke-width="3" />
<circle cx="676" cy="1654.0" r="7" fill="#0079C2" stroke="#ffffff" stroke-width="3" />
<line x1="844" y1="1612.0" x2="676" y2="1612.0" stroke="#6bb1dc" stroke-width="2" stroke-dasharray="4 5" />
<rect x="844" y="1569.0" width="354" height="86" rx="8" fill="#dbecf6" stroke="#066ba9" stroke-width="1.2" />
<rect x="844" y="1569.0" width="9" height="86" rx="4.5" fill="#0079C2" />
<text x="862.0" y="1594.0" font-size="18" font-weight="800" fill="#162235" text-anchor="start" >都営三田線</text>
<text x="862.0" y="1618.0" font-size="13" font-weight="650" fill="#657386" text-anchor="start" >御成門 -&gt; 白金高輪</text>
<text x="862.0" y="1635.0" font-size="13" font-weight="650" fill="#657386" text-anchor="start" >07:36 - 07:42</text>
<line x1="676" y1="1668.0" x2="676" y2="1696.0" stroke="#0079C2" stroke-width="10" stroke-linecap="round" />
<line x1="676" y1="1668.0" x2="676" y2="1696.0" stroke="#ffffff" stroke-opacity="0.62" stroke-width="3" stroke-linecap="round" />
<circle cx="676" cy="1668.0" r="7" fill="#0079C2" stroke="#ffffff" stroke-width="3" />
<circle cx="676" cy="1696.0" r="7" fill="#0079C2" stroke="#ffffff" stroke-width="3" />
<line x1="844" y1="1682.0" x2="676" y2="1682.0" stroke="#6bb1dc" stroke-width="2" stroke-dasharray="4 5" />
<rect x="844" y="1639.0" width="354" height="86" rx="8" fill="#dbecf6" stroke="#066ba9" stroke-width="1.2" />
<rect x="844" y="1639.0" width="9" height="86" rx="4.5" fill="#0079C2" />
<text x="862.0" y="1664.0" font-size="18" font-weight="800" fill="#162235" text-anchor="start" >都営三田線</text>
<text x="862.0" y="1688.0" font-size="13" font-weight="650" fill="#657386" text-anchor="start" >白金高輪 -&gt; 白金台</text>
<text x="862.0" y="1705.0" font-size="13" font-weight="650" fill="#657386" text-anchor="start" >07:43 - 07:45</text>
<line x1="676" y1="1696.0" x2="676" y2="1724.0" stroke="#0079C2" stroke-width="10" stroke-linecap="round" />
<line x1="676" y1="1696.0" x2="676" y2="1724.0" stroke="#ffffff" stroke-opacity="0.62" stroke-width="3" stroke-linecap="round" />
<circle cx="676" cy="1696.0" r="7" fill="#0079C2" stroke="#ffffff" stroke-width="3" />
<circle cx="676" cy="1724.0" r="7" fill="#0079C2" stroke="#ffffff" stroke-width="3" />
<line x1="844" y1="1710.0" x2="676" y2="1710.0" stroke="#6bb1dc" stroke-width="2" stroke-dasharray="4 5" />
<rect x="844" y="1667.0" width="354" height="86" rx="8" fill="#dbecf6" stroke="#066ba9" stroke-width="1.2" />
<rect x="844" y="1667.0" width="9" height="86" rx="4.5" fill="#0079C2" />
<text x="862.0" y="1692.0" font-size="18" font-weight="800" fill="#162235" text-anchor="start" >都営三田線</text>
<text x="862.0" y="1716.0" font-size="13" font-weight="650" fill="#657386" text-anchor="start" >白金台 -&gt; 目黒</text>
<text x="862.0" y="1733.0" font-size="13" font-weight="650" fill="#657386" text-anchor="start" >07:45 - 07:47</text>
<line x1="676" y1="1724.0" x2="676" y2="1850.0" stroke="#00ADA9" stroke-width="10" stroke-linecap="round" />
<line x1="676" y1="1724.0" x2="676" y2="1850.0" stroke="#ffffff" stroke-opacity="0.62" stroke-width="3" stroke-linecap="round" />
<circle cx="676" cy="1724.0" r="7" fill="#00ADA9" stroke="#ffffff" stroke-width="3" />
<circle cx="676" cy="1850.0" r="7" fill="#00ADA9" stroke="#ffffff" stroke-width="3" />
<line x1="844" y1="1787.0" x2="676" y2="1787.0" stroke="#6bcfcd" stroke-width="2" stroke-dasharray="4 5" />
<rect x="844" y="1744.0" width="354" height="86" rx="8" fill="#dbf4f3" stroke="#069594" stroke-width="1.2" />
<rect x="844" y="1744.0" width="9" height="86" rx="4.5" fill="#00ADA9" />
<text x="862.0" y="1769.0" font-size="18" font-weight="800" fill="#162235" text-anchor="start" >南北線</text>
<text x="862.0" y="1793.0" font-size="13" font-weight="650" fill="#657386" text-anchor="start" >目黒 -&gt; 六本木一丁目</text>
<text x="862.0" y="1810.0" font-size="13" font-weight="650" fill="#657386" text-anchor="start" >07:47 - 07:56</text>
<line x1="676" y1="1850.0" x2="676" y2="1878.0" stroke="#00ADA9" stroke-width="10" stroke-linecap="round" />
<line x1="676" y1="1850.0" x2="676" y2="1878.0" stroke="#ffffff" stroke-opacity="0.62" stroke-width="3" stroke-linecap="round" />
<circle cx="676" cy="1850.0" r="7" fill="#00ADA9" stroke="#ffffff" stroke-width="3" />
<circle cx="676" cy="1878.0" r="7" fill="#00ADA9" stroke="#ffffff" stroke-width="3" />
<line x1="844" y1="1864.0" x2="676" y2="1864.0" stroke="#6bcfcd" stroke-width="2" stroke-dasharray="4 5" />
<rect x="844" y="1821.0" width="354" height="86" rx="8" fill="#dbf4f3" stroke="#069594" stroke-width="1.2" />
<rect x="844" y="1821.0" width="9" height="86" rx="4.5" fill="#00ADA9" />
<text x="862.0" y="1846.0" font-size="18" font-weight="800" fill="#162235" text-anchor="start" >南北線</text>
<text x="862.0" y="1870.0" font-size="13" font-weight="650" fill="#657386" text-anchor="start" >六本木一丁目 -&gt; 麻布十番</text>
<text x="862.0" y="1887.0" font-size="13" font-weight="650" fill="#657386" text-anchor="start" >07:56 - 07:58</text>
</g>
<g>
<line x1="594" y1="226.0" x2="604" y2="226.0" stroke="#63a6a1" stroke-width="1.6" />
<circle cx="604" cy="226.0" r="4.8" fill="#0f766e" stroke="#ffffff" stroke-width="2" />
<rect x="462" y="203.0" width="132" height="46" rx="8" fill="#e7f1f0" stroke="#0f6562" />
<text x="582.0" y="222.0" font-size="11" font-weight="900" fill="#0f766e" text-anchor="end" >06:00</text>
<text x="582.0" y="238.0" font-size="12" font-weight="800" fill="#182335" text-anchor="end" >Start 渋谷</text>
<line x1="594" y1="280.0" x2="604" y2="240.0" stroke="#719af2" stroke-width="1.6" />
<circle cx="604" cy="240.0" r="4.8" fill="#2563eb" stroke="#ffffff" stroke-width="2" />
<rect x="462" y="257.0" width="132" height="46" rx="8" fill="#e9effd" stroke="#2155c8" />
<text x="582.0" y="276.0" font-size="11" font-weight="900" fill="#2563eb" text-anchor="end" >06:01</text>
<text x="582.0" y="292.0" font-size="12" font-weight="800" fill="#182335" text-anchor="end" >Board 渋谷</text>
<line x1="594" y1="380.0" x2="604" y2="380.0" stroke="#e873a7" stroke-width="1.6" />
<circle cx="604" cy="380.0" r="4.8" fill="#db2777" stroke="#ffffff" stroke-width="2" />
<rect x="462" y="357.0" width="132" height="46" rx="8" fill="#fbe9f1" stroke="#b62469" />
<text x="582.0" y="376.0" font-size="11" font-weight="900" fill="#db2777" text-anchor="end" >06:11</text>
<text x="582.0" y="392.0" font-size="12" font-weight="800" fill="#182335" text-anchor="end" >Transfer 桜新町</text>
<line x1="594" y1="534.0" x2="604" y2="534.0" stroke="#e873a7" stroke-width="1.6" />
<circle cx="604" cy="534.0" r="4.8" fill="#db2777" stroke="#ffffff" stroke-width="2" />
<rect x="462" y="511.0" width="132" height="46" rx="8" fill="#fbe9f1" stroke="#b62469" />
<text x="582.0" y="530.0" font-size="11" font-weight="900" fill="#db2777" text-anchor="end" >06:22</text>
<text x="582.0" y="546.0" font-size="12" font-weight="800" fill="#182335" text-anchor="end" >Transfer 梶が谷</text>
<line x1="594" y1="590.0" x2="604" y2="590.0" stroke="#e873a7" stroke-width="1.6" />
<circle cx="604" cy="590.0" r="4.8" fill="#db2777" stroke="#ffffff" stroke-width="2" />
<rect x="462" y="567.0" width="132" height="46" rx="8" fill="#fbe9f1" stroke="#b62469" />
<text x="582.0" y="586.0" font-size="11" font-weight="900" fill="#db2777" text-anchor="end" >06:26</text>
<text x="582.0" y="602.0" font-size="12" font-weight="800" fill="#182335" text-anchor="end" >Transfer 宮前平</text>
<line x1="594" y1="702.0" x2="604" y2="702.0" stroke="#e873a7" stroke-width="1.6" />
<circle cx="604" cy="702.0" r="4.8" fill="#db2777" stroke="#ffffff" stroke-width="2" />
<rect x="462" y="679.0" width="132" height="46" rx="8" fill="#fbe9f1" stroke="#b62469" />
<text x="582.0" y="698.0" font-size="11" font-weight="900" fill="#db2777" text-anchor="end" >06:34</text>
<text x="582.0" y="714.0" font-size="12" font-weight="800" fill="#182335" text-anchor="end" >Transfer 江田</text>
<line x1="594" y1="756.0" x2="604" y2="716.0" stroke="#e873a7" stroke-width="1.6" />
<circle cx="604" cy="716.0" r="4.8" fill="#db2777" stroke="#ffffff" stroke-width="2" />
<rect x="462" y="733.0" width="132" height="46" rx="8" fill="#fbe9f1" stroke="#b62469" />
<text x="582.0" y="752.0" font-size="11" font-weight="900" fill="#db2777" text-anchor="end" >06:35</text>
<text x="582.0" y="768.0" font-size="12" font-weight="800" fill="#182335" text-anchor="end" >Transfer 市が尾</text>
<line x1="594" y1="810.0" x2="604" y2="800.0" stroke="#e873a7" stroke-width="1.6" />
<circle cx="604" cy="800.0" r="4.8" fill="#db2777" stroke="#ffffff" stroke-width="2" />
<rect x="462" y="787.0" width="132" height="46" rx="8" fill="#fbe9f1" stroke="#b62469" />
<text x="582.0" y="806.0" font-size="11" font-weight="900" fill="#db2777" text-anchor="end" >06:41</text>
<text x="582.0" y="822.0" font-size="12" font-weight="800" fill="#182335" text-anchor="end" >Transfer 田奈</text>
<line x1="594" y1="940.0" x2="604" y2="940.0" stroke="#e873a7" stroke-width="1.6" />
<circle cx="604" cy="940.0" r="4.8" fill="#db2777" stroke="#ffffff" stroke-width="2" />
<rect x="462" y="917.0" width="132" height="46" rx="8" fill="#fbe9f1" stroke="#b62469" />
<text x="582.0" y="936.0" font-size="11" font-weight="900" fill="#db2777" text-anchor="end" >06:51</text>
<text x="582.0" y="952.0" font-size="12" font-weight="800" fill="#182335" text-anchor="end" >Transfer つきみ野</text>
<line x1="594" y1="994.0" x2="604" y2="982.0" stroke="#e873a7" stroke-width="1.6" />
<circle cx="604" cy="982.0" r="4.8" fill="#db2777" stroke="#ffffff" stroke-width="2" />
<rect x="462" y="971.0" width="132" height="46" rx="8" fill="#fbe9f1" stroke="#b62469" />
<text x="582.0" y="990.0" font-size="11" font-weight="900" fill="#db2777" text-anchor="end" >06:54</text>
<text x="582.0" y="1006.0" font-size="12" font-weight="800" fill="#182335" text-anchor="end" >Transfer 中央林間</text>
<line x1="594" y1="1164.0" x2="604" y2="1164.0" stroke="#e873a7" stroke-width="1.6" />
<circle cx="604" cy="1164.0" r="4.8" fill="#db2777" stroke="#ffffff" stroke-width="2" />
<rect x="462" y="1141.0" width="132" height="46" rx="8" fill="#fbe9f1" stroke="#b62469" />
<text x="582.0" y="1160.0" font-size="11" font-weight="900" fill="#db2777" text-anchor="end" >07:07</text>
<text x="582.0" y="1176.0" font-size="12" font-weight="800" fill="#182335" text-anchor="end" >Transfer 湘南台</text>
<line x1="594" y1="1290.0" x2="604" y2="1290.0" stroke="#aa7ff3" stroke-width="1.6" />
<circle cx="604" cy="1290.0" r="4.8" fill="#7c3aed" stroke="#ffffff" stroke-width="2" />
<rect x="462" y="1267.0" width="132" height="46" rx="8" fill="#f2ebfd" stroke="#6834ca" />
<text x="582.0" y="1286.0" font-size="11" font-weight="900" fill="#7c3aed" text-anchor="end" >07:16</text>
<text x="582.0" y="1302.0" font-size="12" font-weight="800" fill="#182335" text-anchor="end" >Alight 藤沢</text>
<line x1="694" y1="226.0" x2="676" y2="226.0" stroke="#63a6a1" stroke-width="1.6" />
<circle cx="676" cy="226.0" r="4.8" fill="#0f766e" stroke="#ffffff" stroke-width="2" />
<rect x="694" y="203.0" width="132" height="46" rx="8" fill="#e7f1f0" stroke="#0f6562" />
<text x="706.0" y="222.0" font-size="11" font-weight="900" fill="#0f766e" text-anchor="start" >06:00</text>
<text x="706.0" y="238.0" font-size="12" font-weight="800" fill="#182335" text-anchor="start" >Start 品川</text>
<line x1="694" y1="1080.0" x2="676" y2="1080.0" stroke="#719af2" stroke-width="1.6" />
<circle cx="676" cy="1080.0" r="4.8" fill="#2563eb" stroke="#ffffff" stroke-width="2" />
<rect x="694" y="1057.0" width="132" height="46" rx="8" fill="#e9effd" stroke="#2155c8" />
<text x="706.0" y="1076.0" font-size="11" font-weight="900" fill="#2563eb" text-anchor="start" >07:01</text>
<text x="706.0" y="1092.0" font-size="12" font-weight="800" fill="#182335" text-anchor="start" >Board 品川</text>
<line x1="694" y1="1178.0" x2="676" y2="1178.0" stroke="#e873a7" stroke-width="1.6" />
<circle cx="676" cy="1178.0" r="4.8" fill="#db2777" stroke="#ffffff" stroke-width="2" />
<rect x="694" y="1155.0" width="132" height="46" rx="8" fill="#fbe9f1" stroke="#b62469" />
<text x="706.0" y="1174.0" font-size="11" font-weight="900" fill="#db2777" text-anchor="start" >07:08</text>
<text x="706.0" y="1190.0" font-size="12" font-weight="800" fill="#182335" text-anchor="start" >Transfer 浜松町</text>
<line x1="694" y1="1332.0" x2="676" y2="1332.0" stroke="#aa7ff3" stroke-width="1.6" />
<circle cx="676" cy="1332.0" r="4.8" fill="#7c3aed" stroke="#ffffff" stroke-width="2" />
<rect x="694" y="1309.0" width="132" height="46" rx="8" fill="#f2ebfd" stroke="#6834ca" />
<text x="706.0" y="1328.0" font-size="11" font-weight="900" fill="#7c3aed" text-anchor="start" >07:19</text>
<text x="706.0" y="1344.0" font-size="12" font-weight="800" fill="#182335" text-anchor="start" >Alight 秋葉原</text>
<line x1="694" y1="1386.0" x2="676" y2="1346.0" stroke="#719af2" stroke-width="1.6" />
<circle cx="676" cy="1346.0" r="4.8" fill="#2563eb" stroke="#ffffff" stroke-width="2" />
<rect x="694" y="1363.0" width="132" height="46" rx="8" fill="#e9effd" stroke="#2155c8" />
<text x="706.0" y="1382.0" font-size="11" font-weight="900" fill="#2563eb" text-anchor="start" >07:20</text>
<text x="706.0" y="1398.0" font-size="12" font-weight="800" fill="#182335" text-anchor="start" >Board 秋葉原</text>
<line x1="694" y1="1440.0" x2="676" y2="1416.0" stroke="#e873a7" stroke-width="1.6" />
<circle cx="676" cy="1416.0" r="4.8" fill="#db2777" stroke="#ffffff" stroke-width="2" />
<rect x="694" y="1417.0" width="132" height="46" rx="8" fill="#fbe9f1" stroke="#b62469" />
<text x="706.0" y="1436.0" font-size="11" font-weight="900" fill="#db2777" text-anchor="start" >07:25</text>
<text x="706.0" y="1452.0" font-size="12" font-weight="800" fill="#182335" text-anchor="start" >Transfer 水道橋</text>
<line x1="694" y1="1542.0" x2="676" y2="1542.0" stroke="#e873a7" stroke-width="1.6" />
<circle cx="676" cy="1542.0" r="4.8" fill="#db2777" stroke="#ffffff" stroke-width="2" />
<rect x="694" y="1519.0" width="132" height="46" rx="8" fill="#fbe9f1" stroke="#b62469" />
<text x="706.0" y="1538.0" font-size="11" font-weight="900" fill="#db2777" text-anchor="start" >07:34</text>
<text x="706.0" y="1554.0" font-size="12" font-weight="800" fill="#182335" text-anchor="start" >Transfer 内幸町</text>
<line x1="694" y1="1596.0" x2="676" y2="1556.0" stroke="#aa7ff3" stroke-width="1.6" />
<circle cx="676" cy="1556.0" r="4.8" fill="#7c3aed" stroke="#ffffff" stroke-width="2" />
<rect x="694" y="1573.0" width="132" height="46" rx="8" fill="#f2ebfd" stroke="#6834ca" />
<text x="706.0" y="1592.0" font-size="11" font-weight="900" fill="#7c3aed" text-anchor="start" >07:35</text>
<text x="706.0" y="1608.0" font-size="12" font-weight="800" fill="#182335" text-anchor="start" >Alight 御成門</text>
<line x1="694" y1="1650.0" x2="676" y2="1570.0" stroke="#719af2" stroke-width="1.6" />
<circle cx="676" cy="1570.0" r="4.8" fill="#2563eb" stroke="#ffffff" stroke-width="2" />
<rect x="694" y="1627.0" width="132" height="46" rx="8" fill="#e9effd" stroke="#2155c8" />
<text x="706.0" y="1646.0" font-size="11" font-weight="900" fill="#2563eb" text-anchor="start" >07:36</text>
<text x="706.0" y="1662.0" font-size="12" font-weight="800" fill="#182335" text-anchor="start" >Board 御成門</text>
<line x1="694" y1="1704.0" x2="676" y2="1654.0" stroke="#aa7ff3" stroke-width="1.6" />
<circle cx="676" cy="1654.0" r="4.8" fill="#7c3aed" stroke="#ffffff" stroke-width="2" />
<rect x="694" y="1681.0" width="132" height="46" rx="8" fill="#f2ebfd" stroke="#6834ca" />
<text x="706.0" y="1700.0" font-size="11" font-weight="900" fill="#7c3aed" text-anchor="start" >07:42</text>
<text x="706.0" y="1716.0" font-size="12" font-weight="800" fill="#182335" text-anchor="start" >Alight 白金高輪</text>
<line x1="694" y1="1758.0" x2="676" y2="1668.0" stroke="#719af2" stroke-width="1.6" />
<circle cx="676" cy="1668.0" r="4.8" fill="#2563eb" stroke="#ffffff" stroke-width="2" />
<rect x="694" y="1735.0" width="132" height="46" rx="8" fill="#e9effd" stroke="#2155c8" />
<text x="706.0" y="1754.0" font-size="11" font-weight="900" fill="#2563eb" text-anchor="start" >07:43</text>
<text x="706.0" y="1770.0" font-size="12" font-weight="800" fill="#182335" text-anchor="start" >Board 白金高輪</text>
<line x1="694" y1="1812.0" x2="676" y2="1696.0" stroke="#e873a7" stroke-width="1.6" />
<circle cx="676" cy="1696.0" r="4.8" fill="#db2777" stroke="#ffffff" stroke-width="2" />
<rect x="694" y="1789.0" width="132" height="46" rx="8" fill="#fbe9f1" stroke="#b62469" />
<text x="706.0" y="1808.0" font-size="11" font-weight="900" fill="#db2777" text-anchor="start" >07:45</text>
<text x="706.0" y="1824.0" font-size="12" font-weight="800" fill="#182335" text-anchor="start" >Transfer 白金台</text>
<line x1="694" y1="1866.0" x2="676" y2="1724.0" stroke="#e873a7" stroke-width="1.6" />
<circle cx="676" cy="1724.0" r="4.8" fill="#db2777" stroke="#ffffff" stroke-width="2" />
<rect x="694" y="1843.0" width="132" height="46" rx="8" fill="#fbe9f1" stroke="#b62469" />
<text x="706.0" y="1862.0" font-size="11" font-weight="900" fill="#db2777" text-anchor="start" >07:47</text>
<text x="706.0" y="1878.0" font-size="12" font-weight="800" fill="#182335" text-anchor="start" >Transfer 目黒</text>
<line x1="694" y1="1920.0" x2="676" y2="1850.0" stroke="#e873a7" stroke-width="1.6" />
<circle cx="676" cy="1850.0" r="4.8" fill="#db2777" stroke="#ffffff" stroke-width="2" />
<rect x="694" y="1897.0" width="132" height="46" rx="8" fill="#fbe9f1" stroke="#b62469" />
<text x="706.0" y="1916.0" font-size="11" font-weight="900" fill="#db2777" text-anchor="start" >07:56</text>
<text x="706.0" y="1932.0" font-size="12" font-weight="800" fill="#182335" text-anchor="start" >Transfer 六本木一丁目</text>
<line x1="694" y1="1974.0" x2="676" y2="1878.0" stroke="#aa7ff3" stroke-width="1.6" />
<circle cx="676" cy="1878.0" r="4.8" fill="#7c3aed" stroke="#ffffff" stroke-width="2" />
<rect x="694" y="1951.0" width="132" height="46" rx="8" fill="#f2ebfd" stroke="#6834ca" />
<text x="706.0" y="1970.0" font-size="11" font-weight="900" fill="#7c3aed" text-anchor="start" >07:58</text>
<text x="706.0" y="1986.0" font-size="12" font-weight="800" fill="#182335" text-anchor="start" >Alight 麻布十番</text>
</g>
<text x="640.0" y="2112.0" font-size="12" font-weight="650" fill="#8a97a8" text-anchor="middle" >Generated from v3 public battle records</text>
</g></svg>
