<svg xmlns="http://www.w3.org/2000/svg" width="1280" height="1504" viewBox="0 0 1280 1504" role="img" aria-label="Battle timeline">
<defs>
<filter id="softShadow" x="-20%" y="-20%" width="140%" height="140%"><feDropShadow dx="0" dy="8" stdDeviation="10" flood-color="#64748b" flood-opacity="0.16"/></filter>
</defs>
<g font-family="Inter, ui-sans-serif, system-ui, -apple-system, BlinkMacSystemFont, Segoe UI, sans-serif">
<rect x="0" y="0" width="1280" height="100%" fill="#f5f7fb" />
<rect x="34" y="26" width="1212" height="96" rx="8" fill="#ffffff" stroke="#d8e0eb" />
<text x="64.0" y="66.0" font-size="26" font-weight="900" fill="#102033" text-anchor="start" >Game 1 · Room A1WUIT</text>
<text x="64.0" y="96.0" font-size="14" font-weight="750" fill="#667487" text-anchor="start" >Runner: 横須賀線 -&gt; 横須賀線 -&gt; 湘南新宿ライン -&gt; 湘南新宿ライン -&gt; 埼京線・川越線 -&gt; 東急田園都市線 -&gt; 東急田園都市線 -&gt; 東急田園都市線 -&gt; 東急田園都市線 -&gt; 東急田園都市線 · Hunter: 総武快速線 -&gt; 中央・総武線各駅停車 -&gt; 中央・総武線各駅停車 -&gt; 都営浅草線 -&gt; 都営浅草線 -&gt; 都営浅草線 -&gt; 都営浅草線 -&gt; 半蔵門線 -&gt; 京成押上線 -&gt; 京成押上線 · same_node at 東京 06:00 · ENDED</text>
<rect x="92" y="128" width="502" height="42" rx="8" fill="#fff1f2" stroke="#fecdd3" />
<text x="343.0" y="155.0" font-size="16" font-weight="950" fill="#be123c" text-anchor="middle" >RUNNER</text>
<rect x="686" y="128" width="502" height="42" rx="8" fill="#eff6ff" stroke="#bfdbfe" />
<text x="937.0" y="155.0" font-size="16" font-weight="950" fill="#1d4ed8" text-anchor="middle" >HUNTER</text>
<rect x="597" y="128" width="86" height="42" rx="8" fill="#f8fafc" stroke="#d8e0eb" />
<text x="640.0" y="155.0" font-size="15" font-weight="950" fill="#475569" text-anchor="middle" >TIME</text>
<rect x="34" y="1456.0" width="1212" height="1" fill="#dfe7f1" />
<g opacity="0.96">
<line x1="640" y1="156.0" x2="640" y2="1416.0" stroke="#b9c5d5" stroke-width="3" stroke-linecap="round" />
<line x1="616" y1="201.0" x2="664" y2="201.0" stroke="#d4dce8" stroke-width="1.2" />
<text x="640.0" y="205.0" font-size="12" font-weight="800" fill="#667487" text-anchor="middle" >06:00</text>
<line x1="626" y1="291.0" x2="654" y2="291.0" stroke="#d4dce8" stroke-width="1.2" />
<text x="640.0" y="295.0" font-size="10" font-weight="650" fill="#667487" text-anchor="middle" >06:10</text>
<line x1="626" y1="381.0" x2="654" y2="381.0" stroke="#d4dce8" stroke-width="1.2" />
<text x="640.0" y="385.0" font-size="10" font-weight="650" fill="#667487" text-anchor="middle" >06:20</text>
<line x1="626" y1="471.0" x2="654" y2="471.0" stroke="#d4dce8" stroke-width="1.2" />
<text x="640.0" y="475.0" font-size="10" font-weight="650" fill="#667487" text-anchor="middle" >06:30</text>
<line x1="626" y1="561.0" x2="654" y2="561.0" stroke="#d4dce8" stroke-width="1.2" />
<text x="640.0" y="565.0" font-size="10" font-weight="650" fill="#667487" text-anchor="middle" >06:40</text>
<line x1="626" y1="651.0" x2="654" y2="651.0" stroke="#d4dce8" stroke-width="1.2" />
<text x="640.0" y="655.0" font-size="10" font-weight="650" fill="#667487" text-anchor="middle" >06:50</text>
<line x1="616" y1="741.0" x2="664" y2="741.0" stroke="#d4dce8" stroke-width="1.2" />
<text x="640.0" y="745.0" font-size="12" font-weight="800" fill="#667487" text-anchor="middle" >07:00</text>
<line x1="626" y1="831.0" x2="654" y2="831.0" stroke="#d4dce8" stroke-width="1.2" />
<text x="640.0" y="835.0" font-size="10" font-weight="650" fill="#667487" text-anchor="middle" >07:10</text>
<line x1="626" y1="921.0" x2="654" y2="921.0" stroke="#d4dce8" stroke-width="1.2" />
<text x="640.0" y="925.0" font-size="10" font-weight="650" fill="#667487" text-anchor="middle" >07:20</text>
<line x1="626" y1="1011.0" x2="654" y2="1011.0" stroke="#d4dce8" stroke-width="1.2" />
<text x="640.0" y="1015.0" font-size="10" font-weight="650" fill="#667487" text-anchor="middle" >07:30</text>
<line x1="626" y1="1101.0" x2="654" y2="1101.0" stroke="#d4dce8" stroke-width="1.2" />
<text x="640.0" y="1105.0" font-size="10" font-weight="650" fill="#667487" text-anchor="middle" >07:40</text>
<line x1="626" y1="1191.0" x2="654" y2="1191.0" stroke="#d4dce8" stroke-width="1.2" />
<text x="640.0" y="1195.0" font-size="10" font-weight="650" fill="#667487" text-anchor="middle" >07:50</text>
<line x1="616" y1="1281.0" x2="664" y2="1281.0" stroke="#d4dce8" stroke-width="1.2" />
<text x="640.0" y="1285.0" font-size="12" font-weight="800" fill="#667487" text-anchor="middle" >08:00</text>
<line x1="626" y1="1371.0" x2="654" y2="1371.0" stroke="#d4dce8" stroke-width="1.2" />
<text x="640.0" y="1375.0" font-size="10" font-weight="650" fill="#667487" text-anchor="middle" >08:10</text>
<line x1="72" y1="201.0" x2="1208" y2="201.0" stroke="#e7edf5" stroke-width="1" />
<rect x="609" y="188.0" width="62" height="26" rx="8" fill="#ffffff" stroke="#cfd8e5" />
<text x="640.0" y="205.0" font-size="12" font-weight="900" fill="#334155" text-anchor="middle" >06:00</text>
<line x1="72" y1="210.0" x2="1208" y2="210.0" stroke="#e7edf5" stroke-width="1" />
<rect x="609" y="197.0" width="62" height="26" rx="8" fill="#ffffff" stroke="#cfd8e5" />
<text x="640.0" y="214.0" font-size="12" font-weight="900" fill="#334155" text-anchor="middle" >06:01</text>
<line x1="72" y1="282.0" x2="1208" y2="282.0" stroke="#e7edf5" stroke-width="1" />
<rect x="609" y="269.0" width="62" height="26" rx="8" fill="#ffffff" stroke="#cfd8e5" />
<text x="640.0" y="286.0" font-size="12" font-weight="900" fill="#334155" text-anchor="middle" >06:09</text>
<line x1="72" y1="498.0" x2="1208" y2="498.0" stroke="#e7edf5" stroke-width="1" />
<rect x="609" y="485.0" width="62" height="26" rx="8" fill="#ffffff" stroke="#cfd8e5" />
<text x="640.0" y="502.0" font-size="12" font-weight="900" fill="#334155" text-anchor="middle" >06:33</text>
<line x1="72" y1="633.0" x2="1208" y2="633.0" stroke="#e7edf5" stroke-width="1" />
<rect x="609" y="620.0" width="62" height="26" rx="8" fill="#ffffff" stroke="#cfd8e5" />
<text x="640.0" y="637.0" font-size="12" font-weight="900" fill="#334155" text-anchor="middle" >06:48</text>
<line x1="72" y1="705.0" x2="1208" y2="705.0" stroke="#e7edf5" stroke-width="1" />
<rect x="609" y="692.0" width="62" height="26" rx="8" fill="#ffffff" stroke="#cfd8e5" />
<text x="640.0" y="709.0" font-size="12" font-weight="900" fill="#334155" text-anchor="middle" >06:56</text>
<line x1="72" y1="714.0" x2="1208" y2="714.0" stroke="#e7edf5" stroke-width="1" />
<rect x="609" y="701.0" width="62" height="26" rx="8" fill="#ffffff" stroke="#cfd8e5" />
<text x="640.0" y="718.0" font-size="12" font-weight="900" fill="#334155" text-anchor="middle" >06:57</text>
<line x1="72" y1="768.0" x2="1208" y2="768.0" stroke="#e7edf5" stroke-width="1" />
<rect x="609" y="755.0" width="62" height="26" rx="8" fill="#ffffff" stroke="#cfd8e5" />
<text x="640.0" y="772.0" font-size="12" font-weight="900" fill="#334155" text-anchor="middle" >07:03</text>
<line x1="72" y1="822.0" x2="1208" y2="822.0" stroke="#e7edf5" stroke-width="1" />
<rect x="609" y="809.0" width="62" height="26" rx="8" fill="#ffffff" stroke="#cfd8e5" />
<text x="640.0" y="826.0" font-size="12" font-weight="900" fill="#334155" text-anchor="middle" >07:09</text>
<line x1="72" y1="885.0" x2="1208" y2="885.0" stroke="#e7edf5" stroke-width="1" />
<rect x="609" y="872.0" width="62" height="26" rx="8" fill="#ffffff" stroke="#cfd8e5" />
<text x="640.0" y="889.0" font-size="12" font-weight="900" fill="#334155" text-anchor="middle" >07:16</text>
<line x1="72" y1="930.0" x2="1208" y2="930.0" stroke="#e7edf5" stroke-width="1" />
<rect x="609" y="917.0" width="62" height="26" rx="8" fill="#ffffff" stroke="#cfd8e5" />
<text x="640.0" y="934.0" font-size="12" font-weight="900" fill="#334155" text-anchor="middle" >07:21</text>
<line x1="72" y1="984.0" x2="1208" y2="984.0" stroke="#e7edf5" stroke-width="1" />
<rect x="609" y="971.0" width="62" height="26" rx="8" fill="#ffffff" stroke="#cfd8e5" />
<text x="640.0" y="988.0" font-size="12" font-weight="900" fill="#334155" text-anchor="middle" >07:27</text>
<line x1="72" y1="993.0" x2="1208" y2="993.0" stroke="#e7edf5" stroke-width="1" />
<rect x="609" y="980.0" width="62" height="26" rx="8" fill="#ffffff" stroke="#cfd8e5" />
<text x="640.0" y="997.0" font-size="12" font-weight="900" fill="#334155" text-anchor="middle" >07:28</text>
<line x1="72" y1="1002.0" x2="1208" y2="1002.0" stroke="#e7edf5" stroke-width="1" />
<rect x="609" y="989.0" width="62" height="26" rx="8" fill="#ffffff" stroke="#cfd8e5" />
<text x="640.0" y="1006.0" font-size="12" font-weight="900" fill="#334155" text-anchor="middle" >07:29</text>
<line x1="72" y1="1011.0" x2="1208" y2="1011.0" stroke="#e7edf5" stroke-width="1" />
<rect x="609" y="998.0" width="62" height="26" rx="8" fill="#ffffff" stroke="#cfd8e5" />
<text x="640.0" y="1015.0" font-size="12" font-weight="900" fill="#334155" text-anchor="middle" >07:30</text>
<line x1="72" y1="1029.0" x2="1208" y2="1029.0" stroke="#e7edf5" stroke-width="1" />
<rect x="609" y="1016.0" width="62" height="26" rx="8" fill="#ffffff" stroke="#cfd8e5" />
<text x="640.0" y="1033.0" font-size="12" font-weight="900" fill="#334155" text-anchor="middle" >07:32</text>
<line x1="72" y1="1038.0" x2="1208" y2="1038.0" stroke="#e7edf5" stroke-width="1" />
<rect x="609" y="1025.0" width="62" height="26" rx="8" fill="#ffffff" stroke="#cfd8e5" />
<text x="640.0" y="1042.0" font-size="12" font-weight="900" fill="#334155" text-anchor="middle" >07:33</text>
<line x1="72" y1="1065.0" x2="1208" y2="1065.0" stroke="#e7edf5" stroke-width="1" />
<rect x="609" y="1052.0" width="62" height="26" rx="8" fill="#ffffff" stroke="#cfd8e5" />
<text x="640.0" y="1069.0" font-size="12" font-weight="900" fill="#334155" text-anchor="middle" >07:36</text>
<line x1="72" y1="1092.0" x2="1208" y2="1092.0" stroke="#e7edf5" stroke-width="1" />
<rect x="609" y="1079.0" width="62" height="26" rx="8" fill="#ffffff" stroke="#cfd8e5" />
<text x="640.0" y="1096.0" font-size="12" font-weight="900" fill="#334155" text-anchor="middle" >07:39</text>
<line x1="72" y1="1146.0" x2="1208" y2="1146.0" stroke="#e7edf5" stroke-width="1" />
<rect x="609" y="1133.0" width="62" height="26" rx="8" fill="#ffffff" stroke="#cfd8e5" />
<text x="640.0" y="1150.0" font-size="12" font-weight="900" fill="#334155" text-anchor="middle" >07:45</text>
<line x1="72" y1="1155.0" x2="1208" y2="1155.0" stroke="#e7edf5" stroke-width="1" />
<rect x="609" y="1142.0" width="62" height="26" rx="8" fill="#ffffff" stroke="#cfd8e5" />
<text x="640.0" y="1159.0" font-size="12" font-weight="900" fill="#334155" text-anchor="middle" >07:46</text>
<line x1="72" y1="1164.0" x2="1208" y2="1164.0" stroke="#e7edf5" stroke-width="1" />
<rect x="609" y="1151.0" width="62" height="26" rx="8" fill="#ffffff" stroke="#cfd8e5" />
<text x="640.0" y="1168.0" font-size="12" font-weight="900" fill="#334155" text-anchor="middle" >07:47</text>
<line x1="72" y1="1173.0" x2="1208" y2="1173.0" stroke="#e7edf5" stroke-width="1" />
<rect x="609" y="1160.0" width="62" height="26" rx="8" fill="#ffffff" stroke="#cfd8e5" />
<text x="640.0" y="1177.0" font-size="12" font-weight="900" fill="#334155" text-anchor="middle" >07:48</text>
<line x1="72" y1="1218.0" x2="1208" y2="1218.0" stroke="#e7edf5" stroke-width="1" />
<rect x="609" y="1205.0" width="62" height="26" rx="8" fill="#ffffff" stroke="#cfd8e5" />
<text x="640.0" y="1222.0" font-size="12" font-weight="900" fill="#334155" text-anchor="middle" >07:53</text>
<line x1="72" y1="1227.0" x2="1208" y2="1227.0" stroke="#e7edf5" stroke-width="1" />
<rect x="609" y="1214.0" width="62" height="26" rx="8" fill="#ffffff" stroke="#cfd8e5" />
<text x="640.0" y="1231.0" font-size="12" font-weight="900" fill="#334155" text-anchor="middle" >07:54</text>
<line x1="72" y1="1245.0" x2="1208" y2="1245.0" stroke="#e7edf5" stroke-width="1" />
<rect x="609" y="1232.0" width="62" height="26" rx="8" fill="#ffffff" stroke="#cfd8e5" />
<text x="640.0" y="1249.0" font-size="12" font-weight="900" fill="#334155" text-anchor="middle" >07:56</text>
<line x1="72" y1="1317.0" x2="1208" y2="1317.0" stroke="#e7edf5" stroke-width="1" />
<rect x="609" y="1304.0" width="62" height="26" rx="8" fill="#ffffff" stroke="#cfd8e5" />
<text x="640.0" y="1321.0" font-size="12" font-weight="900" fill="#334155" text-anchor="middle" >08:04</text>
</g>
<g filter="url(#softShadow)">
<line x1="604" y1="210.0" x2="604" y2="282.0" stroke="#2F4CA0" stroke-width="10" stroke-linecap="round" />
<line x1="604" y1="210.0" x2="604" y2="282.0" stroke="#ffffff" stroke-opacity="0.62" stroke-width="3" stroke-linecap="round" />
<circle cx="604" cy="210.0" r="7" fill="#2F4CA0" stroke="#ffffff" stroke-width="3" />
<circle cx="604" cy="282.0" r="7" fill="#2F4CA0" stroke="#ffffff" stroke-width="3" />
<line x1="446" y1="246.0" x2="604" y2="246.0" stroke="#8697c8" stroke-width="2" stroke-dasharray="4 5" />
<rect x="92" y="203.0" width="354" height="86" rx="8" fill="#e2e6f2" stroke="#2c468d" stroke-width="1.2" />
<rect x="437" y="203.0" width="9" height="86" rx="4.5" fill="#2F4CA0" />
<text x="428.0" y="228.0" font-size="18" font-weight="800" fill="#162235" text-anchor="end" >横須賀線</text>
<text x="428.0" y="252.0" font-size="13" font-weight="650" fill="#657386" text-anchor="end" >東京 -&gt; 品川</text>
<text x="428.0" y="269.0" font-size="13" font-weight="650" fill="#657386" text-anchor="end" >06:01 - 06:09</text>
<line x1="604" y1="282.0" x2="604" y2="498.0" stroke="#2F4CA0" stroke-width="10" stroke-linecap="round" />
<line x1="604" y1="282.0" x2="604" y2="498.0" stroke="#ffffff" stroke-opacity="0.62" stroke-width="3" stroke-linecap="round" />
<circle cx="604" cy="282.0" r="7" fill="#2F4CA0" stroke="#ffffff" stroke-width="3" />
<circle cx="604" cy="498.0" r="7" fill="#2F4CA0" stroke="#ffffff" stroke-width="3" />
<line x1="446" y1="390.0" x2="604" y2="390.0" stroke="#8697c8" stroke-width="2" stroke-dasharray="4 5" />
<rect x="92" y="347.0" width="354" height="86" rx="8" fill="#e2e6f2" stroke="#2c468d" stroke-width="1.2" />
<rect x="437" y="347.0" width="9" height="86" rx="4.5" fill="#2F4CA0" />
<text x="428.0" y="372.0" font-size="18" font-weight="800" fill="#162235" text-anchor="end" >横須賀線</text>
<text x="428.0" y="396.0" font-size="13" font-weight="650" fill="#657386" text-anchor="end" >品川 -&gt; 横浜</text>
<text x="428.0" y="413.0" font-size="13" font-weight="650" fill="#657386" text-anchor="end" >06:09 - 06:33</text>
<line x1="604" y1="633.0" x2="604" y2="705.0" stroke="#E21F26" stroke-width="10" stroke-linecap="round" />
<line x1="604" y1="633.0" x2="604" y2="705.0" stroke="#ffffff" stroke-opacity="0.62" stroke-width="3" stroke-linecap="round" />
<circle cx="604" cy="633.0" r="7" fill="#E21F26" stroke="#ffffff" stroke-width="3" />
<circle cx="604" cy="705.0" r="7" fill="#E21F26" stroke="#ffffff" stroke-width="3" />
<line x1="446" y1="669.0" x2="604" y2="669.0" stroke="#ee7d81" stroke-width="2" stroke-dasharray="4 5" />
<rect x="92" y="626.0" width="354" height="86" rx="8" fill="#fbe0e1" stroke="#bf2129" stroke-width="1.2" />
<rect x="437" y="626.0" width="9" height="86" rx="4.5" fill="#E21F26" />
<text x="428.0" y="651.0" font-size="18" font-weight="800" fill="#162235" text-anchor="end" >湘南新宿ライン</text>
<text x="428.0" y="675.0" font-size="13" font-weight="650" fill="#657386" text-anchor="end" >横浜 -&gt; 新川崎</text>
<text x="428.0" y="692.0" font-size="13" font-weight="650" fill="#657386" text-anchor="end" >06:48 - 06:56</text>
<line x1="604" y1="714.0" x2="604" y2="822.0" stroke="#E21F26" stroke-width="10" stroke-linecap="round" />
<line x1="604" y1="714.0" x2="604" y2="822.0" stroke="#ffffff" stroke-opacity="0.62" stroke-width="3" stroke-linecap="round" />
<circle cx="604" cy="714.0" r="7" fill="#E21F26" stroke="#ffffff" stroke-width="3" />
<circle cx="604" cy="822.0" r="7" fill="#E21F26" stroke="#ffffff" stroke-width="3" />
<line x1="446" y1="768.0" x2="604" y2="768.0" stroke="#ee7d81" stroke-width="2" stroke-dasharray="4 5" />
<rect x="92" y="725.0" width="354" height="86" rx="8" fill="#fbe0e1" stroke="#bf2129" stroke-width="1.2" />
<rect x="437" y="725.0" width="9" height="86" rx="4.5" fill="#E21F26" />
<text x="428.0" y="750.0" font-size="18" font-weight="800" fill="#162235" text-anchor="end" >湘南新宿ライン</text>
<text x="428.0" y="774.0" font-size="13" font-weight="650" fill="#657386" text-anchor="end" >新川崎 -&gt; 大崎</text>
<text x="428.0" y="791.0" font-size="13" font-weight="650" fill="#657386" text-anchor="end" >06:57 - 07:09</text>
<line x1="604" y1="930.0" x2="604" y2="984.0" stroke="#0099CC" stroke-width="10" stroke-linecap="round" />
<line x1="604" y1="930.0" x2="604" y2="984.0" stroke="#ffffff" stroke-opacity="0.62" stroke-width="3" stroke-linecap="round" />
<circle cx="604" cy="930.0" r="7" fill="#0099CC" stroke="#ffffff" stroke-width="3" />
<circle cx="604" cy="984.0" r="7" fill="#0099CC" stroke="#ffffff" stroke-width="3" />
<line x1="446" y1="957.0" x2="604" y2="957.0" stroke="#6bc4e1" stroke-width="2" stroke-dasharray="4 5" />
<rect x="92" y="914.0" width="354" height="86" rx="8" fill="#dbf1f8" stroke="#0685b1" stroke-width="1.2" />
<rect x="437" y="914.0" width="9" height="86" rx="4.5" fill="#0099CC" />
<text x="428.0" y="939.0" font-size="18" font-weight="800" fill="#162235" text-anchor="end" >埼京線・川越線</text>
<text x="428.0" y="963.0" font-size="13" font-weight="650" fill="#657386" text-anchor="end" >大崎 -&gt; 渋谷</text>
<text x="428.0" y="980.0" font-size="13" font-weight="650" fill="#657386" text-anchor="end" >07:21 - 07:27</text>
<line x1="604" y1="1002.0" x2="604" y2="1092.0" stroke="#D9485F" stroke-width="10" stroke-linecap="round" />
<line x1="604" y1="1002.0" x2="604" y2="1092.0" stroke="#ffffff" stroke-opacity="0.62" stroke-width="3" stroke-linecap="round" />
<circle cx="604" cy="1002.0" r="7" fill="#D9485F" stroke="#ffffff" stroke-width="3" />
<circle cx="604" cy="1092.0" r="7" fill="#D9485F" stroke="#ffffff" stroke-width="3" />
<line x1="446" y1="1047.0" x2="604" y2="1047.0" stroke="#e995a2" stroke-width="2" stroke-dasharray="4 5" />
<rect x="92" y="1004.0" width="354" height="86" rx="8" fill="#fae5e9" stroke="#b84258" stroke-width="1.2" />
<rect x="437" y="1004.0" width="9" height="86" rx="4.5" fill="#D9485F" />
<text x="428.0" y="1029.0" font-size="18" font-weight="800" fill="#162235" text-anchor="end" >東急田園都市線</text>
<text x="428.0" y="1053.0" font-size="13" font-weight="650" fill="#657386" text-anchor="end" >渋谷 -&gt; 桜新町</text>
<text x="428.0" y="1070.0" font-size="13" font-weight="650" fill="#657386" text-anchor="end" >07:29 - 07:39</text>
<line x1="604" y1="1092.0" x2="604" y2="1164.0" stroke="#D9485F" stroke-width="10" stroke-linecap="round" />
<line x1="604" y1="1092.0" x2="604" y2="1164.0" stroke="#ffffff" stroke-opacity="0.62" stroke-width="3" stroke-linecap="round" />
<circle cx="604" cy="1092.0" r="7" fill="#D9485F" stroke="#ffffff" stroke-width="3" />
<circle cx="604" cy="1164.0" r="7" fill="#D9485F" stroke="#ffffff" stroke-width="3" />
<line x1="446" y1="1128.0" x2="604" y2="1128.0" stroke="#e995a2" stroke-width="2" stroke-dasharray="4 5" />
<rect x="92" y="1085.0" width="354" height="86" rx="8" fill="#fae5e9" stroke="#b84258" stroke-width="1.2" />
<rect x="437" y="1085.0" width="9" height="86" rx="4.5" fill="#D9485F" />
<text x="428.0" y="1110.0" font-size="18" font-weight="800" fill="#162235" text-anchor="end" >東急田園都市線</text>
<text x="428.0" y="1134.0" font-size="13" font-weight="650" fill="#657386" text-anchor="end" >桜新町 -&gt; 高津</text>
<text x="428.0" y="1151.0" font-size="13" font-weight="650" fill="#657386" text-anchor="end" >07:39 - 07:47</text>
<line x1="604" y1="1164.0" x2="604" y2="1173.0" stroke="#D9485F" stroke-width="10" stroke-linecap="round" />
<line x1="604" y1="1164.0" x2="604" y2="1173.0" stroke="#ffffff" stroke-opacity="0.62" stroke-width="3" stroke-linecap="round" />
<circle cx="604" cy="1164.0" r="7" fill="#D9485F" stroke="#ffffff" stroke-width="3" />
<circle cx="604" cy="1173.0" r="7" fill="#D9485F" stroke="#ffffff" stroke-width="3" />
<line x1="446" y1="1168.5" x2="604" y2="1168.5" stroke="#e995a2" stroke-width="2" stroke-dasharray="4 5" />
<rect x="92" y="1125.5" width="354" height="86" rx="8" fill="#fae5e9" stroke="#b84258" stroke-width="1.2" />
<rect x="437" y="1125.5" width="9" height="86" rx="4.5" fill="#D9485F" />
<text x="428.0" y="1150.5" font-size="18" font-weight="800" fill="#162235" text-anchor="end" >東急田園都市線</text>
<text x="428.0" y="1174.5" font-size="13" font-weight="650" fill="#657386" text-anchor="end" >高津 -&gt; 二子新地</text>
<text x="428.0" y="1191.5" font-size="13" font-weight="650" fill="#657386" text-anchor="end" >07:47 - 07:48</text>
<line x1="604" y1="1173.0" x2="604" y2="1245.0" stroke="#D9485F" stroke-width="10" stroke-linecap="round" />
<line x1="604" y1="1173.0" x2="604" y2="1245.0" stroke="#ffffff" stroke-opacity="0.62" stroke-width="3" stroke-linecap="round" />
<circle cx="604" cy="1173.0" r="7" fill="#D9485F" stroke="#ffffff" stroke-width="3" />
<circle cx="604" cy="1245.0" r="7" fill="#D9485F" stroke="#ffffff" stroke-width="3" />
<line x1="446" y1="1209.0" x2="604" y2="1209.0" stroke="#e995a2" stroke-width="2" stroke-dasharray="4 5" />
<rect x="92" y="1166.0" width="354" height="86" rx="8" fill="#fae5e9" stroke="#b84258" stroke-width="1.2" />
<rect x="437" y="1166.0" width="9" height="86" rx="4.5" fill="#D9485F" />
<text x="428.0" y="1191.0" font-size="18" font-weight="800" fill="#162235" text-anchor="end" >東急田園都市線</text>
<text x="428.0" y="1215.0" font-size="13" font-weight="650" fill="#657386" text-anchor="end" >二子新地 -&gt; 桜新町</text>
<text x="428.0" y="1232.0" font-size="13" font-weight="650" fill="#657386" text-anchor="end" >07:48 - 07:56</text>
<line x1="604" y1="1245.0" x2="604" y2="1317.0" stroke="#D9485F" stroke-width="10" stroke-linecap="round" />
<line x1="604" y1="1245.0" x2="604" y2="1317.0" stroke="#ffffff" stroke-opacity="0.62" stroke-width="3" stroke-linecap="round" />
<circle cx="604" cy="1245.0" r="7" fill="#D9485F" stroke="#ffffff" stroke-width="3" />
<circle cx="604" cy="1317.0" r="7" fill="#D9485F" stroke="#ffffff" stroke-width="3" />
<line x1="446" y1="1281.0" x2="604" y2="1281.0" stroke="#e995a2" stroke-width="2" stroke-dasharray="4 5" />
<rect x="92" y="1238.0" width="354" height="86" rx="8" fill="#fae5e9" stroke="#b84258" stroke-width="1.2" />
<rect x="437" y="1238.0" width="9" height="86" rx="4.5" fill="#D9485F" />
<text x="428.0" y="1263.0" font-size="18" font-weight="800" fill="#162235" text-anchor="end" >東急田園都市線</text>
<text x="428.0" y="1287.0" font-size="13" font-weight="650" fill="#657386" text-anchor="end" >桜新町 -&gt; 池尻大橋</text>
<text x="428.0" y="1304.0" font-size="13" font-weight="650" fill="#657386" text-anchor="end" >07:56 - 08:04</text>
<line x1="676" y1="768.0" x2="676" y2="885.0" stroke="#2F4CA0" stroke-width="10" stroke-linecap="round" />
<line x1="676" y1="768.0" x2="676" y2="885.0" stroke="#ffffff" stroke-opacity="0.62" stroke-width="3" stroke-linecap="round" />
<circle cx="676" cy="768.0" r="7" fill="#2F4CA0" stroke="#ffffff" stroke-width="3" />
<circle cx="676" cy="885.0" r="7" fill="#2F4CA0" stroke="#ffffff" stroke-width="3" />
<line x1="844" y1="826.5" x2="676" y2="826.5" stroke="#8697c8" stroke-width="2" stroke-dasharray="4 5" />
<rect x="844" y="783.5" width="354" height="86" rx="8" fill="#e2e6f2" stroke="#2c468d" stroke-width="1.2" />
<rect x="844" y="783.5" width="9" height="86" rx="4.5" fill="#2F4CA0" />
<text x="862.0" y="808.5" font-size="18" font-weight="800" fill="#162235" text-anchor="start" >総武快速線</text>
<text x="862.0" y="832.5" font-size="13" font-weight="650" fill="#657386" text-anchor="start" >東京 -&gt; 新小岩</text>
<text x="862.0" y="849.5" font-size="13" font-weight="650" fill="#657386" text-anchor="start" >07:03 - 07:16</text>
<line x1="676" y1="885.0" x2="676" y2="993.0" stroke="#F4C300" stroke-width="10" stroke-linecap="round" />
<line x1="676" y1="885.0" x2="676" y2="993.0" stroke="#ffffff" stroke-opacity="0.62" stroke-width="3" stroke-linecap="round" />
<circle cx="676" cy="885.0" r="7" fill="#F4C300" stroke="#ffffff" stroke-width="3" />
<circle cx="676" cy="993.0" r="7" fill="#F4C300" stroke="#ffffff" stroke-width="3" />
<line x1="844" y1="939.0" x2="676" y2="939.0" stroke="#f9dc6b" stroke-width="2" stroke-dasharray="4 5" />
<rect x="844" y="896.0" width="354" height="86" rx="8" fill="#fdf7db" stroke="#cea70a" stroke-width="1.2" />
<rect x="844" y="896.0" width="9" height="86" rx="4.5" fill="#F4C300" />
<text x="862.0" y="921.0" font-size="18" font-weight="800" fill="#162235" text-anchor="start" >中央・総武線各駅停車</text>
<text x="862.0" y="945.0" font-size="13" font-weight="650" fill="#657386" text-anchor="start" >新小岩 -&gt; 両国</text>
<text x="862.0" y="962.0" font-size="13" font-weight="650" fill="#657386" text-anchor="start" >07:16 - 07:28</text>
<line x1="676" y1="993.0" x2="676" y2="1011.0" stroke="#F4C300" stroke-width="10" stroke-linecap="round" />
<line x1="676" y1="993.0" x2="676" y2="1011.0" stroke="#ffffff" stroke-opacity="0.62" stroke-width="3" stroke-linecap="round" />
<circle cx="676" cy="993.0" r="7" fill="#F4C300" stroke="#ffffff" stroke-width="3" />
<circle cx="676" cy="1011.0" r="7" fill="#F4C300" stroke="#ffffff" stroke-width="3" />
<line x1="844" y1="1002.0" x2="676" y2="1002.0" stroke="#f9dc6b" stroke-width="2" stroke-dasharray="4 5" />
<rect x="844" y="959.0" width="354" height="86" rx="8" fill="#fdf7db" stroke="#cea70a" stroke-width="1.2" />
<rect x="844" y="959.0" width="9" height="86" rx="4.5" fill="#F4C300" />
<text x="862.0" y="984.0" font-size="18" font-weight="800" fill="#162235" text-anchor="start" >中央・総武線各駅停車</text>
<text x="862.0" y="1008.0" font-size="13" font-weight="650" fill="#657386" text-anchor="start" >両国 -&gt; 浅草橋</text>
<text x="862.0" y="1025.0" font-size="13" font-weight="650" fill="#657386" text-anchor="start" >07:28 - 07:30</text>
<line x1="676" y1="1029.0" x2="676" y2="1038.0" stroke="#EC6E65" stroke-width="10" stroke-linecap="round" />
<line x1="676" y1="1029.0" x2="676" y2="1038.0" stroke="#ffffff" stroke-opacity="0.62" stroke-width="3" stroke-linecap="round" />
<circle cx="676" cy="1029.0" r="7" fill="#EC6E65" stroke="#ffffff" stroke-width="3" />
<circle cx="676" cy="1038.0" r="7" fill="#EC6E65" stroke="#ffffff" stroke-width="3" />
<line x1="844" y1="1033.5" x2="676" y2="1033.5" stroke="#f4aba6" stroke-width="2" stroke-dasharray="4 5" />
<rect x="844" y="990.5" width="354" height="86" rx="8" fill="#fcebe9" stroke="#c7625d" stroke-width="1.2" />
<rect x="844" y="990.5" width="9" height="86" rx="4.5" fill="#EC6E65" />
<text x="862.0" y="1015.5" font-size="18" font-weight="800" fill="#162235" text-anchor="start" >都営浅草線</text>
<text x="862.0" y="1039.5" font-size="13" font-weight="650" fill="#657386" text-anchor="start" >浅草橋 -&gt; 蔵前</text>
<text x="862.0" y="1056.5" font-size="13" font-weight="650" fill="#657386" text-anchor="start" >07:32 - 07:33</text>
<line x1="676" y1="1038.0" x2="676" y2="1065.0" stroke="#EC6E65" stroke-width="10" stroke-linecap="round" />
<line x1="676" y1="1038.0" x2="676" y2="1065.0" stroke="#ffffff" stroke-opacity="0.62" stroke-width="3" stroke-linecap="round" />
<circle cx="676" cy="1038.0" r="7" fill="#EC6E65" stroke="#ffffff" stroke-width="3" />
<circle cx="676" cy="1065.0" r="7" fill="#EC6E65" stroke="#ffffff" stroke-width="3" />
<line x1="844" y1="1051.5" x2="676" y2="1051.5" stroke="#f4aba6" stroke-width="2" stroke-dasharray="4 5" />
<rect x="844" y="1008.5" width="354" height="86" rx="8" fill="#fcebe9" stroke="#c7625d" stroke-width="1.2" />
<rect x="844" y="1008.5" width="9" height="86" rx="4.5" fill="#EC6E65" />
<text x="862.0" y="1033.5" font-size="18" font-weight="800" fill="#162235" text-anchor="start" >都営浅草線</text>
<text x="862.0" y="1057.5" font-size="13" font-weight="650" fill="#657386" text-anchor="start" >蔵前 -&gt; 本所吾妻橋</text>
<text x="862.0" y="1074.5" font-size="13" font-weight="650" fill="#657386" text-anchor="start" >07:33 - 07:36</text>
<line x1="676" y1="1065.0" x2="676" y2="1092.0" stroke="#EC6E65" stroke-width="10" stroke-linecap="round" />
<line x1="676" y1="1065.0" x2="676" y2="1092.0" stroke="#ffffff" stroke-opacity="0.62" stroke-width="3" stroke-linecap="round" />
<circle cx="676" cy="1065.0" r="7" fill="#EC6E65" stroke="#ffffff" stroke-width="3" />
<circle cx="676" cy="1092.0" r="7" fill="#EC6E65" stroke="#ffffff" stroke-width="3" />
<line x1="844" y1="1078.5" x2="676" y2="1078.5" stroke="#f4aba6" stroke-width="2" stroke-dasharray="4 5" />
<rect x="844" y="1035.5" width="354" height="86" rx="8" fill="#fcebe9" stroke="#c7625d" stroke-width="1.2" />
<rect x="844" y="1035.5" width="9" height="86" rx="4.5" fill="#EC6E65" />
<text x="862.0" y="1060.5" font-size="18" font-weight="800" fill="#162235" text-anchor="start" >都営浅草線</text>
<text x="862.0" y="1084.5" font-size="13" font-weight="650" fill="#657386" text-anchor="start" >本所吾妻橋 -&gt; 蔵前</text>
<text x="862.0" y="1101.5" font-size="13" font-weight="650" fill="#657386" text-anchor="start" >07:36 - 07:39</text>
<line x1="676" y1="1092.0" x2="676" y2="1146.0" stroke="#EC6E65" stroke-width="10" stroke-linecap="round" />
<line x1="676" y1="1092.0" x2="676" y2="1146.0" stroke="#ffffff" stroke-opacity="0.62" stroke-width="3" stroke-linecap="round" />
<circle cx="676" cy="1092.0" r="7" fill="#EC6E65" stroke="#ffffff" stroke-width="3" />
<circle cx="676" cy="1146.0" r="7" fill="#EC6E65" stroke="#ffffff" stroke-width="3" />
<line x1="844" y1="1119.0" x2="676" y2="1119.0" stroke="#f4aba6" stroke-width="2" stroke-dasharray="4 5" />
<rect x="844" y="1076.0" width="354" height="86" rx="8" fill="#fcebe9" stroke="#c7625d" stroke-width="1.2" />
<rect x="844" y="1076.0" width="9" height="86" rx="4.5" fill="#EC6E65" />
<text x="862.0" y="1101.0" font-size="18" font-weight="800" fill="#162235" text-anchor="start" >都営浅草線</text>
<text x="862.0" y="1125.0" font-size="13" font-weight="650" fill="#657386" text-anchor="start" >蔵前 -&gt; 押上</text>
<text x="862.0" y="1142.0" font-size="13" font-weight="650" fill="#657386" text-anchor="start" >07:39 - 07:45</text>
<line x1="676" y1="1155.0" x2="676" y2="1173.0" stroke="#9B7CB6" stroke-width="10" stroke-linecap="round" />
<line x1="676" y1="1155.0" x2="676" y2="1173.0" stroke="#ffffff" stroke-opacity="0.62" stroke-width="3" stroke-linecap="round" />
<circle cx="676" cy="1155.0" r="7" fill="#9B7CB6" stroke="#ffffff" stroke-width="3" />
<circle cx="676" cy="1173.0" r="7" fill="#9B7CB6" stroke="#ffffff" stroke-width="3" />
<line x1="844" y1="1164.0" x2="676" y2="1164.0" stroke="#c5b3d5" stroke-width="2" stroke-dasharray="4 5" />
<rect x="844" y="1121.0" width="354" height="86" rx="8" fill="#f1edf5" stroke="#856d9f" stroke-width="1.2" />
<rect x="844" y="1121.0" width="9" height="86" rx="4.5" fill="#9B7CB6" />
<text x="862.0" y="1146.0" font-size="18" font-weight="800" fill="#162235" text-anchor="start" >半蔵門線</text>
<text x="862.0" y="1170.0" font-size="13" font-weight="650" fill="#657386" text-anchor="start" >押上 -&gt; 曳舟</text>
<text x="862.0" y="1187.0" font-size="13" font-weight="650" fill="#657386" text-anchor="start" >07:46 - 07:48</text>
<line x1="676" y1="1173.0" x2="676" y2="1218.0" stroke="#2457C5" stroke-width="10" stroke-linecap="round" />
<line x1="676" y1="1173.0" x2="676" y2="1218.0" stroke="#ffffff" stroke-opacity="0.62" stroke-width="3" stroke-linecap="round" />
<circle cx="676" cy="1173.0" r="7" fill="#2457C5" stroke="#ffffff" stroke-width="3" />
<circle cx="676" cy="1218.0" r="7" fill="#2457C5" stroke="#ffffff" stroke-width="3" />
<line x1="844" y1="1195.5" x2="676" y2="1195.5" stroke="#809edd" stroke-width="2" stroke-dasharray="4 5" />
<rect x="844" y="1152.5" width="354" height="86" rx="8" fill="#e0e7f7" stroke="#234fab" stroke-width="1.2" />
<rect x="844" y="1152.5" width="9" height="86" rx="4.5" fill="#2457C5" />
<text x="862.0" y="1177.5" font-size="18" font-weight="800" fill="#162235" text-anchor="start" >京成押上線</text>
<text x="862.0" y="1201.5" font-size="13" font-weight="650" fill="#657386" text-anchor="start" >京成曳舟 -&gt; 京成立石</text>
<text x="862.0" y="1218.5" font-size="13" font-weight="650" fill="#657386" text-anchor="start" >07:48 - 07:53</text>
<line x1="676" y1="1218.0" x2="676" y2="1227.0" stroke="#2457C5" stroke-width="10" stroke-linecap="round" />
<line x1="676" y1="1218.0" x2="676" y2="1227.0" stroke="#ffffff" stroke-opacity="0.62" stroke-width="3" stroke-linecap="round" />
<circle cx="676" cy="1218.0" r="7" fill="#2457C5" stroke="#ffffff" stroke-width="3" />
<circle cx="676" cy="1227.0" r="7" fill="#2457C5" stroke="#ffffff" stroke-width="3" />
<line x1="844" y1="1222.5" x2="676" y2="1222.5" stroke="#809edd" stroke-width="2" stroke-dasharray="4 5" />
<rect x="844" y="1179.5" width="354" height="86" rx="8" fill="#e0e7f7" stroke="#234fab" stroke-width="1.2" />
<rect x="844" y="1179.5" width="9" height="86" rx="4.5" fill="#2457C5" />
<text x="862.0" y="1204.5" font-size="18" font-weight="800" fill="#162235" text-anchor="start" >京成押上線</text>
<text x="862.0" y="1228.5" font-size="13" font-weight="650" fill="#657386" text-anchor="start" >京成立石 -&gt; 青砥</text>
<text x="862.0" y="1245.5" font-size="13" font-weight="650" fill="#657386" text-anchor="start" >07:53 - 07:54</text>
</g>
<g>
<line x1="594" y1="201.0" x2="604" y2="201.0" stroke="#63a6a1" stroke-width="1.6" />
<circle cx="604" cy="201.0" r="4.8" fill="#0f766e" stroke="#ffffff" stroke-width="2" />
<rect x="462" y="178.0" width="132" height="46" rx="8" fill="#e7f1f0" stroke="#0f6562" />
<text x="582.0" y="197.0" font-size="11" font-weight="900" fill="#0f766e" text-anchor="end" >06:00</text>
<text x="582.0" y="213.0" font-size="12" font-weight="800" fill="#182335" text-anchor="end" >Start 東京</text>
<line x1="594" y1="255.0" x2="604" y2="210.0" stroke="#719af2" stroke-width="1.6" />
<circle cx="604" cy="210.0" r="4.8" fill="#2563eb" stroke="#ffffff" stroke-width="2" />
<rect x="462" y="232.0" width="132" height="46" rx="8" fill="#e9effd" stroke="#2155c8" />
<text x="582.0" y="251.0" font-size="11" font-weight="900" fill="#2563eb" text-anchor="end" >06:01</text>
<text x="582.0" y="267.0" font-size="12" font-weight="800" fill="#182335" text-anchor="end" >Board 東京</text>
<line x1="594" y1="309.0" x2="604" y2="282.0" stroke="#e873a7" stroke-width="1.6" />
<circle cx="604" cy="282.0" r="4.8" fill="#db2777" stroke="#ffffff" stroke-width="2" />
<rect x="462" y="286.0" width="132" height="46" rx="8" fill="#fbe9f1" stroke="#b62469" />
<text x="582.0" y="305.0" font-size="11" font-weight="900" fill="#db2777" text-anchor="end" >06:09</text>
<text x="582.0" y="321.0" font-size="12" font-weight="800" fill="#182335" text-anchor="end" >Transfer 品川</text>
<line x1="594" y1="498.0" x2="604" y2="498.0" stroke="#aa7ff3" stroke-width="1.6" />
<circle cx="604" cy="498.0" r="4.8" fill="#7c3aed" stroke="#ffffff" stroke-width="2" />
<rect x="462" y="475.0" width="132" height="46" rx="8" fill="#f2ebfd" stroke="#6834ca" />
<text x="582.0" y="494.0" font-size="11" font-weight="900" fill="#7c3aed" text-anchor="end" >06:33</text>
<text x="582.0" y="510.0" font-size="12" font-weight="800" fill="#182335" text-anchor="end" >Alight 横浜</text>
<line x1="594" y1="633.0" x2="604" y2="633.0" stroke="#719af2" stroke-width="1.6" />
<circle cx="604" cy="633.0" r="4.8" fill="#2563eb" stroke="#ffffff" stroke-width="2" />
<rect x="462" y="610.0" width="132" height="46" rx="8" fill="#e9effd" stroke="#2155c8" />
<text x="582.0" y="629.0" font-size="11" font-weight="900" fill="#2563eb" text-anchor="end" >06:48</text>
<text x="582.0" y="645.0" font-size="12" font-weight="800" fill="#182335" text-anchor="end" >Board 横浜</text>
<line x1="594" y1="705.0" x2="604" y2="705.0" stroke="#aa7ff3" stroke-width="1.6" />
<circle cx="604" cy="705.0" r="4.8" fill="#7c3aed" stroke="#ffffff" stroke-width="2" />
<rect x="462" y="682.0" width="132" height="46" rx="8" fill="#f2ebfd" stroke="#6834ca" />
<text x="582.0" y="701.0" font-size="11" font-weight="900" fill="#7c3aed" text-anchor="end" >06:56</text>
<text x="582.0" y="717.0" font-size="12" font-weight="800" fill="#182335" text-anchor="end" >Alight 新川崎</text>
<line x1="594" y1="759.0" x2="604" y2="714.0" stroke="#719af2" stroke-width="1.6" />
<circle cx="604" cy="714.0" r="4.8" fill="#2563eb" stroke="#ffffff" stroke-width="2" />
<rect x="462" y="736.0" width="132" height="46" rx="8" fill="#e9effd" stroke="#2155c8" />
<text x="582.0" y="755.0" font-size="11" font-weight="900" fill="#2563eb" text-anchor="end" >06:57</text>
<text x="582.0" y="771.0" font-size="12" font-weight="800" fill="#182335" text-anchor="end" >Board 新川崎</text>
<line x1="594" y1="822.0" x2="604" y2="822.0" stroke="#aa7ff3" stroke-width="1.6" />
<circle cx="604" cy="822.0" r="4.8" fill="#7c3aed" stroke="#ffffff" stroke-width="2" />
<rect x="462" y="799.0" width="132" height="46" rx="8" fill="#f2ebfd" stroke="#6834ca" />
<text x="582.0" y="818.0" font-size="11" font-weight="900" fill="#7c3aed" text-anchor="end" >07:09</text>
<text x="582.0" y="834.0" font-size="12" font-weight="800" fill="#182335" text-anchor="end" >Alight 大崎</text>
<line x1="594" y1="930.0" x2="604" y2="930.0" stroke="#719af2" stroke-width="1.6" />
<circle cx="604" cy="930.0" r="4.8" fill="#2563eb" stroke="#ffffff" stroke-width="2" />
<rect x="462" y="907.0" width="132" height="46" rx="8" fill="#e9effd" stroke="#2155c8" />
<text x="582.0" y="926.0" font-size="11" font-weight="900" fill="#2563eb" text-anchor="end" >07:21</text>
<text x="582.0" y="942.0" font-size="12" font-weight="800" fill="#182335" text-anchor="end" >Board 大崎</text>
<line x1="594" y1="984.0" x2="604" y2="984.0" stroke="#aa7ff3" stroke-width="1.6" />
<circle cx="604" cy="984.0" r="4.8" fill="#7c3aed" stroke="#ffffff" stroke-width="2" />
<rect x="462" y="961.0" width="132" height="46" rx="8" fill="#f2ebfd" stroke="#6834ca" />
<text x="582.0" y="980.0" font-size="11" font-weight="900" fill="#7c3aed" text-anchor="end" >07:27</text>
<text x="582.0" y="996.0" font-size="12" font-weight="800" fill="#182335" text-anchor="end" >Alight 渋谷</text>
<line x1="594" y1="1038.0" x2="604" y2="1002.0" stroke="#719af2" stroke-width="1.6" />
<circle cx="604" cy="1002.0" r="4.8" fill="#2563eb" stroke="#ffffff" stroke-width="2" />
<rect x="462" y="1015.0" width="132" height="46" rx="8" fill="#e9effd" stroke="#2155c8" />
<text x="582.0" y="1034.0" font-size="11" font-weight="900" fill="#2563eb" text-anchor="end" >07:29</text>
<text x="582.0" y="1050.0" font-size="12" font-weight="800" fill="#182335" text-anchor="end" >Board 渋谷</text>
<line x1="594" y1="1092.0" x2="604" y2="1092.0" stroke="#e873a7" stroke-width="1.6" />
<circle cx="604" cy="1092.0" r="4.8" fill="#db2777" stroke="#ffffff" stroke-width="2" />
<rect x="462" y="1069.0" width="132" height="46" rx="8" fill="#fbe9f1" stroke="#b62469" />
<text x="582.0" y="1088.0" font-size="11" font-weight="900" fill="#db2777" text-anchor="end" >07:39</text>
<text x="582.0" y="1104.0" font-size="12" font-weight="800" fill="#182335" text-anchor="end" >Transfer 桜新町</text>
<line x1="594" y1="1164.0" x2="604" y2="1164.0" stroke="#e873a7" stroke-width="1.6" />
<circle cx="604" cy="1164.0" r="4.8" fill="#db2777" stroke="#ffffff" stroke-width="2" />
<rect x="462" y="1141.0" width="132" height="46" rx="8" fill="#fbe9f1" stroke="#b62469" />
<text x="582.0" y="1160.0" font-size="11" font-weight="900" fill="#db2777" text-anchor="end" >07:47</text>
<text x="582.0" y="1176.0" font-size="12" font-weight="800" fill="#182335" text-anchor="end" >Transfer 高津</text>
<line x1="594" y1="1218.0" x2="604" y2="1173.0" stroke="#e873a7" stroke-width="1.6" />
<circle cx="604" cy="1173.0" r="4.8" fill="#db2777" stroke="#ffffff" stroke-width="2" />
<rect x="462" y="1195.0" width="132" height="46" rx="8" fill="#fbe9f1" stroke="#b62469" />
<text x="582.0" y="1214.0" font-size="11" font-weight="900" fill="#db2777" text-anchor="end" >07:48</text>
<text x="582.0" y="1230.0" font-size="12" font-weight="800" fill="#182335" text-anchor="end" >Transfer 二子新地</text>
<line x1="594" y1="1272.0" x2="604" y2="1245.0" stroke="#e873a7" stroke-width="1.6" />
<circle cx="604" cy="1245.0" r="4.8" fill="#db2777" stroke="#ffffff" stroke-width="2" />
<rect x="462" y="1249.0" width="132" height="46" rx="8" fill="#fbe9f1" stroke="#b62469" />
<text x="582.0" y="1268.0" font-size="11" font-weight="900" fill="#db2777" text-anchor="end" >07:56</text>
<text x="582.0" y="1284.0" font-size="12" font-weight="800" fill="#182335" text-anchor="end" >Transfer 桜新町</text>
<line x1="594" y1="1326.0" x2="604" y2="1317.0" stroke="#aa7ff3" stroke-width="1.6" />
<circle cx="604" cy="1317.0" r="4.8" fill="#7c3aed" stroke="#ffffff" stroke-width="2" />
<rect x="462" y="1303.0" width="132" height="46" rx="8" fill="#f2ebfd" stroke="#6834ca" />
<text x="582.0" y="1322.0" font-size="11" font-weight="900" fill="#7c3aed" text-anchor="end" >08:04</text>
<text x="582.0" y="1338.0" font-size="12" font-weight="800" fill="#182335" text-anchor="end" >Alight 池尻大橋</text>
<line x1="694" y1="201.0" x2="676" y2="201.0" stroke="#63a6a1" stroke-width="1.6" />
<circle cx="676" cy="201.0" r="4.8" fill="#0f766e" stroke="#ffffff" stroke-width="2" />
<rect x="694" y="178.0" width="132" height="46" rx="8" fill="#e7f1f0" stroke="#0f6562" />
<text x="706.0" y="197.0" font-size="11" font-weight="900" fill="#0f766e" text-anchor="start" >06:00</text>
<text x="706.0" y="213.0" font-size="12" font-weight="800" fill="#182335" text-anchor="start" >Start 東京</text>
<line x1="694" y1="768.0" x2="676" y2="768.0" stroke="#719af2" stroke-width="1.6" />
<circle cx="676" cy="768.0" r="4.8" fill="#2563eb" stroke="#ffffff" stroke-width="2" />
<rect x="694" y="745.0" width="132" height="46" rx="8" fill="#e9effd" stroke="#2155c8" />
<text x="706.0" y="764.0" font-size="11" font-weight="900" fill="#2563eb" text-anchor="start" >07:03</text>
<text x="706.0" y="780.0" font-size="12" font-weight="800" fill="#182335" text-anchor="start" >Board 東京</text>
<line x1="694" y1="885.0" x2="676" y2="885.0" stroke="#e873a7" stroke-width="1.6" />
<circle cx="676" cy="885.0" r="4.8" fill="#db2777" stroke="#ffffff" stroke-width="2" />
<rect x="694" y="862.0" width="132" height="46" rx="8" fill="#fbe9f1" stroke="#b62469" />
<text x="706.0" y="881.0" font-size="11" font-weight="900" fill="#db2777" text-anchor="start" >07:16</text>
<text x="706.0" y="897.0" font-size="12" font-weight="800" fill="#182335" text-anchor="start" >Transfer 新小岩</text>
<line x1="694" y1="993.0" x2="676" y2="993.0" stroke="#e873a7" stroke-width="1.6" />
<circle cx="676" cy="993.0" r="4.8" fill="#db2777" stroke="#ffffff" stroke-width="2" />
<rect x="694" y="970.0" width="132" height="46" rx="8" fill="#fbe9f1" stroke="#b62469" />
<text x="706.0" y="989.0" font-size="11" font-weight="900" fill="#db2777" text-anchor="start" >07:28</text>
<text x="706.0" y="1005.0" font-size="12" font-weight="800" fill="#182335" text-anchor="start" >Transfer 両国</text>
<line x1="694" y1="1047.0" x2="676" y2="1011.0" stroke="#aa7ff3" stroke-width="1.6" />
<circle cx="676" cy="1011.0" r="4.8" fill="#7c3aed" stroke="#ffffff" stroke-width="2" />
<rect x="694" y="1024.0" width="132" height="46" rx="8" fill="#f2ebfd" stroke="#6834ca" />
<text x="706.0" y="1043.0" font-size="11" font-weight="900" fill="#7c3aed" text-anchor="start" >07:30</text>
<text x="706.0" y="1059.0" font-size="12" font-weight="800" fill="#182335" text-anchor="start" >Alight 浅草橋</text>
<line x1="694" y1="1101.0" x2="676" y2="1029.0" stroke="#719af2" stroke-width="1.6" />
<circle cx="676" cy="1029.0" r="4.8" fill="#2563eb" stroke="#ffffff" stroke-width="2" />
<rect x="694" y="1078.0" width="132" height="46" rx="8" fill="#e9effd" stroke="#2155c8" />
<text x="706.0" y="1097.0" font-size="11" font-weight="900" fill="#2563eb" text-anchor="start" >07:32</text>
<text x="706.0" y="1113.0" font-size="12" font-weight="800" fill="#182335" text-anchor="start" >Board 浅草橋</text>
<line x1="694" y1="1155.0" x2="676" y2="1038.0" stroke="#e873a7" stroke-width="1.6" />
<circle cx="676" cy="1038.0" r="4.8" fill="#db2777" stroke="#ffffff" stroke-width="2" />
<rect x="694" y="1132.0" width="132" height="46" rx="8" fill="#fbe9f1" stroke="#b62469" />
<text x="706.0" y="1151.0" font-size="11" font-weight="900" fill="#db2777" text-anchor="start" >07:33</text>
<text x="706.0" y="1167.0" font-size="12" font-weight="800" fill="#182335" text-anchor="start" >Transfer 蔵前</text>
<line x1="694" y1="1209.0" x2="676" y2="1065.0" stroke="#e873a7" stroke-width="1.6" />
<circle cx="676" cy="1065.0" r="4.8" fill="#db2777" stroke="#ffffff" stroke-width="2" />
<rect x="694" y="1186.0" width="132" height="46" rx="8" fill="#fbe9f1" stroke="#b62469" />
<text x="706.0" y="1205.0" font-size="11" font-weight="900" fill="#db2777" text-anchor="start" >07:36</text>
<text x="706.0" y="1221.0" font-size="12" font-weight="800" fill="#182335" text-anchor="start" >Transfer 本所吾妻橋</text>
<line x1="694" y1="1263.0" x2="676" y2="1092.0" stroke="#e873a7" stroke-width="1.6" />
<circle cx="676" cy="1092.0" r="4.8" fill="#db2777" stroke="#ffffff" stroke-width="2" />
<rect x="694" y="1240.0" width="132" height="46" rx="8" fill="#fbe9f1" stroke="#b62469" />
<text x="706.0" y="1259.0" font-size="11" font-weight="900" fill="#db2777" text-anchor="start" >07:39</text>
<text x="706.0" y="1275.0" font-size="12" font-weight="800" fill="#182335" text-anchor="start" >Transfer 蔵前</text>
<line x1="694" y1="1317.0" x2="676" y2="1146.0" stroke="#aa7ff3" stroke-width="1.6" />
<circle cx="676" cy="1146.0" r="4.8" fill="#7c3aed" stroke="#ffffff" stroke-width="2" />
<rect x="694" y="1294.0" width="132" height="46" rx="8" fill="#f2ebfd" stroke="#6834ca" />
<text x="706.0" y="1313.0" font-size="11" font-weight="900" fill="#7c3aed" text-anchor="start" >07:45</text>
<text x="706.0" y="1329.0" font-size="12" font-weight="800" fill="#182335" text-anchor="start" >Alight 押上</text>
<line x1="694" y1="1371.0" x2="676" y2="1155.0" stroke="#719af2" stroke-width="1.6" />
<circle cx="676" cy="1155.0" r="4.8" fill="#2563eb" stroke="#ffffff" stroke-width="2" />
<rect x="694" y="1348.0" width="132" height="46" rx="8" fill="#e9effd" stroke="#2155c8" />
<text x="706.0" y="1367.0" font-size="11" font-weight="900" fill="#2563eb" text-anchor="start" >07:46</text>
<text x="706.0" y="1383.0" font-size="12" font-weight="800" fill="#182335" text-anchor="start" >Board 押上</text>
<line x1="694" y1="1425.0" x2="676" y2="1173.0" stroke="#e873a7" stroke-width="1.6" />
<circle cx="676" cy="1173.0" r="4.8" fill="#db2777" stroke="#ffffff" stroke-width="2" />
<rect x="694" y="1402.0" width="132" height="46" rx="8" fill="#fbe9f1" stroke="#b62469" />
<text x="706.0" y="1421.0" font-size="11" font-weight="900" fill="#db2777" text-anchor="start" >07:48</text>
<text x="706.0" y="1437.0" font-size="12" font-weight="800" fill="#182335" text-anchor="start" >Transfer 京成曳舟</text>
<line x1="694" y1="1479.0" x2="676" y2="1218.0" stroke="#e873a7" stroke-width="1.6" />
<circle cx="676" cy="1218.0" r="4.8" fill="#db2777" stroke="#ffffff" stroke-width="2" />
<rect x="694" y="1456.0" width="132" height="46" rx="8" fill="#fbe9f1" stroke="#b62469" />
<text x="706.0" y="1475.0" font-size="11" font-weight="900" fill="#db2777" text-anchor="start" >07:53</text>
<text x="706.0" y="1491.0" font-size="12" font-weight="800" fill="#182335" text-anchor="start" >Transfer 京成立石</text>
<line x1="694" y1="1533.0" x2="676" y2="1227.0" stroke="#aa7ff3" stroke-width="1.6" />
<circle cx="676" cy="1227.0" r="4.8" fill="#7c3aed" stroke="#ffffff" stroke-width="2" />
<rect x="694" y="1510.0" width="132" height="46" rx="8" fill="#f2ebfd" stroke="#6834ca" />
<text x="706.0" y="1529.0" font-size="11" font-weight="900" fill="#7c3aed" text-anchor="start" >07:54</text>
<text x="706.0" y="1545.0" font-size="12" font-weight="800" fill="#182335" text-anchor="start" >Alight 青砥</text>
</g>
<text x="640.0" y="1482.0" font-size="12" font-weight="650" fill="#8a97a8" text-anchor="middle" >Generated from v3 public battle records</text>
</g></svg>
